<svg width="1920" height="456" viewBox="0 0 1920 456" fill="none" xmlns="http://www.w3.org/2000/svg">
<path d="M515.2 385.54C522.29 385.77 529.35 385.9 536.36 385.92C536.36 388.34 535.84 390.75 534.84 392.94H534.82C533.88 395.05 532.53 396.92 530.85 398.45C529.17 399.97 527.19 401.1 525.06 401.76L523.82 402.15L522.91 403.11C521.48 404.66 519.76 405.89 517.86 406.73C515.96 407.58 513.91 408 511.85 408C509.34 408.01 506.86 407.35 504.64 406.12C503.7 405.59 502.82 404.98 502 404.26L501.02 403.38L499.73 403.17C497.46 402.77 495.33 401.85 493.44 400.48C491.35 398.91 489.65 396.84 488.47 394.45C487.8 393.1 487.31 391.65 487.02 390.17L486.52 390.24C486.38 389.49 486.26 388.77 486.17 388.06C440.6 384.98 393.86 378.18 347.18 368.7C346.96 370.5 346.46 372.26 345.7 373.9H345.67C344.73 376 343.37 377.88 341.69 379.4C340.01 380.91 338.04 382.05 335.91 382.71L334.65 383.11L333.75 384.06L333.46 384.38C330.68 387.23 326.96 388.86 323.07 388.96H322.7C319.1 388.96 315.61 387.64 312.86 385.22L311.89 384.36L310.57 384.13C307.9 383.66 305.39 382.46 303.3 380.67C301.2 378.87 299.59 376.55 298.61 373.91C297.87 371.93 297.5 369.84 297.5 367.73C297.5 366.59 297.61 365.45 297.83 364.33L297.9 363.96L297.95 363.59C298.42 360.3 300.02 357.27 302.42 354.71C308.47 356.15 314.52 357.56 320.58 358.92C320.69 358.94 320.8 358.97 320.91 358.99C321.04 359.02 321.16 359.05 321.29 359.08C323.52 359.58 325.75 360.08 327.99 360.56C334.37 361.96 340.76 363.31 347.14 364.61C347.26 364.64 347.38 364.66 347.5 364.68C394 374.14 440.55 380.95 485.95 384.05C486.25 384.07 486.56 384.1 486.86 384.11C489.19 384.27 491.51 384.42 493.82 384.55C500.6 384.96 507.35 385.27 514.07 385.5C514.17 385.51 514.28 385.51 514.38 385.51C514.65 385.53 514.92 385.53 515.2 385.54V385.54Z" fill="white"/>
<path d="M681.89 373.44C694.36 371.39 706.82 369.11 719.26 366.62C718.7 369.8 717.21 372.62 714.44 374.83C704.18 383.02 689.7 383.67 680.84 383.14V383.17L673.51 382.67C668.41 396.35 661.85 393.93 660.92 393.94C660.55 393.94 660.07 393.39 659.52 392.47C659.46 392.38 659.4 392.28 659.35 392.18C658.24 390.26 656.88 387 655.65 383.74C650.42 384.51 645.02 384.82 640.11 384.85C637.56 385.12 624.42 386.35 620.99 382.87C620.63 382.51 620.43 382.11 620.36 381.68C621 381.62 621.64 381.56 622.28 381.48C628.01 380.9 633.74 380.25 639.49 379.54C644.14 378.98 648.8 378.38 653.46 377.74C653.53 377.73 653.59 377.72 653.66 377.71C659.39 376.94 665.12 376.1 670.85 375.21C672.1 375.02 673.36 374.82 674.61 374.62C675.04 374.56 675.48 374.49 675.91 374.41C677.9 374.1 679.9 373.78 681.89 373.44V373.44Z" fill="white"/>
<path d="M951.21 310.16L951.23 310.18C950.8 311.83 949.97 313.34 948.82 314.57C947.67 315.78 946.25 316.69 944.68 317.17L943.92 317.41L943.37 317.99C942.5 318.94 941.44 319.7 940.27 320.21C939.12 320.72 937.87 320.98 936.6 320.98C935.24 320.98 933.89 320.67 932.66 320.07C931.92 319.72 931.23 319.26 930.6 318.72L929.98 318.16L929.2 318.04H929.14C927.25 317.69 925.51 316.75 924.14 315.35C923.45 314.64 922.87 313.84 922.41 312.96C896.39 322.28 869.61 331.17 842.33 339.37C842.43 339.96 842.48 340.55 842.49 341.14C842.5 342.07 842.39 342.99 842.16 343.9H842.17C841.74 345.54 840.91 347.05 839.76 348.28C838.61 349.5 837.19 350.4 835.62 350.89L834.85 351.13L834.3 351.71C833.64 352.42 832.89 353.02 832.07 353.51C830.69 354.29 829.14 354.71 827.56 354.71C827.04 354.71 826.51 354.67 825.99 354.58C824.35 354.28 822.82 353.55 821.54 352.45L820.91 351.89L820.12 351.76C817.87 351.34 815.84 350.1 814.38 348.27C813.45 347.09 812.79 345.72 812.44 344.27C815.54 343.41 818.63 342.54 821.72 341.66C821.78 341.65 821.83 341.64 821.89 341.61C821.99 341.58 822.1 341.55 822.2 341.52C828.55 339.71 834.89 337.86 841.19 335.97C868.48 327.8 895.29 318.95 921.35 309.64C929.19 306.85 936.97 304.01 944.67 301.14C944.76 301.11 944.84 301.08 944.93 301.04C945.44 300.86 945.95 300.67 946.46 300.47C947.1 300.23 947.74 300 948.37 299.76C948.49 299.86 948.61 299.98 948.73 300.1L948.82 300.19C949 300.4 949.16 300.59 949.32 300.78C949.43 300.9 949.53 301.04 949.62 301.18L949.7 301.28C949.78 301.4 949.88 301.51 949.97 301.7L950.09 301.9C950.47 302.51 950.78 303.17 951.01 303.86C951.06 303.97 951.1 304.09 951.13 304.21V304.36C951.19 304.54 951.23 304.72 951.28 304.93C951.46 305.74 951.56 306.55 951.56 307.38C951.56 308.32 951.45 309.25 951.21 310.16V310.16Z" fill="white"/>
<path d="M703.5 361.15C702.51 360.04 688.49 245.93 688.49 245.93C688.49 245.93 692.22 202.72 766.68 215.24C766.68 215.24 745.48 234.78 751.17 251.18C756.86 267.57 775.93 280.83 766.68 313.5C757.44 346.17 731.6 366.8 706.39 364.01C681.18 361.22 703.51 361.15 703.51 361.15H703.5Z" fill="#AA6231"/>
<path d="M767.27 283.56C760.91 289.12 749.88 293.65 730.47 293.09C711.06 292.54 699.36 287.76 692.23 282.36C689.68 261.93 687.64 245.55 687.64 245.55C687.64 245.55 691.97 202.63 767.27 215.19C767.27 215.19 746.96 234.35 750.99 250.8C754.63 261.13 763.54 270.19 767.27 283.55V283.56Z" fill="#F8E3CE"/>
<path d="M666.68 381.29C663.36 382.37 659.7 383.15 655.94 383.7C655.85 383.72 655.75 383.74 655.65 383.74C650.42 384.51 645.02 384.82 640.11 384.85C629.64 384.91 621.4 383.69 621.76 382.73C621.91 382.31 622.09 381.89 622.28 381.48C624.09 377.48 627.42 373.72 631.03 370.48C631.04 370.47 631.06 370.46 631.07 370.45C632.92 368.8 634.84 367.29 636.67 365.96C640.75 362.99 644.36 360.92 645.64 360.21C645.96 360.03 646.13 359.94 646.13 359.94H646.14C646.14 359.94 646.44 360.06 646.97 360.28C650.11 361.61 661.39 366.54 667.47 371.52C668.99 372.76 670.19 374.01 670.85 375.21C672.18 377.6 671.35 379.78 666.68 381.29V381.29Z" fill="#AA6231"/>
<path d="M629.26 344.39C629.26 344.39 627.63 357.91 639.97 369.49L648.83 357.86L631.82 341.01L629.26 344.41V344.39Z" fill="#AA6231"/>
<path d="M617.68 310.54C617.82 310.56 617.97 310.58 618.13 310.61H614.83C614.83 310.61 615.34 310.48 616.21 310.47C616.62 310.45 617.12 310.47 617.68 310.54V310.54Z" fill="#DE8237"/>
<path d="M719.53 363.39C719.53 364.5 719.45 365.58 719.26 366.62C718.7 369.8 717.21 372.62 714.44 374.83C704.18 383.02 689.7 383.67 680.84 383.14C677.4 382.93 674.8 382.54 673.63 382.34C673.18 382.26 672.94 382.21 672.94 382.21C672.88 382.35 672.82 382.49 672.77 382.62C666.21 398.17 660.9 393.48 659.66 392.62C659.62 392.59 659.58 392.54 659.52 392.47C659.46 392.38 659.4 392.28 659.35 392.18C658.71 391.01 657.47 387.75 655.94 383.7C655.23 381.83 654.46 379.8 653.66 377.71C653.16 376.43 652.66 375.14 652.14 373.86C652.11 373.78 652.09 373.73 652.08 373.69C652.08 373.67 652.06 373.65 652.06 373.63C650.07 368.69 648.02 363.97 646.28 361.19C646.06 360.83 645.85 360.5 645.64 360.21C645.57 360.12 645.5 360.03 645.44 359.95C645.43 359.95 645.43 359.94 645.43 359.94H645.42C643.05 356.85 641.38 355.02 638.83 347.95C638.83 347.94 638.83 347.92 638.83 347.91C637.42 344.02 635.75 338.54 633.54 330.4C633.43 329.98 633.31 329.57 633.19 329.17C633.01 328.54 632.82 327.94 632.63 327.36C632.02 325.5 631.37 323.84 630.68 322.37C630 320.9 629.29 319.6 628.56 318.47C624.92 312.8 620.89 311.06 618.14 310.61H700.75C700.75 310.61 700.77 311.05 700.81 311.78C700.98 314.62 701.52 321.92 702.83 325.37C704.1 328.7 719.53 348.61 719.54 363.39H719.53Z" fill="#DE8237"/>
<path d="M692.99 342.61C687.41 352.07 683.66 362.54 681.89 373.44C681.36 376.64 681.02 379.88 680.84 383.14V383.17L673.51 382.67L672.77 382.62L671.42 382.53L674.61 374.62L677.03 368.64V368.61C677.05 368.42 677.17 367.12 677.56 365.18C677.56 365.16 677.56 365.14 677.57 365.12C678.77 359.2 682.43 347.43 692.99 342.61V342.61Z" fill="#F08A37"/>
<path d="M677.65 364.52C677.62 364.72 677.59 364.92 677.57 365.12C677.56 365.14 677.56 365.16 677.56 365.18C677.39 366.37 677.21 367.52 677.03 368.61V368.64C676.68 370.73 676.3 372.65 675.91 374.41C675.2 377.51 674.44 380.13 673.63 382.34C673.59 382.45 673.55 382.56 673.51 382.67C668.41 396.35 661.85 393.93 660.92 393.94C660.55 393.94 660.07 393.39 659.52 392.47C659.46 392.38 659.4 392.28 659.35 392.18C658.24 390.26 656.88 387 655.65 383.74C654.83 381.61 654.07 379.49 653.46 377.74C652.8 375.85 652.31 374.4 652.14 373.86C652.11 373.78 652.09 373.73 652.08 373.69C652.08 373.65 652.06 373.63 652.06 373.63C657.5 375.14 662.98 373.69 667.47 371.52C673.44 368.64 677.65 364.52 677.65 364.52V364.52Z" fill="#8E5B35"/>
<path d="M614.83 310.61C614.83 310.61 615.18 332.35 645.41 359.92C645.41 359.92 669.93 347.09 685.42 310.61H614.83Z" fill="#FFEED7"/>
<path d="M630.51 344.06C630.51 344.06 630.4 352.93 637.64 352.29C637.64 352.29 636.96 361.1 645.44 359.94C645.44 359.93 640.09 343.03 630.52 344.06H630.51Z" fill="#FFEED7"/>
<path d="M645.79 251.97C645.79 251.97 644.52 224.92 643.97 205.84C643.97 205.84 611.36 241.17 617.88 272.71L645.79 251.97V251.97Z" fill="#DBB9C6"/>
<path d="M617.9 272.74C617.9 272.74 621.84 243.33 644 205.87C644 205.87 610.4 239.26 617.86 272.53L617.91 272.74H617.9V272.74Z" fill="#DE8237"/>
<path d="M670.51 249.55C670.51 249.55 671.78 222.51 672.33 203.42C672.33 203.42 704.94 238.75 698.42 270.29L670.51 249.55V249.55Z" fill="#DBB9C6"/>
<path d="M691.88 262.23C691.88 262.23 684.26 234.78 676.49 215.2C676.49 215.2 676.56 239.11 676.49 252.68L691.88 262.22V262.23Z" fill="#DBB9C6"/>
<path d="M698.43 270.13C705.88 236.86 672.3 203.42 672.3 203.42C694.44 240.91 698.39 270.29 698.39 270.29L698.43 270.13Z" fill="#DE8237"/>
<path d="M709.44 289.26C708.62 308.16 693.54 323.92 673.19 328.85H673.13C666.14 330.22 658.99 330.57 651.92 329.88H651.9C628.9 326.8 611.12 310.09 609.99 289.67C615.74 291.99 622.11 291.92 627.82 289.49C632.64 287.43 641.05 276.75 654.28 278.93C667.52 281.1 671.38 290.99 681.62 291.4C690.95 291.79 700.28 291.09 709.46 289.28H709.44V289.26Z" fill="#FFEED7"/>
<path d="M709.48 287.64V289.26C700.29 291.08 690.94 291.81 681.59 291.42C671.34 291.02 667.48 281.13 654.26 278.95C641.03 276.77 632.61 287.49 627.8 289.51C622.1 291.95 615.72 292.01 609.97 289.69C609.97 289.01 609.91 288.31 609.91 287.63C609.91 263.97 632.2 244.83 659.72 244.83C687.24 244.83 709.49 263.99 709.49 287.62L709.48 287.64Z" fill="#DE8237"/>
<path d="M611.26 314.95C611.26 314.95 630.03 296.68 637.96 298.68C645.88 300.69 628.59 326.29 630.5 344.06C630.5 344.06 598.3 353.97 611.27 314.94H611.26V314.95Z" fill="#DB8128"/>
<path d="M632.21 313.18C631.82 313.73 618.43 329.98 622.81 345.17C622.81 345.17 628.94 345.96 630.49 344.05C630.49 344.05 633.77 323.48 636.65 314.93C636.67 314.93 633.55 311.34 632.21 313.18V313.18Z" fill="#C47E4E"/>
<path d="M626.42 302.7C626.42 302.7 624.13 313.77 636.67 314.94C636.67 314.94 642.87 302.24 639.51 298.67C637.58 296.61 629.39 300.66 626.42 302.69V302.7Z" fill="#8E5B35"/>
<path d="M640.54 384.8C640.54 384.8 640.39 384.82 640.11 384.85C637.56 385.12 624.42 386.35 620.99 382.87C620.63 382.51 620.43 382.11 620.36 381.68C619.72 377.73 629.8 371.25 631.03 370.48C631.04 370.47 631.06 370.46 631.07 370.45C631.12 370.42 631.15 370.4 631.15 370.4C631.15 370.4 636.95 371.84 639.49 379.54C639.99 381.04 640.36 382.78 640.54 384.8Z" fill="#8E5B35"/>
<path d="M608.18 331.35C608.18 331.35 620.13 337.42 624.01 327.83L622.83 345.17C622.83 345.17 608.49 346.48 608.18 331.34V331.35Z" fill="#C47E4E"/>
<path d="M674.37 270.19C674.1 266.61 672.14 263.84 669.98 264.02C667.82 264.19 666.29 267.23 666.55 270.81C666.82 274.39 668.77 277.15 670.94 276.98C673.1 276.82 674.62 273.78 674.36 270.19H674.37Z" fill="#35353D"/>
<path d="M631.22 270.24C631.51 266.66 629.99 263.61 627.83 263.41C625.68 263.22 623.7 265.97 623.41 269.58C623.12 273.19 624.64 276.21 626.8 276.41C628.95 276.6 630.94 273.82 631.22 270.24Z" fill="#35353D"/>
<path d="M649.27 285.58C652.05 282.98 651.99 278.13 649.15 274.77C646.31 271.4 641.78 270.8 639.01 273.4C636.24 276 636.29 280.84 639.13 284.2C641.97 287.57 646.5 288.18 649.27 285.58Z" fill="#35353D"/>
<path d="M464.7 223.15C464.7 223.15 454.77 204.91 476.02 199.27C497.26 193.64 504.76 216.76 501.54 220.98C501.54 220.98 500.17 239.07 482.43 234.58C464.7 230.1 464.69 223.15 464.69 223.15H464.7V223.15Z" fill="#DDDDDD"/>
<path d="M514.53 389.48C506.25 389.21 497.92 388.81 489.55 388.28C488.61 388.22 487.66 388.16 486.72 388.09C486.54 388.08 486.35 388.07 486.17 388.06C440.6 384.98 393.86 378.18 347.18 368.7C347.17 368.7 347.16 368.69 347.15 368.69C341.62 367.57 336.1 366.41 330.57 365.21C327.26 364.49 323.95 363.76 320.64 363.02C320.73 361.67 320.82 360.33 320.91 358.99C321.14 355.65 321.39 352.37 321.65 349.15C321.71 348.39 321.77 347.63 321.83 346.88C321.84 346.82 321.85 346.76 321.85 346.7C324.85 311.02 329.64 283.75 336.9 279.72C336.9 279.72 299.87 266.66 323.26 231.64C346.66 196.66 367.32 231.25 367.32 231.25C367.32 231.25 385.27 215.71 409.25 210.09C410.67 209.75 412.11 209.46 413.57 209.2C417.55 208.49 421.67 208.09 425.87 208.09C429.04 208.09 432.28 208.25 435.55 208.57C436.74 208.68 437.93 208.82 439.12 208.98C446.95 210 454.89 211.91 462.41 214.67C474.45 219.08 485.42 225.66 493.13 234.25C498.21 239.91 501.89 246.45 503.53 253.81C505.87 264.34 510.72 310.06 513.5 365.75V365.78C513.53 366.28 513.55 366.77 513.58 367.27C513.87 373.25 514.14 379.34 514.38 385.51C514.43 386.83 514.48 388.15 514.53 389.48V389.48Z" fill="#EDEDED"/>
<path d="M360.6 240.07C360.6 240.07 346.22 259.03 342.41 268.29C342.41 268.29 314.15 252.01 331.26 235.68C348.39 219.34 360.6 240.07 360.6 240.07V240.07Z" fill="#DBB9C6"/>
<path d="M482.29 293.61C482.29 293.61 517.72 324 479.53 350.62C479.53 350.62 511.79 327.32 482.29 293.61Z" fill="#C6C4C2"/>
<path d="M459.67 316.18C459.67 316.18 437.36 317.05 443.92 305.19C450.49 293.33 472.81 297.81 474.49 303.13C476.32 308.65 477.39 314.45 459.66 316.18H459.67Z" fill="#5E5E5E"/>
<path d="M405.39 280.3C407.75 280.3 409.67 277.22 409.67 273.5C409.67 269.78 407.75 266.69 405.39 266.69C403.03 266.69 401.11 269.77 401.11 273.5C401.11 277.23 403.02 280.3 405.39 280.3Z" fill="#2B2B2B"/>
<path d="M483.51 278.99C485.7 278.99 487.45 276.2 487.45 272.77C487.45 269.34 485.67 266.54 483.51 266.54C481.35 266.54 479.57 269.33 479.57 272.77C479.57 276.21 481.31 278.99 483.51 278.99Z" fill="#2B2B2B"/>
<path d="M514.31 365.81V366.63L513.58 367.27L493.82 384.55L489.55 388.28L487.46 390.11H487.45L487.02 390.17L486.52 390.24C486.38 389.49 486.26 388.77 486.17 388.06C485.99 386.64 485.92 385.3 485.95 384.05C486.31 365.02 508.92 365.46 513.5 365.75C514.02 365.78 514.31 365.81 514.31 365.81V365.81Z" fill="#C6C4C2"/>
<path d="M536.36 385.75V385.92C536.36 388.34 535.84 390.75 534.84 392.94H534.82C533.88 395.05 532.53 396.92 530.85 398.45C529.17 399.97 527.19 401.1 525.06 401.76L523.82 402.15L522.91 403.11C521.48 404.66 519.76 405.89 517.86 406.73C515.96 407.58 513.91 408 511.85 408C509.34 408.01 506.86 407.35 504.64 406.12C503.7 405.59 502.82 404.98 502 404.26L501.02 403.38L499.73 403.17C497.46 402.77 495.33 401.85 493.44 400.48C491.35 398.91 489.65 396.84 488.47 394.45C487.8 393.1 487.31 391.65 487.02 390.17C486.87 389.48 486.77 388.79 486.72 388.09C486.68 387.64 486.66 387.18 486.66 386.73C486.66 385.85 486.73 384.97 486.86 384.11C486.91 383.85 486.96 383.59 487.01 383.34V382.61C487.38 380.17 488.31 377.87 489.73 375.89C492.21 372.49 495.51 369.85 499.3 368.25C503.17 366.56 507.33 365.69 511.52 365.71C512.18 365.71 512.84 365.73 513.5 365.78C513.77 365.79 514.04 365.81 514.31 365.84C521.15 366.46 527.52 369.33 531.62 373.8L531.77 373.96C532.07 374.28 532.34 374.62 532.6 374.98C532.78 375.18 532.95 375.41 533.09 375.64L533.21 375.8C533.38 376.01 533.53 376.23 533.67 376.47L533.87 376.8C534.6 377.98 535.17 379.25 535.56 380.6L535.63 380.83C535.71 381.12 535.8 381.42 535.88 381.78C535.98 382.13 536.01 382.36 536.06 382.65C536.25 383.67 536.34 384.71 536.36 385.75V385.75Z" fill="#EDEDED"/>
<path d="M320.47 347.04C320.47 347.04 352.07 342.1 346.94 369.88L335.7 374.45L320.46 347.04H320.47Z" fill="#C6C4C2"/>
<path d="M347.3 366.76C347.3 367.2 347.28 367.64 347.24 368.08C347.22 368.29 347.2 368.5 347.18 368.7C346.96 370.5 346.46 372.26 345.7 373.9H345.67C344.73 376 343.37 377.88 341.69 379.4C340.01 380.91 338.04 382.05 335.91 382.71L334.65 383.11L333.75 384.06L333.46 384.38C330.68 387.23 326.96 388.86 323.07 388.96H322.7C319.1 388.96 315.61 387.64 312.86 385.22L311.89 384.36L310.57 384.13C307.9 383.66 305.39 382.46 303.3 380.67C301.2 378.87 299.59 376.55 298.61 373.91C297.87 371.93 297.5 369.84 297.5 367.73C297.5 366.59 297.61 365.45 297.83 364.33L297.9 363.96L297.95 363.59C298.42 360.3 300.02 357.27 302.42 354.71C306.37 350.47 312.51 347.52 319.42 346.84C320.21 346.76 321.01 346.71 321.85 346.7C322.05 346.69 322.25 346.69 322.46 346.69C322.99 346.69 323.51 346.7 324.04 346.73C326.02 346.84 327.99 347.14 329.93 347.62C334.72 348.72 339.1 351.22 342.58 354.83L342.73 354.98C343.01 355.3 343.28 355.59 343.55 356.01C343.72 356.22 343.88 356.44 344.02 356.66L344.17 356.82C344.31 357.02 344.46 357.22 344.61 357.49L344.81 357.82C345.54 359 346.11 360.28 346.52 361.62L346.6 361.85C346.68 362.16 346.75 362.48 346.81 362.8C346.88 363.1 346.94 363.38 346.99 363.68C347.05 363.99 347.1 364.3 347.14 364.61C347.24 365.32 347.29 366.04 347.3 366.76V366.76Z" fill="#EDEDED"/>
<path d="M1920 0V456H0V252.28C83.52 288.24 183.08 324.8 285.57 350.56C291.18 351.98 296.79 353.36 302.42 354.71C300.02 357.27 298.42 360.3 297.95 363.59L297.9 363.96L297.83 364.33C297.61 365.45 297.5 366.59 297.5 367.73C297.5 369.84 297.87 371.93 298.61 373.91C299.59 376.55 301.2 378.87 303.3 380.67C305.39 382.46 307.9 383.66 310.57 384.13L311.89 384.36L312.86 385.22C315.61 387.64 319.1 388.96 322.7 388.96H323.07C326.96 388.86 330.68 387.23 333.46 384.38L333.75 384.06L334.65 383.11L335.91 382.71C338.04 382.05 340.01 380.91 341.69 379.4C343.37 377.88 344.73 376 345.67 373.91H345.7C346.46 372.26 346.96 370.5 347.18 368.7C393.86 378.18 440.6 384.98 486.17 388.06C486.26 388.77 486.38 389.49 486.52 390.24L487.02 390.17C487.31 391.65 487.8 393.1 488.47 394.45C489.65 396.84 491.35 398.91 493.44 400.48C495.33 401.85 497.46 402.77 499.73 403.17L501.02 403.38L502 404.26C502.82 404.98 503.7 405.59 504.64 406.12C506.86 407.35 509.34 408.01 511.85 408C513.91 408 515.96 407.58 517.86 406.73C519.76 405.89 521.48 404.66 522.91 403.11L523.82 402.15L525.06 401.76C527.19 401.1 529.17 399.97 530.85 398.45C532.53 396.92 533.88 395.05 534.82 392.94H534.84C535.84 390.75 536.36 388.34 536.36 385.92C537.37 385.93 538.37 385.93 539.37 385.93C566.04 385.93 593.11 384.44 620.36 381.68C620.43 382.11 620.63 382.51 620.99 382.87C624.42 386.35 637.56 385.12 640.11 384.85C645.02 384.82 650.42 384.51 655.65 383.74C656.88 387 658.24 390.26 659.35 392.18C659.4 392.28 659.46 392.38 659.52 392.47C660.07 393.39 660.55 393.94 660.92 393.94C661.85 393.93 668.41 396.35 673.51 382.67L680.84 383.17V383.14C689.7 383.67 704.18 383.02 714.44 374.83C717.21 372.62 718.7 369.8 719.26 366.62C739 362.68 758.69 358.21 778.23 353.32C789.69 350.45 801.1 347.43 812.44 344.27C812.79 345.72 813.45 347.09 814.38 348.27C815.84 350.1 817.87 351.34 820.12 351.76L820.91 351.89L821.54 352.45C822.82 353.55 824.35 354.28 825.99 354.58C826.51 354.67 827.04 354.71 827.56 354.71C829.14 354.71 830.69 354.29 832.07 353.51C832.89 353.02 833.64 352.42 834.3 351.71L834.85 351.13L835.62 350.89C837.19 350.4 838.61 349.5 839.76 348.28C840.91 347.05 841.74 345.54 842.17 343.89H842.16C842.39 342.99 842.5 342.07 842.49 341.14C842.48 340.55 842.43 339.96 842.33 339.37C869.61 331.17 896.39 322.28 922.41 312.96C922.87 313.84 923.45 314.64 924.14 315.35C925.51 316.75 927.25 317.69 929.14 318.04H929.2L929.98 318.16L930.6 318.72C931.23 319.26 931.92 319.72 932.66 320.07C933.89 320.67 935.24 320.98 936.6 320.98C937.87 320.98 939.12 320.72 940.27 320.21C941.44 319.7 942.5 318.94 943.37 317.99L943.92 317.41L944.68 317.17C946.25 316.69 947.67 315.78 948.82 314.57C949.97 313.34 950.8 311.83 951.23 310.18L951.21 310.16C951.45 309.25 951.56 308.32 951.56 307.38C951.56 306.55 951.46 305.74 951.28 304.93C951.23 304.72 951.19 304.54 951.13 304.36V304.21C951.1 304.09 951.06 303.97 951.01 303.86C950.78 303.17 950.47 302.51 950.09 301.9L949.97 301.7C949.88 301.51 949.78 301.4 949.7 301.28L949.62 301.18C949.53 301.04 949.43 300.9 949.32 300.78C949.16 300.59 949 300.4 948.82 300.19L948.73 300.1C948.61 299.98 948.49 299.86 948.37 299.76C950.43 298.99 952.48 298.22 954.53 297.43L954.77 297.34C955.61 297.03 956.44 296.72 957.27 296.39C961.86 294.64 966.42 292.89 970.95 291.1C971.02 291.07 971.09 291.05 971.16 291.02C972.14 290.65 973.13 290.26 974.11 289.87C1055.19 258.02 1126.47 223.35 1178.99 194.47C1243.2 159.17 1309.51 127.89 1377.73 101.3C1408.73 89.22 1441.86 77.13 1476.17 65.73C1476.17 65.72 1476.19 65.73 1476.2 65.73C1479.5 64.62 1482.79 63.54 1486.11 62.45C1512.13 53.96 1538.76 45.9 1565.6 38.56C1577.63 35.28 1589.7 32.13 1601.79 29.16H1601.81C1607.83 27.68 1613.84 26.24 1619.86 24.85C1621.99 24.35 1624.13 23.87 1626.26 23.39C1644.2 19.32 1662.12 15.68 1679.85 12.57C1680.35 12.48 1680.85 12.39 1681.36 12.3C1684.34 11.78 1687.32 11.27 1690.3 10.79C1691.96 10.52 1693.62 10.24 1695.28 9.98C1710.74 7.5 1726.04 5.43 1741.1 3.85C1751.47 2.77 1761.71 1.89 1771.81 1.27C1772.23 1.24 1772.65 1.21 1773.07 1.19H1773.09C1774.49 1.1 1775.9 1.02 1777.3 0.95C1780.46 0.78 1783.61 0.64 1786.74 0.53C1788.73 0.45 1790.71 0.38 1792.67 0.33C1793.09 0.3 1793.5 0.29 1793.92 0.29C1796.17 0.23 1798.42 0.18 1800.65 0.15C1803.14 0.12 1805.62 0.1 1808.09 0.1H1810.59C1810.43 0.33 1810.28 0.55 1810.11 0.76C1811.22 0.69 1812.16 0.56 1813.27 0.1H1919.6V0H1919.99L1920 0Z" fill="white"/>
<path d="M1001.13 255.14C1000.7 258.88 998.35 262.8 994.77 263.23C991.18 263.65 988.2 260.54 985.46 258.08C981.18 254.23 976.14 251.42 970.7 249.85C969.59 249.42 968.36 249.42 967.25 249.85C966.45 250.36 965.82 251.09 965.42 251.97C962.06 257.91 960.75 264.88 961.72 271.71C962.86 279.02 966.64 285.21 971.16 291.02C971.09 291.05 971.02 291.07 970.95 291.1C966.42 292.89 961.86 294.64 957.27 296.39C956.44 296.72 955.61 297.03 954.77 297.34C949.98 289.14 946.19 280.21 945.36 270.69C944.39 259.71 947.94 247.8 956.39 241.16C960.69 237.98 965.63 235.89 970.84 235.07C977.73 233.77 985.09 234.04 991.26 237.44C997.44 240.83 1001.95 247.89 1001.13 255.14Z" fill="#82ABAF"/>
<path d="M945.76 304.42C938.05 307.3 930.27 310.16 922.41 312.96C896.39 322.28 869.61 331.17 842.33 339.37C835.26 341.5 828.16 343.58 821.03 345.61C821.42 344.25 821.81 342.89 822.2 341.52C823.39 337.37 824.58 333.18 825.76 328.98C838.71 282.78 850.52 235.88 850.52 235.88C850.52 235.88 851.25 213.19 856.94 212.52C862.63 211.85 868.69 224.26 868.69 224.26C868.69 224.26 892.64 221.27 909.49 225.54C909.49 225.54 922.45 212.36 926.7 213.66C930.95 214.96 927.69 231.42 927.69 231.42C927.69 231.42 935.9 264.46 943.85 296.67C944.21 298.13 944.57 299.59 944.93 301.04C945.21 302.17 945.48 303.3 945.76 304.42V304.42Z" fill="#B4D6DE"/>
<path d="M905.85 257.92C906.32 256.45 904.87 254.07 902.63 252.63C900.4 251.19 898.17 251.2 897.71 252.68C897.25 254.16 898.69 256.53 900.92 257.98C903.14 259.43 905.35 259.43 905.85 257.92Z" fill="#353535"/>
<path d="M863.61 257.77C865.65 256.66 867.07 254.42 866.77 252.76C866.48 251.1 864.59 250.7 862.54 251.73C860.49 252.76 859.08 255.09 859.38 256.74C859.67 258.39 861.56 258.88 863.61 257.77Z" fill="#353535"/>
<path d="M894.51 279.77C894.23 279.99 893.93 280.21 893.62 280.44C893.38 280.62 893.14 280.8 892.91 280.99C889.48 283.76 887.31 287.07 881.99 287.72C875.95 288.45 869.47 283.14 868.68 279.33C868.67 279.32 868.67 279.31 868.67 279.3C868.55 278.8 868.48 278.29 868.42 277.91V277.89C868.61 277.93 868.8 277.96 868.99 277.98C869.36 278.02 869.74 278.04 870.12 278.02C872.5 277.95 875.16 276.81 877.99 274.53L878.32 274.38L878.48 274.31L879.72 273.75C879.72 273.75 879.76 273.8 879.78 273.82C881.05 275.35 884.12 278.12 890.47 279.28C891.8 279.52 893.15 279.68 894.51 279.75V279.77Z" fill="#DBB9C6"/>
<path d="M900.9 280.38C900.9 280.78 900.77 281.06 900.41 281.06C899.24 281.17 898.07 281.21 896.9 281.19C895.57 281.2 894.23 281.14 892.91 281C891.69 280.88 890.47 280.69 889.27 280.45C882.47 278.99 879.57 275.77 878.48 274.33C878.47 274.31 878.45 274.29 878.44 274.27C878.4 274.31 878.36 274.36 878.32 274.4C874.88 278.16 871.58 279.83 868.68 279.35C868.65 279.35 868.63 279.34 868.6 279.34C864.86 278.8 862.93 274.95 862.93 274.81C862.87 274.65 862.86 274.48 862.91 274.31C862.95 274.14 863.04 274 863.16 273.88C863.31 273.83 863.48 273.83 863.63 273.88C863.78 273.92 863.91 274.02 864.01 274.15C864.01 274.15 865.55 277.23 868.39 277.93C868.39 277.93 868.41 277.94 868.42 277.94C868.56 277.98 868.71 278.01 868.86 278.03C869.27 278.09 869.69 278.1 870.12 278.05C872.01 277.88 874.1 276.74 876.3 274.58C876.93 273.98 877.52 273.35 878.08 272.69C878.19 272.56 878.44 272.56 878.56 272.42C878.68 272.29 878.92 272.56 879.05 272.82C879.25 273.16 879.47 273.48 879.72 273.78C879.74 273.81 879.76 273.83 879.78 273.85C881.05 275.38 884.12 278.15 890.47 279.31C891.8 279.55 893.15 279.71 894.51 279.78C895.29 279.84 896.08 279.86 896.87 279.85C898 279.87 899.13 279.83 900.26 279.72C900.35 279.71 900.44 279.73 900.52 279.76C900.6 279.79 900.68 279.84 900.74 279.9C900.8 279.97 900.84 280.04 900.87 280.13C900.9 280.21 900.91 280.31 900.9 280.39V280.38Z" fill="#131313"/>
<path d="M915.1 226.95C915.1 226.95 923.89 229.63 925.24 230.31C926.59 230.97 926.79 216.94 926.33 216.76C925.88 216.59 915.29 223.2 915.1 226.96V226.95Z" fill="#DBB9C6"/>
<path d="M951.21 310.16L951.23 310.18C950.8 311.83 949.97 313.34 948.82 314.57C947.67 315.78 946.25 316.69 944.68 317.17L943.92 317.41L943.37 317.99C942.5 318.94 941.44 319.7 940.27 320.21C939.12 320.72 937.87 320.98 936.6 320.98C935.24 320.98 933.89 320.67 932.66 320.07C931.92 319.72 931.23 319.26 930.6 318.72L929.98 318.16L929.2 318.04H929.14C927.25 317.69 925.51 316.75 924.14 315.35C923.45 314.64 922.87 313.84 922.41 312.96C921.97 312.1 921.64 311.17 921.45 310.19C921.41 310.01 921.38 309.83 921.35 309.64C921.16 308.41 921.2 307.16 921.45 305.93V305.71C921.53 305.08 921.67 304.48 921.87 303.88C923.2 299.96 927.17 296.84 932.14 295.65C933.56 295.32 935.01 295.14 936.47 295.14C937.1 295.14 937.74 295.14 938.36 295.24C940.26 295.39 942.13 295.87 943.85 296.67C945.5 297.42 947.03 298.46 948.37 299.76C948.49 299.86 948.61 299.98 948.73 300.1L948.82 300.19C949 300.4 949.16 300.59 949.32 300.78C949.43 300.9 949.53 301.04 949.62 301.18L949.7 301.28C949.78 301.4 949.88 301.51 949.97 301.7L950.09 301.9C950.47 302.51 950.78 303.17 951.01 303.86C951.06 303.97 951.1 304.09 951.13 304.21V304.36C951.19 304.54 951.23 304.72 951.28 304.93C951.46 305.74 951.56 306.55 951.56 307.38C951.56 308.32 951.45 309.25 951.21 310.16V310.16Z" fill="#A3C8CE"/>
<path d="M842.16 343.9H842.17C841.74 345.54 840.91 347.05 839.76 348.28C838.61 349.5 837.19 350.4 835.62 350.89L834.85 351.13L834.3 351.71C833.64 352.42 832.89 353.02 832.07 353.51C830.69 354.29 829.14 354.71 827.56 354.71C827.04 354.71 826.51 354.67 825.99 354.58C824.35 354.28 822.82 353.55 821.54 352.45L820.91 351.89L820.12 351.76C817.87 351.34 815.84 350.1 814.38 348.27C813.45 347.09 812.79 345.72 812.44 344.27C812.23 343.45 812.13 342.6 812.13 341.74C812.13 341.05 812.19 340.35 812.32 339.68V339.46C812.4 338.83 812.54 338.23 812.74 337.63C814.3 333.01 819.55 329.49 825.76 328.98C826.28 328.93 826.8 328.91 827.33 328.91C829.26 328.91 831.18 329.2 833.01 329.79C835.07 330.43 836.99 331.5 838.65 332.93C839 333.22 839.33 333.53 839.63 333.86L839.73 333.96L840.23 334.54L840.52 334.94L840.61 335.04C840.71 335.17 840.8 335.32 840.89 335.46L841.01 335.66C841.07 335.76 841.13 335.86 841.19 335.97C841.49 336.49 841.74 337.04 841.93 337.62C841.98 337.73 842.02 337.85 842.06 337.98V338.12C842.06 338.3 842.15 338.48 842.2 338.69C842.25 338.91 842.3 339.14 842.33 339.37C842.43 339.96 842.48 340.55 842.49 341.14C842.5 342.07 842.39 342.99 842.16 343.9V343.9Z" fill="#A3C8CE"/>
<path d="M854.86 229.25C855 229.54 860.44 226.04 861.45 226.17C862.46 226.3 856.34 216.06 855.72 216.06C855.1 216.06 853.12 225.85 854.85 229.26L854.86 229.25Z" fill="#DBB9C6"/>
<path d="M459.99 113.53H483.21C482.41 104.16 469.99 103.35 464.8 103.35H462.8L459.99 113.53Z" fill="#FA8E25"/>
<path d="M435.55 190.56V210.52L438.76 220.62L440.36 218.18L444.77 218.59L445.57 215.74L449.58 213.29L439.12 209.22V189.3C438.72 189.71 438.32 189.71 437.52 190.11C436.91 190.41 436.23 190.57 435.55 190.56Z" fill="#FB9217"/>
<path d="M409.12 188.48V209.69L412.33 219.88L413.93 217.44L418.33 217.84L419.13 214.99L423.14 212.55L412.73 208.9V189.3H412.33C411.22 189.27 410.12 189 409.12 188.48V188.48Z" fill="#FA8E25"/>
<path d="M368.25 156.71C368.25 156.71 375.87 159.16 383.48 161.19C384.28 161.6 385.48 161.6 386.29 162.01C388.94 162.46 391.62 162.73 394.31 162.82C398.32 162.82 400.32 159.97 401.12 156.7C400.89 156.49 400.75 156.21 400.72 155.89C396.32 156.55 392.02 157.79 387.9 159.53C390.32 155.56 393.14 151.87 396.32 148.54C387.5 150.19 370.68 154.67 368.28 156.7H368.26L368.25 156.71Z" fill="#414144"/>
<path d="M459.99 113.53H461.17C462.37 109.89 463.17 106.2 464.78 103.35H462.78L459.99 113.53Z" fill="#E3EAE3"/>
<path d="M451.59 104.16C451.58 104.74 451.73 105.32 452.03 105.81C452.33 106.3 452.76 106.69 453.28 106.92C453.79 107.15 454.36 107.22 454.91 107.11C455.46 107 455.97 106.73 456.37 106.32C456.77 105.91 457.04 105.38 457.15 104.82C457.26 104.24 457.21 103.65 457 103.12C456.79 102.57 456.42 102.12 455.96 101.8C455.5 101.48 454.95 101.31 454.39 101.31C454.02 101.3 453.66 101.36 453.32 101.5C452.98 101.64 452.67 101.85 452.41 102.12C452.15 102.39 451.94 102.7 451.8 103.06C451.66 103.41 451.59 103.8 451.6 104.17L451.59 104.16Z" fill="#E3EAE3"/>
<path d="M442.36 98.4701C427.54 107.84 437.15 124.53 419.93 131.47C419.93 131.47 409.12 133.51 396.71 147.76C396.43 148.05 396.16 148.34 395.89 148.64C393.04 151.72 390.5 155.09 388.29 158.7C388.35 158.68 388.4 158.65 388.46 158.63C389.37 158.24 390.29 157.88 391.22 157.55C391.33 157.51 391.43 157.47 391.54 157.44C392.85 156.98 394.19 156.56 395.53 156.22C395.82 156.14 396.1 156.07 396.38 156C396.76 155.9 397.15 155.81 397.53 155.73C397.75 155.68 397.98 155.63 398.2 155.59C398.62 155.5 399.03 155.41 399.45 155.34C400 155.24 400.55 155.15 401.1 155.06C401.13 155.38 401.27 155.67 401.5 155.89C403.5 159.96 412.32 175.03 431.55 168.92C453.57 162.4 457.58 142.85 457.58 142.85C457.58 142.85 457.58 143.34 457.47 144.21C457.47 144.25 457.46 144.3 457.46 144.35C457.46 144.36 457.46 144.37 457.46 144.38C457.45 144.4 457.45 144.41 457.45 144.43C457.41 144.76 457.35 145.16 457.28 145.58C457.25 145.75 457.22 145.92 457.18 146.11C457.15 146.26 457.12 146.41 457.09 146.57C457.04 146.79 456.99 147.01 456.94 147.25C456.88 147.52 456.81 147.79 456.73 148.09C456.69 148.27 456.64 148.45 456.58 148.63C456.52 148.85 456.45 149.08 456.38 149.33C456.33 149.48 456.28 149.63 456.23 149.79C455.82 151.07 455.29 152.47 454.58 153.93C454.45 154.21 454.31 154.48 454.16 154.77C454.05 154.99 453.93 155.22 453.8 155.45C453.69 155.66 453.57 155.87 453.44 156.08C453.32 156.29 453.2 156.5 453.06 156.72C452.93 156.93 452.8 157.14 452.66 157.36C451.65 158.94 450.42 160.54 448.93 162.1C448.82 162.22 448.71 162.34 448.59 162.45C448.17 162.88 447.72 163.32 447.26 163.73C447.04 163.93 446.81 164.13 446.58 164.33C446.34 164.53 446.1 164.73 445.85 164.93C444.95 165.67 443.98 166.38 442.93 167.06L442.6 167.27C442.07 167.61 441.51 167.95 440.94 168.27C440.6 168.46 440.25 168.65 439.9 168.83C439.48 169.05 439.05 169.27 438.62 169.48L438.17 169.69C437.63 169.94 437.08 170.18 436.52 170.42C436.26 170.53 435.99 170.64 435.72 170.74C435.47 170.84 435.21 170.94 434.95 171.03C434.69 171.12 434.43 171.22 434.17 171.31C433.37 171.6 432.54 171.86 431.69 172.12C431.25 172.24 430.81 172.36 430.35 172.48C430.11 172.55 429.85 172.62 429.6 172.67C429.55 172.69 429.5 172.7 429.46 172.7C429.08 172.8 428.7 172.89 428.31 172.97C427.86 173.07 427.4 173.17 426.93 173.26C425.99 173.45 425.03 173.61 424.05 173.75C423.79 173.79 423.52 173.83 423.25 173.86C423.22 173.87 423.19 173.88 423.16 173.87C422.84 173.93 422.52 173.96 422.2 174C421.71 174.06 421.21 174.12 420.71 174.16C420.55 174.17 420.4 174.19 420.24 174.21C419.96 174.24 419.67 174.26 419.38 174.28C418.97 174.32 418.56 174.35 418.14 174.37C417.54 174.41 416.93 174.45 416.32 174.47C415.85 174.49 415.36 174.51 414.87 174.52C405.79 174.75 394.79 173.62 381.47 170.52C381.33 170.81 381.24 171.05 381.17 171.28C381.06 171.59 380.99 171.87 380.86 172.22C380.81 172.34 380.75 172.46 380.69 172.6C391.56 174.02 399.35 181.39 401.12 183.2L401.24 183.32C401.41 183.49 401.5 183.59 401.5 183.59C402.82 183.97 404.16 184.23 405.51 184.41C405.51 185.25 407.11 187.66 409.11 188.88C409.11 188.89 409.11 188.89 409.11 188.89C409.99 189.34 410.94 189.63 411.92 189.71H412.32C412.45 189.71 412.57 189.7 412.7 189.69C415.35 189.45 417.58 186.8 418.73 185.63C421.93 185.69 425.13 185.55 428.31 185.23C428.71 186.86 431.16 190.93 435.52 190.93H435.54C435.93 190.92 436.33 190.52 437.12 190.52C437.93 190.12 438.33 190.12 438.73 189.71C438.86 189.64 438.99 189.56 439.11 189.47C442.37 187.31 442.74 182.74 442.74 181.56C449.33 179.22 454.97 174.63 458.76 168.53C458.76 168.53 465.18 152.64 459.17 128.61C459.17 128.61 459.97 120.87 461.17 113.53H460.39L462.79 103.35H464.8C464.61 103.02 456.61 89.2101 442.36 98.4601H442.37L442.36 98.4701ZM454.83 101.33C455.04 101.35 455.25 101.41 455.45 101.48C455.8 101.62 456.11 101.82 456.37 102.09C456.63 102.35 456.84 102.67 456.98 103.03C457.03 103.14 457.06 103.26 457.09 103.38C457.11 103.44 457.13 103.51 457.14 103.58C457.17 103.77 457.19 103.95 457.19 104.15C457.19 104.7 457.03 105.26 456.73 105.72C456.44 106.18 456.02 106.56 455.52 106.77C455.03 106.99 454.48 107.05 453.96 106.95C453.43 106.84 452.94 106.58 452.56 106.18C452.17 105.8 451.91 105.29 451.79 104.75C451.68 104.2 451.72 103.63 451.92 103.11C452.11 102.59 452.45 102.13 452.89 101.81C453.33 101.49 453.85 101.31 454.38 101.3C454.53 101.3 454.68 101.31 454.83 101.33V101.33Z" fill="#E6E7E9"/>
<path d="M381.48 170.53C456.79 188.05 457.59 142.83 457.59 142.83C457.59 142.83 453.58 162.38 431.56 168.9C412.34 175.01 403.52 159.94 401.51 155.87C401.28 155.66 401.14 155.37 401.11 155.05C396.71 155.72 392.41 156.94 388.29 158.7C387.89 159.51 387.09 160.33 386.69 161.14C384.81 164.18 383.07 167.32 381.49 170.54V170.52L381.48 170.53Z" fill="#E6E7E9"/>
<path d="M375.47 184.82L401.5 183.19C401.5 183.19 393.09 173.82 380.68 172.2C379.08 176.27 377.07 180.34 375.47 184.83V184.82Z" fill="#E6E7E9"/>
<path d="M372.3 168.92C375.51 169.73 378.31 170.55 381.52 171.36C456.83 188.88 457.63 143.67 457.63 143.67C457.63 143.67 453.58 163.23 431.55 169.74C412.32 175.85 403.51 160.78 401.5 156.71C401.27 156.5 401.13 156.22 401.1 155.9C396.7 156.56 392.4 157.79 388.28 159.54C386.71 159.96 385.23 160.66 383.87 161.58C379.72 163.5 375.83 165.96 372.3 168.93V168.92Z" fill="#565955"/>
<path d="M451.59 104.16C451.58 104.74 451.73 105.32 452.03 105.81C452.33 106.3 452.76 106.69 453.28 106.92C453.79 107.15 454.36 107.22 454.91 107.11C455.46 107 455.97 106.73 456.37 106.32C456.77 105.91 457.04 105.38 457.15 104.82C457.26 104.24 457.21 103.65 457 103.12C456.79 102.57 456.42 102.12 455.96 101.8C455.5 101.48 454.95 101.31 454.39 101.31C454.02 101.3 453.66 101.36 453.32 101.5C452.98 101.64 452.67 101.85 452.41 102.12C452.15 102.39 451.94 102.7 451.8 103.06C451.66 103.41 451.59 103.8 451.6 104.17L451.59 104.16Z" fill="#403D3A"/>
<path d="M375.07 187.26C375.07 187.26 389.89 190.11 401.5 183.19C401.5 183.19 393.09 173.82 380.68 172.2C380.68 172.2 375.07 180.76 375.07 187.27V187.26Z" fill="#565955"/>
</svg>
