<svg width="599" height="574" viewBox="0 0 599 574" fill="none" xmlns="http://www.w3.org/2000/svg">
<path d="M479.26 463.485C470.278 468.952 461.112 474.163 451.179 477.531C439.21 481.592 426.46 482.857 413.826 482.993C369.857 483.455 333.507 461.046 291.839 450.97C235.286 437.291 172.904 465.227 118.822 443.752C65.8673 422.723 39.8211 355.264 57.5177 301.028C68.3381 267.866 93.8632 242.324 92.2494 206.793C90.1043 159.685 99.9926 107.864 135.115 74.3954C196.053 16.3241 266.995 57.0062 338.293 42.915C359.368 38.7484 378.979 29.2054 399.622 23.2467C424.706 16.0078 451.324 14.1555 477.17 17.8552C510.413 22.6091 546.678 42.0817 551.204 75.4095C553.063 89.094 549.154 102.819 547.886 116.568C545.265 144.951 553.89 173.003 557.945 201.221C563.813 242.068 560.075 283.619 556.326 324.718C554.025 352.348 558.852 403.07 545.064 427.151C535.632 443.621 500.645 450.323 484.171 460.473C482.537 461.482 480.898 462.486 479.26 463.485Z" fill="#FAA58B"/>
<path d="M557.616 203.14C551.669 199.395 543.91 199.22 537.226 201.455C530.542 203.689 524.807 208.083 519.794 212.981C496.153 236.075 491.307 262.969 489 293C494.679 273.418 522.389 264.166 539.251 256.001C549.589 250.993 559.59 243.96 564.451 233.646C569.313 223.336 567.319 209.255 557.611 203.14H557.616Z" fill="#FDC86E"/>
<path d="M576.356 98.0204C571.171 92.1682 559.492 94.747 551.447 106.396C544.078 117.071 540.518 129.865 534.583 141.4C528.769 152.714 520.309 160.896 509 166.043C539.063 172.855 567.646 141.945 576.986 116.197C580.156 107.461 579.311 101.364 576.351 98.0204H576.356Z" fill="#FDC86E"/>
<path d="M591.618 204.173C583.869 205.889 586.611 217.548 594.375 215.827C602.14 214.107 599.383 202.452 591.618 204.173Z" fill="#FDC86E"/>
<path d="M577.93 46.2737C566.303 48.9879 570.415 67.4511 582.062 64.7265C593.708 62.0018 589.576 43.549 577.93 46.2737Z" fill="#FDC86E"/>
<path d="M567.311 302.101C563.433 303.1 564.806 309.903 568.689 308.899C572.567 307.9 571.194 301.097 567.311 302.101Z" fill="#FDC86E"/>
<path d="M475.738 340.029C467.525 341.909 470.431 354.682 478.66 352.797C486.874 350.918 483.968 338.144 475.738 340.029Z" fill="#FDC86E"/>
<path d="M80.3882 458.038C57.906 445.059 43.4637 421.424 42 395.662L227.907 288.321C231.809 316.211 248.441 341.278 273.129 355.531L466.255 467.031L281.117 573.924L80.3882 458.038Z" fill="#E2E1DC"/>
<path d="M188.798 358.032L227.812 335.507C229.229 334.691 230.761 335.049 231.235 336.308C231.709 337.566 230.945 339.251 229.529 340.067L190.514 362.591C189.098 363.407 187.566 363.049 187.092 361.791C186.618 360.533 187.381 358.848 188.798 358.032Z" fill="#929292"/>
<path d="M121.451 452.467L255.828 374.885C257.245 374.069 259.472 374.027 260.799 374.796C262.125 375.565 262.057 376.849 260.641 377.665L126.264 455.247C124.847 456.063 122.625 456.106 121.293 455.337C119.966 454.568 120.035 453.283 121.451 452.467Z" fill="#929292"/>
<path d="M150.32 469.126L284.697 391.544C286.113 390.728 288.34 390.686 289.667 391.455C290.994 392.224 290.926 393.508 289.509 394.324L155.132 471.906C153.716 472.722 151.494 472.765 150.162 471.996C148.835 471.227 148.904 469.942 150.32 469.126Z" fill="#929292"/>
<path d="M169.554 480.241L303.931 402.659C305.347 401.843 307.569 401.801 308.901 402.57C310.228 403.338 310.16 404.623 308.743 405.439L174.366 483.021C172.95 483.837 170.728 483.879 169.396 483.111C168.069 482.342 168.137 481.057 169.554 480.241Z" fill="#929292"/>
<path d="M198.422 496.9L332.799 419.318C334.216 418.502 336.438 418.46 337.77 419.229C339.097 419.997 339.028 421.282 337.612 422.098L203.235 499.68C201.818 500.496 199.597 500.538 198.264 499.77C196.938 499.001 197.006 497.716 198.422 496.9Z" fill="#929292"/>
<path d="M227.281 513.564L361.658 435.982C363.074 435.166 365.301 435.124 366.628 435.893C367.955 436.661 367.887 437.946 366.47 438.762L232.093 516.344C230.677 517.16 228.455 517.202 227.123 516.434C225.796 515.665 225.864 514.38 227.281 513.564Z" fill="#929292"/>
<path d="M251.332 527.454L322.78 486.206C324.196 485.39 326.424 485.348 327.75 486.117C329.077 486.886 329.009 488.17 327.592 488.986L256.144 530.234C254.728 531.05 252.506 531.092 251.174 530.323C249.847 529.554 249.916 528.27 251.332 527.454Z" fill="#929292"/>
<g opacity="0.8">
<g opacity="0.8">
<path opacity="0.8" d="M129.302 390.397C129.302 390.397 125.995 380.582 123.526 373.706C123.526 373.706 141.28 381.219 143.165 393.445L129.307 390.397H129.302Z" fill="#DBB9C6"/>
<path opacity="0.8" d="M139.463 391.592C139.463 391.592 132.613 383.01 126.816 377.25C126.816 377.25 130.207 385.742 132.087 390.581L139.463 391.587V391.592Z" fill="#DBB9C6"/>
<path opacity="0.8" d="M143.149 393.387C141.39 380.398 123.521 373.711 123.521 373.711C137.473 383.61 143.16 393.45 143.16 393.45V393.387H143.149Z" fill="#DE8237"/>
<path opacity="0.8" d="M113.027 401.943C113.027 401.943 106.045 395.151 101.207 390.275C101.207 390.275 101.259 407.64 110.731 414.311L113.027 401.948V401.938V401.943Z" fill="#DBB9C6"/>
<path opacity="0.8" d="M110.742 414.311C110.742 414.311 104.56 405.608 101.217 390.275C101.217 390.275 100.527 407.371 110.678 414.269L110.742 414.311Z" fill="#DE8237"/>
<path opacity="0.8" d="M148.956 395.488C149.788 396.641 150.467 397.773 151.004 398.879C157.181 411.594 144.818 420.85 141.011 423.736C141.011 423.736 126.095 434.292 115.817 424.525C114.88 423.641 113.98 422.588 113.127 421.329C103.007 406.355 116.386 395.799 120.009 393.187C123.631 390.576 138.521 381.025 148.956 395.483V395.488Z" fill="#DE8237"/>
<path opacity="0.8" d="M150.999 398.879C157.175 411.594 144.812 420.85 141.006 423.736C141.006 423.736 126.09 434.292 115.812 424.525C118.134 423.857 121.63 422.677 123.599 421.256C126.737 418.992 126.384 413.795 131.313 410.241C136.241 406.687 140.937 409.43 144.523 406.845C146.776 405.218 149.383 401.443 150.999 398.879Z" fill="#FFEED7"/>
<path opacity="0.8" d="M138.184 397.341C137.352 396.351 136.188 395.962 135.594 396.472C134.999 396.983 135.183 398.194 136.015 399.184C136.847 400.174 138.005 400.563 138.605 400.053C139.211 399.547 139.011 398.336 138.184 397.341Z" fill="#35353D"/>
<path opacity="0.8" d="M120.709 410.23C120.035 409.125 118.95 408.556 118.276 408.956C117.603 409.356 117.597 410.578 118.276 411.694C118.956 412.81 120.035 413.368 120.709 412.968C121.383 412.568 121.383 411.331 120.709 410.23Z" fill="#35353D"/>
<path opacity="0.8" d="M132.934 412.621C133.951 411.699 133.956 409.957 132.955 408.73C131.945 407.503 130.307 407.261 129.286 408.182C128.269 409.104 128.259 410.841 129.27 412.068C130.281 413.295 131.918 413.537 132.934 412.621Z" fill="#35353D"/>
</g>
</g>
<path opacity="0.6" d="M462.312 492.947C488.232 492.947 509.25 488.018 509.25 481.932C509.25 475.845 488.237 470.917 462.312 470.917C436.386 470.917 415.373 475.851 415.373 481.932C415.373 488.013 436.386 492.947 462.312 492.947Z" fill="#6A6C6F"/>
<path d="M452.065 460.328C452.065 460.328 417.121 452.262 417.121 399.847C417.121 347.433 442.657 331.974 448.032 323.913C453.408 315.847 463.491 293.676 492.386 293.676C521.281 293.676 550.176 352.14 542.115 394.477C534.054 436.814 505.828 465.709 452.065 460.333V460.328Z" fill="#FFC2C2" stroke="white" stroke-width="2" stroke-miterlimit="10"/>
<g opacity="0.6">
<path opacity="0.6" d="M525.325 389.638C516.374 436.609 484.678 459.802 436.049 454.958C435.417 454.805 427.093 452.583 418.874 444.501C411.024 436.772 401.662 421.935 401.662 395.146C401.662 352.292 418.716 334.423 427.883 324.819C429.894 322.723 431.479 321.054 432.458 319.575C433.048 318.696 433.679 317.669 434.411 316.479C440.166 307.096 450.87 289.637 476.248 289.637C484.999 289.637 494.144 295.102 502.7 305.427C520.618 327.078 530.337 363.281 525.319 389.633L525.325 389.638Z" fill="white"/>
<path opacity="0.6" d="M523.603 344.132C519.291 328.9 512.23 314.847 503.738 304.58C494.918 293.928 485.42 288.3 476.254 288.3C450.117 288.3 439.161 306.175 433.264 315.779C432.542 316.953 431.921 317.974 431.342 318.843C430.42 320.223 428.867 321.85 426.909 323.898C417.616 333.633 400.32 351.75 400.32 395.151C400.32 422.461 409.928 437.62 417.995 445.523C426.766 454.126 435.417 456.2 435.78 456.279L435.87 456.3C440.203 456.732 444.399 456.948 448.464 456.948C468.577 456.948 485.383 451.646 498.515 441.121C512.904 429.59 522.371 412.357 526.646 389.902C529.253 376.212 528.205 360.385 523.608 344.137L523.603 344.132ZM436.049 454.958C435.417 454.805 427.093 452.583 418.874 444.501C411.024 436.772 401.662 421.935 401.662 395.146C401.662 352.293 418.716 334.423 427.883 324.819C429.894 322.724 431.479 321.055 432.458 319.575C433.048 318.696 433.68 317.669 434.411 316.479C440.166 307.097 450.87 289.637 476.248 289.637C484.999 289.637 494.145 295.103 502.7 305.428C520.618 327.078 530.337 363.281 525.319 389.633C516.369 436.603 484.673 459.796 436.044 454.953L436.049 454.958Z" fill="white"/>
</g>
<path d="M523.603 344.132C519.291 328.9 512.23 314.847 503.738 304.58C494.918 293.928 485.42 288.3 476.254 288.3C450.117 288.3 439.161 306.175 433.264 315.779C432.542 316.953 431.921 317.974 431.342 318.843C430.42 320.223 428.867 321.85 426.909 323.898C417.616 333.633 400.32 351.75 400.32 395.151C400.32 422.461 409.928 437.62 417.995 445.523C426.766 454.126 435.417 456.2 435.791 456.279L435.87 456.3C440.203 456.732 444.399 456.948 448.464 456.948C468.577 456.948 485.383 451.646 498.515 441.121C512.904 429.59 522.371 412.357 526.646 389.902C529.253 376.212 528.205 360.385 523.608 344.137L523.603 344.132ZM525.325 389.638C516.379 436.609 484.678 459.807 436.049 454.958C435.417 454.805 427.093 452.583 418.874 444.501C411.024 436.772 401.662 421.935 401.662 395.146C401.662 352.293 418.716 334.423 427.883 324.819C429.894 322.724 431.479 321.055 432.458 319.575C433.048 318.696 433.68 317.669 434.411 316.479C440.166 307.097 450.87 289.637 476.248 289.637C484.999 289.637 494.145 295.103 502.7 305.428C520.618 327.078 530.337 363.281 525.319 389.633L525.325 389.638Z" fill="white"/>
<path d="M470.757 410.704C472.923 410.704 474.68 408.948 474.68 406.781C474.68 404.615 472.923 402.859 470.757 402.859C468.591 402.859 466.834 404.615 466.834 406.781C466.834 408.948 468.591 410.704 470.757 410.704Z" fill="#30302D"/>
<path d="M432.279 410.525C434.445 410.525 436.202 408.769 436.202 406.602C436.202 404.436 434.445 402.68 432.279 402.68C430.113 402.68 428.356 404.436 428.356 406.602C428.356 408.769 430.113 410.525 432.279 410.525Z" fill="#30302D"/>
<path d="M459.194 412.773C459.194 412.773 459.168 412.773 459.158 412.773L442.899 412.215C442.277 412.194 441.793 411.673 441.814 411.057C441.835 410.436 442.33 409.946 442.972 409.972L459.231 410.53C459.853 410.551 460.337 411.073 460.316 411.689C460.295 412.294 459.8 412.773 459.194 412.773Z" fill="black"/>
<path opacity="0.6" d="M325.475 378.992C351.396 378.992 372.414 374.064 372.414 367.978C372.414 361.891 351.401 356.963 325.475 356.963C299.55 356.963 278.537 361.896 278.537 367.978C278.537 374.059 299.55 378.992 325.475 378.992Z" fill="#6A6C6F"/>
<path d="M323.68 372.137C323.68 372.137 285.46 376.544 289.372 366.751C293.284 356.957 291.736 343.905 291.736 343.905L304.041 342.926L322.622 358.921" fill="#F08A37"/>
<path d="M280.674 266.871L304.978 266.439C293.748 243.02 255.423 236.486 255.423 236.486C262.099 245.773 270.67 258.067 274.635 263.78C276.009 265.755 278.273 266.913 280.674 266.871Z" fill="#DBB9C6"/>
<path d="M304.905 266.313C293.427 241.319 255.417 236.517 255.417 236.517C288.04 249.569 304.973 266.471 304.973 266.471L304.905 266.313Z" fill="#DE8237"/>
<path d="M350.501 353.525C349.611 352.53 336.948 250.133 336.948 250.133C336.948 250.133 340.318 211.36 407.559 222.596C407.559 222.596 388.41 240.134 393.543 254.845C398.682 269.551 415.904 281.45 407.559 310.772C399.214 340.093 375.873 358.6 353.107 356.099C330.335 353.598 350.506 353.53 350.506 353.53L350.501 353.525Z" fill="#AA6231"/>
<path d="M408.091 283.903C402.346 288.9 392.385 292.959 374.852 292.459C357.319 291.959 346.747 287.679 340.318 282.829C338.012 264.496 336.174 249.801 336.174 249.801C336.174 249.801 340.086 211.287 408.091 222.559C408.091 222.559 389.747 239.75 393.39 254.508C396.676 263.775 404.721 271.909 408.091 283.903Z" fill="#F8E3CE"/>
<path d="M276.51 307.681H273.588C273.588 307.681 274.751 307.37 276.51 307.681Z" fill="#DE8237"/>
<path d="M360.536 365.692C347.041 376.839 325.181 372.532 324.338 372.363C324.322 372.363 324.312 372.358 324.312 372.358C324.259 372.495 324.201 372.627 324.149 372.758C322.606 376.539 321.142 378.992 319.81 380.54C318.51 382.051 317.33 382.704 316.319 382.899C314.513 383.246 313.234 382.125 312.728 381.762C312.081 381.298 309.322 373.032 306.31 365.187C306.273 365.092 306.237 364.997 306.2 364.908C304.141 359.569 301.977 354.478 300.292 352.235C297.075 347.922 295.353 346.322 289.909 325.551C286.245 311.572 280.121 308.313 276.51 307.681H348.584C348.584 307.681 348.953 317.084 350.395 321.007C351.838 324.93 374.294 354.325 360.531 365.692H360.536Z" fill="#DE8237"/>
<path d="M332.394 344.026C332.841 343.089 333.21 342.468 333.431 342.389C333.673 342.299 333.226 342.963 332.394 344.026Z" fill="#DE8237"/>
<path d="M326.592 360.248C326.592 360.248 328.024 342.784 341.008 336.903C334.489 347.896 330.719 360.406 330.035 373.295L321.532 372.721L326.597 360.248H326.592Z" fill="#F08A37"/>
<path d="M334.179 308.181C331.857 314.22 329.293 319.559 326.644 324.256C314.45 345.906 300.524 353.941 300.524 353.941C298.465 351.871 296.575 349.839 294.832 347.849C294.801 347.817 294.774 347.78 294.743 347.749C292.31 344.963 290.178 342.262 288.298 339.667C281.769 330.632 278.394 322.892 276.652 317.348C277.41 316.995 278.189 316.726 278.947 316.526C279.031 316.49 282.264 315.1 283.791 315.721C281.285 313.478 279.074 310.945 277.215 308.181H334.168H334.179Z" fill="#FFEED7"/>
<path d="M355.892 287.557V289.016H355.855C355.529 296.524 352.681 303.474 348.016 309.276C346.968 310.582 345.831 311.824 344.604 313.004C342.661 314.878 340.508 316.589 338.175 318.111C334.542 320.48 330.472 322.386 326.086 323.729C325.112 324.029 324.117 324.298 323.117 324.54H323.064C316.751 325.777 310.301 326.082 303.904 325.461H303.888C294.959 324.271 286.903 320.823 280.538 315.821C280.527 315.815 280.516 315.805 280.506 315.794C280.453 315.752 280.401 315.715 280.348 315.673C280.343 315.668 280.337 315.663 280.332 315.657C280.253 315.594 280.174 315.531 280.095 315.468C277.405 313.299 275.03 310.85 273.035 308.176C268.949 302.705 266.432 296.297 266.043 289.411C266.043 289.411 266.032 289.411 266.027 289.405C266.027 288.795 265.974 288.168 265.974 287.557C265.974 266.323 286.113 249.143 310.954 249.143C335.795 249.143 355.898 266.334 355.898 287.547L355.892 287.557Z" fill="#DE8237"/>
<path d="M323.064 324.55C319.078 325.498 315.003 325.977 310.912 325.972C308.569 325.972 306.226 325.819 303.899 325.509C310.301 326.119 316.751 325.793 323.064 324.55Z" fill="#FFEED7"/>
<path d="M315.098 294.176C314.856 290.964 313.081 288.479 311.133 288.637C309.185 288.795 307.8 291.517 308.037 294.729C308.28 297.941 310.049 300.415 312.002 300.268C313.961 300.12 315.33 297.388 315.098 294.176Z" fill="#35353D"/>
<path d="M279.721 292.918C279.979 289.706 278.61 286.963 276.662 286.789C274.714 286.615 272.929 289.09 272.671 292.328C272.413 295.566 273.782 298.283 275.73 298.456C277.678 298.63 279.474 296.129 279.721 292.918Z" fill="#35353D"/>
<path d="M312.207 253.329C310.512 245.141 307.442 230.425 304.894 219C304.894 219 341.239 242.472 342.498 271.346L319.347 261.916C315.688 260.426 313.008 257.209 312.207 253.334V253.329Z" fill="#DBB9C6"/>
<path d="M334.99 265.786C334.99 265.786 322.259 243.604 311.139 228.319C311.139 228.319 316.478 249.096 319.41 260.916L334.99 265.791V265.786Z" fill="#DBB9C6"/>
<path d="M342.471 271.199C341.645 240.603 304.868 219.005 304.868 219.005C332.52 246.679 342.471 271.351 342.471 271.351V271.199Z" fill="#DE8237"/>
<path d="M348.021 309.276C341.271 311.83 332.483 319.306 317.083 319.106C310.222 319.017 294.838 310.619 290.025 310.782C286.376 310.903 282.164 314.131 280.348 315.679C286.745 320.759 294.869 324.261 303.888 325.466H303.904C310.301 326.088 316.751 325.777 323.064 324.545H323.117C328.64 323.218 333.731 321.012 338.175 318.116L344.604 313.009L348.016 309.281L348.021 309.276Z" fill="#FFEED7"/>
<path d="M296.612 312.446C296.186 309.045 292.637 306.544 288.693 306.854C284.75 307.165 281.912 310.171 282.343 313.568C282.775 316.964 286.313 319.464 290.257 319.154C294.201 318.843 297.044 315.837 296.617 312.446H296.612Z" fill="#35353D"/>
<path d="M283.459 387.832C283.628 387.853 283.749 388.011 283.723 388.175L283.017 393.266C282.991 393.44 282.833 393.55 282.675 393.524C282.506 393.503 282.385 393.345 282.406 393.176L283.117 388.085C283.138 387.927 283.296 387.811 283.459 387.838V387.832Z" fill="#3D3839"/>
<path d="M282.438 390.581L283.733 390.765L288.324 382.067L288.035 377.771L284.044 376.175L281.538 376.339L280.427 380.419L282.433 390.581H282.438Z" fill="#586ADB"/>
<path d="M288.135 377.534C288.225 377.576 288.288 377.655 288.288 377.755L288.577 382.062C288.577 382.104 288.567 382.151 288.546 382.193L283.955 390.886C283.897 390.981 283.797 391.039 283.686 391.023L282.401 390.844C282.301 390.833 282.206 390.739 282.185 390.639L280.179 380.472C280.164 380.429 280.169 380.393 280.179 380.35L281.29 376.275C281.322 376.17 281.411 376.091 281.522 376.08L284.023 375.917C284.06 375.917 284.102 375.928 284.134 375.933L288.135 377.528V377.534ZM288.056 382.014L287.788 377.955L283.997 376.433L281.738 376.586L280.68 380.424L282.649 390.354L283.575 390.486L288.051 382.014H288.056Z" fill="#243DBA"/>
<path d="M288.319 382.072L295.638 333.322L293.369 332.127L290.289 331.948L287.788 331.401L280.385 380.688C281.712 381.451 287.15 382.22 288.319 382.078V382.072Z" fill="#586ADB"/>
<path d="M293.469 331.885C293.469 331.885 293.479 331.89 293.484 331.89L295.764 333.096C295.87 333.138 295.917 333.249 295.901 333.359L288.583 382.115C288.567 382.23 288.467 382.315 288.356 382.33C287.129 382.483 281.633 381.688 280.264 380.909C280.174 380.856 280.122 380.751 280.137 380.646L287.54 331.358C287.551 331.29 287.593 331.227 287.651 331.185C287.703 331.148 287.782 331.132 287.845 331.143L290.341 331.695L293.384 331.864C293.384 331.864 293.437 331.874 293.469 331.885ZM295.359 333.465L293.29 332.38L290.267 332.211L287.998 331.711L280.659 380.546C280.701 380.567 280.748 380.582 280.79 380.598C282.37 381.256 286.729 381.893 288.093 381.835L295.348 333.465H295.359Z" fill="#243DBA"/>
<path d="M295.343 334.517C294.506 334.691 293.632 334.57 292.789 334.475C292.116 334.407 291.436 334.302 290.757 334.159C289.973 333.986 289.188 333.775 288.456 333.433C288.235 333.327 288.009 333.212 287.814 333.054C287.53 332.822 286.956 332.401 287.693 332.116C288.167 331.937 287.977 332.059 288.409 332.027C289.099 332.006 289.773 332.059 290.457 332.122C290.92 332.164 291.394 332.227 291.863 332.311C293.042 332.511 294.079 332.854 295.211 333.27C295.475 333.359 295.764 333.47 295.912 333.738C296.17 334.191 295.827 334.417 295.343 334.523V334.517Z" fill="#56575A"/>
<path d="M296.291 329.247H296.301L295.633 333.617C295.538 334.144 293.7 334.259 291.542 333.843C289.383 333.438 287.703 332.68 287.803 332.143L288.472 327.789C288.472 327.789 288.472 327.752 288.472 327.741C288.604 327.057 290.462 326.836 292.621 327.241C294.785 327.641 296.433 328.531 296.301 329.215C296.301 329.226 296.291 329.242 296.285 329.252L296.291 329.247Z" fill="#586ADB"/>
<path d="M294.864 327.609C296.064 328.11 296.67 328.694 296.564 329.247C296.564 329.252 296.564 329.263 296.564 329.268C296.564 329.268 296.564 329.279 296.564 329.284L295.891 333.649C295.88 333.759 295.812 333.907 295.627 334.033C294.959 334.491 293.074 334.391 291.499 334.091C290.546 333.917 289.63 333.654 288.935 333.364C287.935 332.948 287.477 332.517 287.556 332.09L288.224 327.731V327.72C288.224 327.72 288.23 327.688 288.224 327.678C288.414 326.699 290.604 326.578 292.679 326.967C293.479 327.12 294.237 327.336 294.869 327.599L294.864 327.609ZM296.038 329.273C296.038 329.231 296.038 329.189 296.059 329.152C296.101 328.973 295.754 328.541 294.669 328.089C294.069 327.836 293.347 327.631 292.584 327.494C290.378 327.078 288.856 327.378 288.735 327.767C288.735 327.783 288.735 327.799 288.735 327.799C288.735 327.831 288.73 327.857 288.719 327.878L288.061 332.174C288.061 332.243 288.24 332.517 289.13 332.885C289.799 333.164 290.668 333.412 291.594 333.585C293.869 334.017 295.29 333.796 295.38 333.559L296.038 329.268V329.273Z" fill="#243DBA"/>
<path d="M296.17 328.805C296.185 328.51 294.68 327.631 292.647 327.252C290.625 326.873 288.862 327.109 288.825 327.425C288.772 327.82 290.331 328.452 292.363 328.831C294.39 329.216 296.149 329.205 296.17 328.805Z" fill="#102FA0"/>
<path d="M293.627 345.737C293.111 346.011 292.489 346.169 291.789 346.232C291.368 346.269 290.915 346.269 290.441 346.238C289.135 346.153 287.651 345.843 286.103 345.385C286.092 345.385 286.082 345.379 286.076 345.374C285.729 345.269 285.376 345.158 285.018 345.042C282.88 344.342 280.68 343.426 278.716 342.52C273.087 339.94 268.844 335.018 267.222 329.036C265.263 321.807 268.575 318.411 272.376 316.816C273.193 316.474 274.03 316.216 274.841 316.021C277.378 315.41 279.674 315.421 280.279 315.431C280.343 315.431 280.39 315.431 280.411 315.431H280.432C280.432 315.452 280.437 315.468 280.443 315.489C280.443 315.515 280.448 315.537 280.453 315.563C281.369 321.77 285.792 328.462 289.457 334.001C289.599 334.217 289.741 334.428 289.878 334.638C293.49 340.109 296.18 344.353 293.632 345.722L293.627 345.737Z" fill="#DB8128"/>
<path d="M274.835 316.032C274.472 326.33 284.497 334.644 286.65 336.344C286.871 336.518 287.008 336.624 287.045 336.655C288.293 337.687 289.836 334.686 289.846 334.644C289.72 334.444 289.588 334.238 289.451 334.017C286.129 328.599 281.111 317.069 280.48 315.605C280.458 315.563 280.448 315.531 280.437 315.505C280.422 315.468 280.416 315.452 280.416 315.452H280.411L274.841 316.032H274.835Z" fill="#C47E4E"/>
<path d="M294.711 345.464C296.438 342.383 289.862 334.638 289.862 334.638C281.28 337.676 284.828 344.984 284.828 344.984C287.271 345.874 293.721 347.243 294.711 345.469V345.464Z" fill="#8E5B35"/>
<path d="M327.961 355.378C326.96 362.87 325.649 368.462 324.201 372.621C324.186 372.669 324.17 372.711 324.154 372.753C322.611 376.533 321.148 378.987 319.816 380.535C318.515 382.046 317.336 382.699 316.325 382.893C314.519 383.241 313.239 382.12 312.734 381.756C312.086 381.293 309.333 373.027 306.316 365.182C306.279 365.087 306.242 364.992 306.205 364.902C317.436 365.929 327.961 355.373 327.961 355.373V355.378Z" fill="#8E5B35"/>
<path d="M91.6162 138.262C87.327 131.61 81.297 125.866 73.8924 123.077C66.4879 120.288 57.6385 120.784 51.2172 125.41C36.4633 136.04 45.4581 153.342 56.4446 162.387C63.7789 168.427 72.3624 172.732 80.3338 177.904C88.3052 183.076 95.9406 189.457 99.9338 198.081C100.215 198.688 100.37 199.194 100.445 199.641C102.397 178.41 103.044 155.991 91.6212 138.267L91.6162 138.262Z" fill="#FDC86E"/>
<path d="M64.4156 0.871629C53.8455 -3.93431 46.3607 12.4801 56.9458 17.2961C67.5309 22.1121 75.0007 5.6876 64.4156 0.871629Z" fill="#FDC86E"/>
<path d="M4.19619 147.864C0.67451 146.264 -1.82377 151.732 1.70794 153.338C5.22962 154.938 7.7279 149.47 4.19619 147.864Z" fill="#FDC86E"/>
<path d="M92.4386 86.295C91.9069 83.27 91.8166 80.0091 93.2262 77.2801C94.6409 74.551 97.9419 72.6246 100.847 73.623C104.077 74.7316 105.356 78.775 104.86 82.1512C104.363 85.5274 102.607 88.5776 101.639 91.8484C100.445 95.8968 100.696 100.261 101.654 104.295C96.8984 99.3934 93.6225 93.0273 92.4386 86.29V86.295Z" fill="#FDC86E"/>
<path d="M37.4114 70.4523C32.4801 68.2099 28.9835 75.8703 33.9248 78.1177C38.8562 80.3601 42.3528 72.6997 37.4114 70.4523Z" fill="#FDC86E"/>
<path d="M428.731 195.821C427.82 193.088 423.803 192.046 421.676 193.988L420.828 195.057C419.407 197.563 421.323 201.249 424.193 201.523C427.062 201.797 429.647 198.553 428.731 195.821Z" fill="#F9C0C0"/>
<path d="M424.535 201.807C424.414 201.807 424.287 201.802 424.166 201.791C422.729 201.655 421.423 200.707 420.665 199.254C419.912 197.806 419.886 196.189 420.597 194.931L421.471 193.83C422.566 192.825 424.145 192.493 425.725 192.899C427.304 193.309 428.526 194.373 428.984 195.742C429.442 197.111 429.105 198.69 428.089 199.97C427.157 201.139 425.851 201.807 424.54 201.807H424.535ZM424.403 193.257C423.424 193.257 422.518 193.578 421.85 194.189L421.028 195.226C420.428 196.289 420.46 197.721 421.128 199.011C421.802 200.301 422.95 201.144 424.208 201.27C425.472 201.391 426.762 200.786 427.668 199.643C428.573 198.506 428.873 197.111 428.473 195.91C428.073 194.71 426.994 193.778 425.583 193.409C425.183 193.304 424.782 193.257 424.398 193.257H424.403Z" fill="#FFFEFD"/>
<path d="M443.116 177.282C441.605 172.765 434.965 171.043 431.448 174.26L430.042 176.024C427.694 180.173 430.864 186.254 435.608 186.712C440.352 187.17 444.622 181.805 443.111 177.282H443.116Z" fill="#F9C0C0"/>
<path d="M436.176 186.996C435.976 186.996 435.782 186.986 435.582 186.97C433.265 186.749 431.154 185.212 429.932 182.869C428.711 180.526 428.668 177.914 429.811 175.887L431.238 174.086C432.986 172.486 435.534 171.943 438.093 172.607C440.652 173.27 442.621 174.987 443.358 177.193C444.095 179.399 443.553 181.952 441.905 184.022C440.399 185.912 438.293 186.996 436.171 186.996H436.176ZM435.961 172.859C434.302 172.859 432.759 173.407 431.627 174.45L430.253 176.182C429.221 178.019 429.269 180.436 430.406 182.626C431.543 184.811 433.502 186.238 435.639 186.449C437.782 186.654 439.973 185.627 441.505 183.7C443.042 181.773 443.548 179.404 442.868 177.366C442.189 175.329 440.357 173.744 437.972 173.123C437.298 172.949 436.624 172.859 435.966 172.859H435.961Z" fill="#FFFEFD"/>
<path d="M376.591 154.142C384.915 163.266 401.863 163.414 412.146 154.579C419.86 161.803 431.39 164.693 441.605 161.966C451.819 159.239 460.37 150.988 463.46 140.879C477.223 140.684 490.528 132.118 496.41 119.676C502.291 107.235 500.453 91.5129 491.866 80.7615C483.278 70.0048 468.357 64.7344 454.92 67.7145C455.399 54.4042 443.637 42.5629 430.458 40.6305C417.28 38.6982 403.822 45.2639 395.056 55.294C386.284 45.3323 369.514 44.453 358.989 52.5456C348.464 60.6328 344.794 76.0281 349.359 88.4907C350.096 90.502 351.034 92.5449 350.844 94.6773C350.618 97.2467 348.812 99.3527 347.322 101.464C340.103 111.678 339.324 126.068 345.4 137.004C351.476 147.94 364.102 154.879 376.591 154.147" fill="#F9C0C0"/>
<path d="M390.022 161.118C384.762 160.381 379.897 158.159 376.464 154.452C363.844 155.137 351.27 148.192 345.137 137.146C338.976 126.058 339.756 111.642 347.079 101.285C347.29 100.985 347.511 100.685 347.727 100.385C349.022 98.6103 350.354 96.7728 350.544 94.6509C350.702 92.8871 350.033 91.1391 349.391 89.449C349.28 89.1647 349.175 88.8803 349.07 88.596C344.294 75.57 348.385 60.3117 358.8 52.3086C369.509 44.0739 386.352 45.2849 395.05 54.8412C404.543 44.1371 417.996 38.5877 430.29 40.3094C430.358 40.3199 430.427 40.3304 430.495 40.341C444.216 42.3522 455.447 54.6674 455.231 67.3459C468.72 64.5132 483.494 69.8047 492.097 80.5825C500.785 91.4603 502.622 107.229 496.678 119.818C490.76 132.339 477.523 140.905 463.681 141.19C460.512 151.283 451.898 159.539 441.678 162.271C431.474 164.993 419.912 162.14 412.136 154.995C405.996 160.155 397.593 162.187 390.022 161.129V161.118ZM376.717 153.831L376.817 153.937C385.01 162.914 401.753 163.108 411.951 154.347L412.157 154.168L412.357 154.352C419.986 161.492 431.432 164.362 441.526 161.671C451.619 158.975 460.117 150.783 463.171 140.789L463.234 140.579H463.455C477.15 140.379 490.281 131.928 496.13 119.545C501.98 107.161 500.169 91.6498 491.629 80.9458C483.083 70.2417 468.357 65.0398 454.989 68.004L454.604 68.0883L454.62 67.6987C455.073 55.1781 443.984 42.9156 430.416 40.9254C430.348 40.9149 430.279 40.9043 430.211 40.8938C418.017 39.1879 404.654 44.7637 395.282 55.4835L395.055 55.7415L394.829 55.4835C386.405 45.9167 369.741 44.6531 359.173 52.772C348.97 60.617 344.963 75.5858 349.644 88.3696C349.744 88.6487 349.854 88.933 349.959 89.212C350.628 90.9653 351.318 92.7818 351.149 94.6878C350.944 96.9781 349.559 98.8841 348.217 100.727C348.001 101.027 347.78 101.322 347.569 101.622C340.377 111.794 339.613 125.952 345.663 136.841C351.713 147.729 364.128 154.558 376.569 153.831L376.712 153.821L376.717 153.831Z" fill="#FFFEFD"/>
<path d="M419.328 89.9862C419.001 86.6165 415.342 84.4367 412.151 85.0422C408.545 85.7267 406.302 89.5755 406.423 93.0505C406.56 97.0678 409.355 100.617 412.73 102.58C415.826 104.381 419.528 104.955 423.05 104.45C426.572 103.944 430.011 102.291 432.375 99.6056C433.654 98.1577 434.712 95.9516 433.333 94.2088C432.159 92.7293 429.953 92.0607 428.141 91.8817C420.023 91.0656 412.409 99.1897 413.641 107.214C414.242 111.126 416.916 114.569 420.76 115.717C424.603 116.865 429.052 115.68 432.464 113.6C435.581 111.7 438.619 108.356 438.74 104.513C438.798 102.638 437.966 100.88 436.524 99.6899C435.081 98.4999 433.186 97.7786 431.332 97.4574C424.182 96.2307 416.827 100.706 413.536 106.956C411.725 110.394 410.84 114.911 412.736 118.508C414.489 121.835 418.254 123.209 421.839 123.225C425.725 123.241 429.531 121.798 432.775 119.724C434.497 118.618 436.092 117.297 437.492 115.801C438.893 114.306 440.293 112.495 441.167 110.557C442.041 108.62 442.41 106.334 441.278 104.407C440.33 102.791 438.577 101.712 436.761 101.364C432.527 100.559 428.163 103.128 425.204 105.95C422.245 108.772 420.107 112.442 419.543 116.417C419.27 118.328 419.37 120.34 420.133 122.13C420.897 123.92 422.218 125.257 423.919 126.058C427.436 127.716 431.627 127.063 435.102 125.647C439.03 124.046 442.536 121.372 445.027 117.928C446.254 116.233 447.175 114.216 447.017 112.079C446.875 110.231 446.048 108.493 444.816 107.124C442.057 104.044 437.671 103.428 433.896 104.818C429.89 106.292 427.015 109.63 425.314 113.458C424.882 114.432 424.514 115.427 424.203 116.449C423.893 117.47 423.577 118.55 423.54 119.629C423.471 121.503 424.619 123.046 426.488 123.357C429.932 123.936 432.87 121.24 434.049 118.228C435.228 115.217 434.918 111.589 433.565 108.635C431.98 105.176 428.752 102.749 425.33 101.285C421.602 99.6899 417.506 99.0423 413.478 98.8738C409.45 98.7053 405.459 99.0738 401.768 100.532C398.078 101.991 394.445 104.686 393.26 108.577C392.691 110.452 392.891 112.511 394.055 114.111C395.118 115.58 396.766 116.591 398.53 116.975C402.632 117.865 406.697 115.275 409.045 112.084C410.287 110.394 411.046 108.293 410.524 106.198C410.061 104.328 408.734 102.754 407.155 101.701C405.291 100.459 403.027 99.99 400.831 99.7846C398.525 99.5688 396.161 99.5319 393.855 99.7162C389.611 100.058 385.294 101.559 382.93 105.324C381.924 106.929 381.419 108.83 381.692 110.72C381.929 112.353 382.777 113.843 383.956 114.98C386.447 117.386 390.206 118.35 393.56 117.555C397.53 116.612 400.715 113.764 403.116 110.583C405.617 107.272 407.676 103.233 407.818 99.0107C407.892 96.9467 407.413 94.867 406.296 93.119C405.18 91.3709 403.637 90.1442 401.916 89.1543C400.068 88.0907 398.051 87.3378 396.029 86.6797C393.66 85.9057 391.233 85.3002 388.774 84.8685C385.394 84.2788 381.634 84.0998 378.475 85.6635C377.022 86.3848 375.806 87.5432 375.153 89.0437C374.316 90.9708 374.532 93.1242 375.29 95.0407C376.048 96.9573 377.349 98.779 378.77 100.364C380.192 101.949 381.74 103.302 383.483 104.434C386.873 106.635 390.912 107.74 394.934 107.045C398.625 106.403 402.427 104.113 403.801 100.474C405.401 96.2307 401.468 92.8504 398.162 91.0076C394.334 88.87 389.911 87.8064 385.536 87.9433C381.555 88.0697 377.522 89.1806 374.279 91.5552C372.763 92.6662 371.431 94.0351 370.478 95.662C369.335 97.6101 368.877 99.8268 368.756 102.064C368.54 106.15 368.93 110.605 370.867 114.28C372.742 117.839 376.169 120.124 380.102 120.782C388.684 122.214 396.545 116.27 401.395 109.731C403.906 106.34 405.565 102.228 404.901 97.9576C404.596 95.9937 403.764 94.0983 402.405 92.6346C401.047 91.1709 399.225 90.1915 397.319 89.6124C393.576 88.4751 389.39 88.6857 385.673 89.823C381.956 90.9602 378.554 93.0874 376.169 96.1412C373.937 98.9949 372.778 102.538 372.863 106.161C372.947 109.783 374.179 113.195 376.601 115.775C379.518 118.887 383.877 120.145 388.026 120.345C391.959 120.535 395.903 119.74 399.504 118.176C403.106 116.612 406.454 114.174 409.018 111.131C410.261 109.652 411.361 108.051 412.062 106.24C412.715 104.55 413.062 102.591 412.493 100.827C411.925 99.0633 410.609 97.8734 408.908 97.4153C407.207 96.9573 405.296 97.2732 403.727 98.0735C400.036 99.9531 398.441 104.423 397.23 108.104C395.919 112.089 395.008 116.833 397.33 120.635C399.441 124.094 403.669 125.789 407.613 125.463C409.798 125.278 411.904 124.568 413.815 123.504C415.6 122.509 417.211 121.245 418.422 119.592C419.486 118.139 420.307 116.301 420.154 114.464C419.986 112.442 418.617 110.91 416.869 109.999C413.225 108.093 408.66 109.067 406.186 112.353C405.612 113.116 405.164 113.979 404.864 114.89C404.722 115.327 404.617 115.775 404.548 116.233C404.49 116.617 404.306 117.302 404.58 117.633C404.854 117.965 405.364 118.223 405.733 118.423C406.138 118.644 406.57 118.823 407.007 118.966C407.902 119.25 408.855 119.371 409.787 119.345C413.999 119.239 417.332 116.465 419.459 113.016C420.586 111.194 421.465 109.183 422.134 107.151C422.803 105.118 423.155 102.933 422.381 100.922C421.281 98.0787 418.401 96.4413 415.489 96.0464C413.92 95.8305 412.293 95.9411 410.788 96.436C409.15 96.973 407.707 97.984 406.507 99.2107C403.906 101.88 402.511 105.518 401.816 109.125C401.258 112.026 400.447 116.791 403.632 118.529C403.832 118.639 404.106 118.581 404.222 118.376C404.638 117.628 405.059 116.886 405.475 116.138C405.601 115.917 405.507 115.691 405.322 115.548C400.573 111.931 394.129 109.694 388.316 112.021C385.825 113.016 383.593 114.743 382.25 117.091C381.013 119.26 380.713 121.809 381.366 124.215C381.982 126.495 383.44 128.632 385.568 129.743C388.232 131.139 391.343 130.659 393.992 129.475C398.73 127.358 404.843 122.198 402.253 116.391C401.194 114.022 398.857 112.237 396.229 112.137C393.602 112.037 391.159 113.469 389.838 115.617C389.506 116.154 389.258 116.738 389.095 117.344C389.053 117.497 389.095 117.66 389.206 117.77C393.592 122.125 400.468 122.541 406.075 120.624C412.599 118.397 417.522 113.127 421.871 108.019C422.513 107.261 423.161 106.508 423.787 105.74C424.414 104.971 424.982 104.213 425.288 103.286C425.772 101.817 425.256 99.9426 423.677 99.4213C423.535 99.374 423.361 99.4266 423.255 99.5319C420.365 102.48 417.332 105.587 415.921 109.557C414.736 112.895 414.858 116.981 417.143 119.834C419.428 122.688 423.545 123.478 427.041 122.72C431.006 121.861 434.286 119.045 437.04 116.217C439.498 113.695 442.557 108.93 439.525 105.713C439.419 105.603 439.219 105.534 439.072 105.592C435.65 106.956 433.138 110.157 432.496 113.774C431.832 117.497 433.317 121.203 436.25 123.567C439.188 125.931 443.142 126.732 446.675 125.268C450.208 123.804 452.793 120.677 453.33 116.996C453.63 114.948 453.293 112.732 451.619 111.342C450.239 110.194 448.328 109.731 446.58 110.189C444.832 110.647 443.237 112.073 442.468 113.769C441.699 115.464 441.678 117.386 442.347 119.108C443.016 120.829 444.237 122.272 445.875 123.062C447.675 123.931 449.781 123.962 451.661 123.346C455.752 122.009 458.132 117.986 458.706 113.895C459.269 109.873 458.274 105.634 455.873 102.343C453.472 99.0528 450.076 97.1363 446.217 96.6045C442.357 96.0727 438.593 97.0889 435.797 99.7004C433.17 102.154 431.585 105.819 431.774 109.425C431.822 110.32 431.969 111.21 432.238 112.063C432.296 112.253 432.348 112.468 432.475 112.621C432.601 112.774 432.827 112.911 432.996 113.037C433.359 113.306 433.754 113.527 434.17 113.711C435.792 114.422 437.613 114.464 439.319 114.064C441.025 113.664 442.752 112.747 444.079 111.51C445.574 110.12 446.643 108.288 447.428 106.419C448.27 104.407 448.791 102.296 449.265 100.174C449.323 99.911 449.381 99.6477 449.439 99.3898C449.481 99.1897 449.592 98.9106 449.576 98.7053C449.56 98.4999 449.413 98.3315 449.297 98.163C449.123 97.905 448.944 97.6523 448.77 97.3995C448.207 96.594 447.623 95.8042 447.001 95.0407C444.553 92.0343 441.299 89.407 437.203 89.6861C435.987 89.7703 434.791 90.0389 433.601 90.2968C432.512 90.5338 431.422 90.7918 430.342 91.0919C428.226 91.6868 426.135 92.4713 424.261 93.6402C420.918 95.7305 418.159 99.4582 418.401 103.565C418.427 104.028 418.49 104.492 418.596 104.944C418.722 105.487 419.143 105.708 419.601 105.982C420.375 106.44 421.239 106.756 422.123 106.914C423.95 107.245 425.851 107.008 427.578 106.361C431.469 104.908 434.038 101.575 435.755 97.9155C436.639 96.0253 437.334 94.0562 438.003 92.0817C438.056 91.929 437.998 91.7395 437.882 91.6289C435.186 88.9911 431.453 87.7748 427.736 87.6327C423.477 87.4747 419.328 88.7699 415.437 90.3969C413.446 91.2288 411.43 92.0817 409.529 93.1084C407.823 94.0298 406.249 95.2724 405.528 97.1257C404.901 98.7369 405.08 100.632 406.344 101.885C407.402 102.933 408.95 103.202 410.382 103.102C412.02 102.986 413.604 102.475 415.1 101.828C416.763 101.106 418.559 100.269 419.559 98.6737C421.449 95.6673 419.517 91.7448 416.732 90.102C413.457 88.1697 409.182 88.3698 405.565 89.0174C401.947 89.665 398.425 91.0708 395.487 93.2822C394.029 94.3826 392.728 95.662 391.628 97.1257C390.475 98.6632 389.506 100.438 389.49 102.407C389.458 105.982 392.365 108.709 395.045 110.641C395.761 111.157 396.503 111.642 397.251 112.105C397.425 112.216 397.662 112.174 397.804 112.031C402.2 107.835 407.676 102.807 406.17 96.0727C405.607 93.5612 404.017 91.213 401.495 90.3811C398.52 89.4018 395.603 90.8234 393.407 92.7873C390.401 95.4725 388.379 99.1054 386.199 102.444C385.899 102.902 386.631 103.328 386.931 102.87C388.784 100.032 390.511 97.0257 392.844 94.5406C394.718 92.5451 397.261 90.597 400.168 90.9655C402.706 91.2867 404.454 93.298 405.149 95.6515C405.923 98.2577 405.486 100.932 404.217 103.302C402.511 106.487 399.741 108.92 397.161 111.384L397.714 111.31C396.308 110.441 394.934 109.509 393.707 108.404C392.481 107.298 391.428 106.113 390.838 104.634C390.217 103.075 390.296 101.401 391.001 99.8794C391.707 98.3578 392.87 96.873 394.113 95.6515C396.498 93.298 399.504 91.6395 402.69 90.6443C405.875 89.6492 409.55 89.128 412.899 89.7071C414.589 90.002 416.316 90.6285 417.559 91.8553C418.648 92.9294 419.365 94.451 419.37 95.9937C419.37 97.6786 418.401 98.9633 417.011 99.8268C415.621 100.69 414.126 101.301 412.604 101.738C411.277 102.117 409.792 102.38 408.434 102.007C407.076 101.633 406.091 100.411 406.112 98.9422C406.165 95.0355 410.893 93.4243 413.826 92.108C420.412 89.149 428.621 86.5165 435.297 90.7444C435.992 91.1867 436.634 91.6974 437.219 92.2713L437.098 91.8185C435.955 95.204 434.723 98.6842 432.491 101.527C430.469 104.092 427.541 105.961 424.214 106.113C422.455 106.192 420.744 105.74 419.333 104.671L419.549 104.95C418.891 102.449 419.665 99.8689 421.107 97.7892C422.676 95.5304 425.035 93.993 427.552 92.9715C430.216 91.8922 433.112 91.1972 435.939 90.7181C437.35 90.4811 438.772 90.4601 440.151 90.8813C441.283 91.2235 442.336 91.8185 443.274 92.5398C445.511 94.2562 447.191 96.6045 448.755 98.9159L448.712 98.5842C447.649 103.57 446.301 109.599 441.42 112.231C439.43 113.306 436.955 113.769 434.797 112.948C434.286 112.753 433.802 112.479 433.37 112.142C433.012 111.863 432.938 111.094 432.849 110.626C432.648 109.52 432.643 108.362 432.817 107.245C433.554 102.491 437.155 98.5526 441.899 97.6259C446.643 96.6993 452.108 98.7843 455.052 102.812C458.158 107.066 458.911 113.179 456.442 117.913C455.194 120.308 453.083 122.162 450.392 122.688C447.912 123.172 445.369 122.283 443.932 120.166C442.494 118.049 442.357 115.527 443.684 113.448C445.011 111.368 447.538 110.336 449.844 111.352C450.95 111.837 451.845 112.732 452.214 113.89C452.635 115.201 452.498 116.665 452.119 117.97C451.461 120.24 449.908 122.23 447.933 123.509C445.959 124.789 443.474 125.373 441.11 124.868C438.745 124.362 436.597 122.988 435.144 121.077C433.691 119.166 433.033 116.823 433.328 114.453C433.612 112.152 434.744 109.957 436.418 108.362C437.25 107.567 438.224 106.924 439.293 106.492L438.84 106.371C441.283 108.951 438.751 112.942 436.861 115.033C434.396 117.76 431.337 120.392 427.783 121.53C424.661 122.53 420.812 122.246 418.369 119.861C415.926 117.476 415.626 113.737 416.49 110.61C417.648 106.419 420.876 103.165 423.829 100.143L423.408 100.253C424.888 100.738 424.703 102.686 424.108 103.765C423.719 104.476 423.182 105.092 422.666 105.708C422.15 106.324 421.613 106.966 421.081 107.588C418.97 110.062 416.779 112.489 414.32 114.622C411.862 116.754 409.334 118.476 406.412 119.571C403.764 120.566 400.905 121.024 398.083 120.787C394.992 120.529 391.996 119.355 389.78 117.149L389.89 117.576C390.522 115.285 392.539 113.574 394.845 113.116C397.151 112.658 399.568 113.816 400.879 115.801C402.305 117.955 402.216 120.514 400.894 122.699C399.494 125.01 397.125 126.784 394.792 128.074C392.46 129.364 389.448 130.286 386.736 129.333C384.709 128.617 383.188 126.842 382.44 124.863C381.656 122.783 381.619 120.435 382.519 118.386C383.509 116.143 385.367 114.401 387.537 113.295C392.607 110.715 398.515 112.137 403.1 115.075C403.695 115.454 404.275 115.864 404.838 116.291L404.685 115.701C404.269 116.449 403.848 117.191 403.432 117.939L404.022 117.786C402.195 116.791 402.047 114.38 402.169 112.532C402.316 110.32 402.769 108.093 403.474 105.992C404.77 102.149 407.407 98.1472 411.572 97.0889C414.768 96.2781 418.885 97.1257 420.86 99.9637C422.208 101.901 422.06 104.276 421.407 106.45C420.691 108.825 419.638 111.189 418.248 113.242C416.937 115.185 415.173 116.928 412.967 117.807C410.946 118.613 408.534 118.802 406.518 117.881C406.023 117.655 405.559 117.37 405.138 117.028L405.264 117.328C405.333 113.927 407.765 110.815 411.103 110.062C412.773 109.683 414.6 109.878 416.142 110.62C417.685 111.363 419.064 112.632 419.243 114.411C419.401 115.996 418.733 117.549 417.864 118.839C416.89 120.271 415.579 121.393 414.115 122.304C410.998 124.252 407.155 125.268 403.543 124.225C401.953 123.767 400.457 122.941 399.278 121.772C397.993 120.503 397.193 118.86 396.872 117.091C396.208 113.442 397.451 109.641 398.709 106.256C399.868 103.133 401.568 99.574 404.943 98.3946C406.354 97.8997 407.997 97.7997 409.387 98.4262C410.777 99.0528 411.735 100.459 411.925 102.001C412.33 105.297 410.277 108.488 408.218 110.863C406.023 113.4 403.295 115.459 400.284 116.944C397.272 118.429 393.913 119.345 390.538 119.534C386.947 119.734 383.135 119.197 379.976 117.397C374.474 114.253 372.568 107.261 374.332 101.396C376.238 95.0618 382.382 91.0182 388.679 89.9862C392.002 89.4386 395.687 89.6229 398.767 91.0761C400.315 91.8079 401.695 92.8873 402.632 94.3352C403.569 95.7831 404.059 97.4732 404.164 99.1791C404.39 102.859 402.864 106.303 400.726 109.22C398.551 112.189 395.777 114.89 392.702 116.917C389.627 118.945 386.31 120.198 382.714 120.198C379.418 120.198 376.032 119.129 373.652 116.775C371.13 114.285 370.062 110.731 369.688 107.287C369.493 105.46 369.44 103.597 369.561 101.764C369.688 99.8268 370.109 97.9155 371.078 96.2149C372.705 93.3612 375.527 91.3341 378.544 90.1547C381.866 88.8595 385.52 88.512 389.053 88.9226C392.586 89.3333 396.398 90.6759 399.473 92.7925C400.863 93.7508 402.2 94.9881 402.9 96.5518C403.695 98.3262 403.279 100.169 402.221 101.738C400.389 104.444 397.203 106.013 394.013 106.382C390.559 106.777 387.158 105.787 384.23 103.965C381.303 102.143 378.496 99.374 376.785 96.2781C375.911 94.6985 375.279 92.8768 375.485 91.055C375.648 89.586 376.396 88.254 377.533 87.3168C379.734 85.5003 382.956 85.237 385.689 85.4003C387.479 85.5056 389.253 85.8583 390.996 86.2532C393.07 86.7218 395.118 87.3115 397.119 88.0276C400.278 89.1543 403.674 90.7075 405.528 93.656C407.507 96.8046 407.065 100.685 405.796 104.007C404.527 107.33 402.453 110.394 399.931 112.837C397.604 115.09 394.524 116.949 391.196 116.954C388.379 116.954 385.357 115.691 383.693 113.358C381.787 110.683 382.34 107.272 384.378 104.834C386.794 101.938 390.49 100.864 394.129 100.606C396.129 100.464 398.156 100.495 400.152 100.632C402.147 100.769 404.117 101.09 405.875 102.001C407.355 102.765 408.65 103.986 409.34 105.518C410.103 107.208 409.845 109.03 408.945 110.615C407.244 113.627 403.827 116.18 400.284 116.249C397.198 116.312 393.913 114.101 393.829 110.81C393.744 107.256 396.751 104.297 399.594 102.623C402.474 100.927 405.817 100.153 409.124 99.9005C412.43 99.6477 415.974 99.8584 419.307 100.495C422.639 101.133 425.983 102.28 428.731 104.355C431.158 106.192 432.87 108.677 433.501 111.668C434.054 114.29 433.765 117.207 432.275 119.487C431.553 120.582 430.5 121.577 429.274 122.072C428.047 122.567 426.462 122.709 425.383 121.893C423.919 120.782 424.561 118.629 424.972 117.16C425.467 115.396 426.135 113.685 427.036 112.089C428.8 108.972 431.522 106.403 435.023 105.413C436.708 104.934 438.509 104.85 440.204 105.303C441.773 105.724 443.168 106.65 444.232 107.877C445.295 109.104 445.964 110.552 446.075 112.11C446.211 113.995 445.432 115.733 444.374 117.249C442.331 120.171 439.446 122.53 436.26 124.11C433.301 125.584 429.821 126.542 426.504 125.921C424.993 125.637 423.545 125.01 422.439 123.92C421.255 122.751 420.591 121.156 420.391 119.518C419.986 116.154 421.223 112.742 423.034 109.952C424.846 107.161 427.604 104.65 430.742 103.186C432.522 102.354 434.597 101.817 436.56 102.212C438.145 102.528 439.677 103.454 440.499 104.871C442.442 108.225 439.409 112.3 437.24 114.732C434.912 117.333 432.017 119.429 428.8 120.793C425.888 122.03 422.624 122.688 419.48 122.088C416.337 121.488 413.768 119.576 412.92 116.449C412.072 113.321 413.031 109.551 414.7 106.698C416.263 104.034 418.554 101.806 421.228 100.269C423.903 98.7316 426.815 97.9366 429.816 98.1367C432.817 98.3367 436.729 99.6899 437.661 102.907C438.593 106.124 436.376 109.288 434.154 111.289C431.622 113.574 428.089 115.096 424.677 115.291C421.265 115.485 417.922 114.09 416.021 111.136C414.12 108.183 413.883 104.602 415.089 101.369C416.295 98.1367 418.885 95.304 422.044 93.8034C425.014 92.3924 428.752 92.0449 431.659 93.8034C435.507 96.1359 431.158 100.164 428.773 101.627C426.151 103.239 423.04 104.007 419.97 103.902C416.9 103.797 413.804 102.786 411.393 100.838C408.771 98.7211 406.76 95.4356 407.134 91.9606C407.449 89.0543 409.566 85.99 412.641 85.6056C415.374 85.2686 418.485 87.143 418.812 90.0125C418.843 90.3126 419.317 90.3179 419.286 90.0125L419.328 89.9862Z" fill="#001F43"/>
<path d="M401.537 91.9551C400.652 89.7596 401.337 87.385 402.711 85.5475C404.259 83.4783 406.676 82.3884 409.203 82.1251C412.004 81.8303 414.852 82.3673 417.501 83.2624C419.891 84.068 422.224 85.2631 423.998 87.0901C425.63 88.775 426.625 90.9495 426.762 93.2925C426.899 95.6355 426.32 97.8311 425.277 99.8371C424.235 101.843 422.634 103.754 420.681 105.029C419.58 105.75 418.175 106.376 416.832 106.071C415.59 105.792 414.726 104.771 414.178 103.681C412.041 99.4317 413.794 94.3666 416.69 90.96C418.227 89.1488 420.133 87.643 422.266 86.59C424.667 85.4053 427.547 84.6524 430.221 85.1842C432.706 85.6791 434.681 87.3639 435.671 89.6806C436.661 91.9973 436.487 94.5298 435.376 96.7254C434.265 98.9209 432.206 100.822 429.79 101.585C428.473 102.001 427.046 102.08 425.735 101.585C424.593 101.159 423.64 100.274 422.976 99.2684C420.144 95.0089 421.839 89.1541 425.498 85.9792C429.437 82.5621 435.323 81.7408 440.246 83.1308C442.71 83.8258 445.016 85.142 446.68 87.1112C448.028 88.7065 448.823 90.7284 449.044 92.7976C449.497 97.036 447.812 101.48 444.627 104.323C442.947 105.824 440.825 106.792 438.598 107.114C436.492 107.414 434.202 107.082 432.475 105.771C430.574 104.323 429.784 101.922 429.927 99.5949C430.079 97.1045 431.295 94.8668 433.049 93.1345C434.939 91.2654 437.366 89.9597 439.862 89.0909C442.358 88.2222 445.074 87.8747 447.696 88.5591C452.24 89.749 456.068 93.4926 457.068 98.1206C458.069 102.749 456.289 107.645 452.867 110.757C449.255 114.042 443.905 114.806 439.351 113.279C438.182 112.889 437.071 112.337 436.05 111.647C435.028 110.957 434.023 110.088 433.323 109.046C432.622 108.003 432.275 106.782 432.401 105.508C432.527 104.233 433.075 103.065 433.812 102.064C435.444 99.8318 438.124 98.6577 440.652 97.7573C442.036 97.2624 443.437 96.757 444.88 96.4674C446.222 96.1936 447.786 96.1093 449.044 96.7675C449.913 97.2203 450.655 97.9943 451.013 98.9157C451.371 99.8371 451.424 100.88 450.761 101.654C450.608 101.827 450.866 102.085 451.019 101.912C451.729 101.085 451.93 100.074 451.672 99.021C451.414 97.9679 450.671 96.957 449.755 96.3199C448.56 95.4881 446.928 95.3986 445.532 95.5776C443.953 95.7776 442.436 96.2936 440.936 96.8043C438.193 97.7363 435.286 98.8946 433.391 101.185C431.617 103.328 430.801 106.287 432.133 108.867C432.791 110.136 433.844 111.168 434.971 112.026C436.018 112.826 437.177 113.458 438.398 113.942C440.846 114.911 443.553 115.217 446.159 114.853C448.765 114.49 451.192 113.421 453.172 111.731C455.152 110.041 456.526 107.919 457.374 105.55C458.221 103.18 458.464 100.59 457.969 98.1206C457.474 95.6513 456.184 93.3346 454.415 91.5181C452.646 89.7017 450.387 88.3485 447.933 87.7009C445.09 86.948 442.168 87.3008 439.425 88.2853C436.682 89.2699 434.197 90.6389 432.212 92.6659C430.227 94.693 429.074 97.1045 428.979 99.8423C428.889 102.438 429.895 105.007 432.001 106.587C433.949 108.045 436.497 108.377 438.851 108.035C441.204 107.693 443.532 106.576 445.327 104.928C447.122 103.28 448.318 101.327 449.097 99.1421C450.65 94.7931 450.166 89.6595 446.943 86.1845C443.153 82.0883 436.834 80.9562 431.553 82.1409C428.842 82.7517 426.241 84.0311 424.261 86.0055C422.281 87.98 421.149 90.3967 420.807 93.0345C420.465 95.6723 421.092 98.4365 422.819 100.479C423.698 101.522 424.882 102.317 426.22 102.617C427.657 102.938 429.179 102.738 430.543 102.206C433.075 101.217 435.197 99.1737 436.292 96.6885C437.387 94.2034 437.387 91.5076 436.25 89.0751C435.113 86.6426 432.843 84.8525 430.158 84.3997C427.289 83.9205 424.288 84.705 421.729 85.995C417.327 88.2116 413.52 92.4869 412.62 97.4256C412.183 99.8318 412.457 102.512 413.752 104.634C414.457 105.787 415.521 106.724 416.895 106.919C418.385 107.129 419.844 106.497 421.065 105.692C425.119 103.022 427.878 97.9785 427.473 93.0819C427.268 90.5493 426.167 88.2274 424.367 86.4373C422.445 84.5208 419.933 83.2782 417.369 82.4516C414.547 81.5459 411.493 81.0194 408.539 81.4828C407.134 81.7039 405.723 82.162 404.517 82.9359C403.469 83.6046 402.569 84.4997 401.879 85.5369C400.584 87.4692 400.142 89.9965 401.084 92.171C401.195 92.429 401.647 92.2395 401.542 91.9762L401.537 91.9551Z" fill="#001F43"/>
</svg>
