<svg width="130" height="80" viewBox="0 0 130 80" fill="none" xmlns="http://www.w3.org/2000/svg">
<g clip-path="url(#clip0_245_27349)">
<path d="M127.305 68.9979H126.769V77.6792H127.305V68.9979Z" fill="#262626"/>
<path d="M9.3506 78.4524C9.3506 78.9037 9.11469 79.2475 8.66432 79.4409C7.9137 79.8062 7.22741 79.9781 6.66981 79.9781C6.1122 79.9781 5.64039 79.9566 5.21146 79.9136C4.73964 79.8492 4.28927 79.6988 3.86034 79.4194C2.85236 78.8392 2.3162 77.7863 2.3162 76.3036V68.5892H0.772068C0.300249 68.5892 0 68.3099 0 67.8371C0 67.6008 0.107232 67.3859 0.321695 67.1925L3.81745 63.7758C4.22493 63.3676 4.69675 63.389 4.997 63.7114C5.12567 63.8618 5.21146 64.0337 5.21146 64.2486V66.0321H7.84936C8.21395 66.0321 8.51419 66.1611 8.7501 66.3974C8.98601 66.6338 9.11469 66.9561 9.11469 67.3214C9.11469 67.6867 8.98601 67.9876 8.7501 68.2239C8.51419 68.4603 8.21395 68.5892 7.84936 68.5892H5.21146V76.1102C5.21146 76.6689 5.36158 77.0342 5.66183 77.2061C5.79051 77.2921 6.04787 77.378 6.54113 77.378C7.0344 77.378 7.3132 77.335 7.42043 77.2921C7.9137 77.0987 8.51419 77.0772 8.96457 77.4855C9.22192 77.7003 9.3506 78.0227 9.3506 78.4524Z" fill="#262626"/>
<path d="M22.3901 67.7516C21.1462 66.4408 19.4734 65.7747 17.4146 65.7747C15.3557 65.7747 13.6615 66.4408 12.439 67.7516C11.1951 69.0409 10.5518 70.7815 10.5518 72.8873C10.5518 74.9932 11.1951 76.7123 12.439 78.0231C13.6615 79.3124 15.3343 79.9785 17.4146 79.9785C19.4949 79.9785 21.1462 79.3339 22.3901 78.0231C23.634 76.6908 24.2774 74.9717 24.2774 72.8873C24.2774 70.803 23.634 69.0624 22.3901 67.7516ZM13.8116 70.803C14.4764 69.2128 15.656 68.4607 17.4146 68.4607C18.4655 68.4607 19.3662 68.7831 20.0954 69.4492C20.9532 70.2443 21.4036 71.4046 21.4036 72.8659C21.4036 74.3271 20.9532 75.5304 20.0954 76.3255C19.7093 76.6478 19.2804 76.9057 18.8086 77.0561C17.865 77.3784 16.9428 77.3784 15.9991 77.0561C15.5273 76.9057 15.0984 76.6478 14.7338 76.304C14.3478 75.9602 14.0475 75.5089 13.8116 74.9502C13.5542 74.37 13.447 73.6824 13.447 72.8659C13.447 72.0493 13.5542 71.3617 13.8116 70.803Z" fill="#262626"/>
<path d="M59.2131 71.8559V78.5173C59.2131 79.2479 58.6126 79.8496 57.8834 79.8496C57.1542 79.8496 56.5323 79.2479 56.5323 78.5173V71.8559C56.5323 69.9864 55.0739 68.4607 53.2081 68.3748C51.3637 68.4607 49.8839 69.9864 49.8839 71.8559V78.5173C49.8839 79.2479 49.2834 79.8496 48.5542 79.8496C47.8251 79.8496 47.2031 79.2479 47.2031 78.5173V71.8559C47.2031 68.6541 49.648 66.011 52.7792 65.7102H53.3797C56.661 65.8606 59.2131 68.5682 59.2131 71.8559Z" fill="#262626"/>
<path d="M45.2516 67.1929V74.5849C45.2516 77.4859 42.8925 79.8281 39.9972 79.8281H39.7184C38.2172 79.8281 36.8017 79.2049 35.7937 78.0875C34.8072 79.2049 33.3703 79.8496 31.8691 79.8496H31.5902C28.695 79.8496 26.3145 77.5073 26.3145 74.6064V67.2144C26.3145 66.4623 26.9149 65.8606 27.6656 65.8606C28.4162 65.8606 28.9952 66.4623 28.9952 67.2144V74.6064C28.9952 76.0246 30.1533 77.1635 31.5902 77.1635H31.8691C33.2845 77.1635 34.4426 76.0246 34.4426 74.6064V67.1929C34.4426 66.8491 34.5927 66.5053 34.8286 66.2689C34.9359 66.1615 35.0646 66.054 35.2361 65.9895C35.3005 65.9466 35.3862 65.9251 35.4935 65.8821C35.5793 65.8821 35.6865 65.8606 35.7937 65.8606C36.287 65.8606 36.7588 66.1615 37.0162 66.6342C37.102 66.8061 37.1234 66.978 37.1234 67.1929V74.6064C37.1448 76.0246 38.2815 77.142 39.7184 77.142H39.9972C41.4127 77.142 42.5708 76.0032 42.5708 74.5849V67.1929C42.5708 66.4408 43.1713 65.8391 43.9219 65.8391C44.6725 65.8391 45.2516 66.4408 45.2516 67.1929Z" fill="#262626"/>
<path d="M37.0163 66.6342C36.759 66.1615 36.2872 65.8606 35.7939 65.8606C35.6867 65.8606 35.5794 65.8821 35.4937 65.8821C35.5794 65.8606 35.6867 65.8391 35.7939 65.8391C36.3515 65.8391 36.8233 66.1615 37.0163 66.6342Z" fill="#262626"/>
<path d="M90.4819 67.7301C89.238 66.4408 87.5652 65.7747 85.5064 65.7747C83.4475 65.7747 81.7533 66.4408 80.5308 67.7301C79.2869 69.0624 78.6436 70.7815 78.6436 72.8873C78.6436 74.9932 79.2869 76.7123 80.5308 78.0231C81.7533 79.3339 83.4261 80 85.5064 80C87.5867 80 89.238 79.3339 90.4819 78.0231C91.7258 76.6908 92.3692 74.9717 92.3692 72.8873C92.3692 70.8029 91.7473 69.0839 90.4819 67.7301ZM88.1872 76.3255C87.8011 76.6478 87.3937 76.9057 86.9004 77.0561C85.9782 77.3784 85.0775 77.3784 84.0909 77.0561C83.5977 76.8842 83.1902 76.6478 82.8256 76.304C82.4396 75.9387 82.1179 75.4874 81.882 74.9502C81.646 74.3915 81.5174 73.6824 81.5174 72.8658C81.5174 72.0493 81.646 71.3616 81.882 70.8029C82.5897 69.2128 83.7692 68.4607 85.5064 68.4607C86.5787 68.4607 87.4366 68.783 88.1872 69.4492C89.0665 70.2657 89.4954 71.3616 89.4954 72.8658C89.4954 74.37 89.0665 75.5304 88.1872 76.3255Z" fill="#262626"/>
<path d="M129.836 67.8376C129.836 68.3103 129.557 68.5896 129.064 68.5896H127.305V78.5173C127.305 78.9041 127.177 79.2264 126.898 79.4628C126.812 79.5917 126.662 79.6777 126.533 79.7421C126.362 79.8281 126.19 79.8711 125.976 79.8711C125.783 79.8711 125.611 79.8281 125.44 79.7421L125.375 79.6992C125.375 79.6992 125.268 79.6347 125.204 79.5917H125.139L125.032 79.4843C124.86 79.2909 124.732 79.0975 124.689 78.8396C124.689 78.7322 124.625 78.6247 124.625 78.5173V71.8774C124.625 70.0079 123.166 68.4607 121.3 68.3748C119.456 68.4607 117.976 70.0079 117.976 71.8774V78.5173C117.976 79.2694 117.397 79.8711 116.647 79.8711C115.896 79.8711 115.295 79.2694 115.295 78.5173V71.8774C115.295 68.5896 117.869 65.8821 121.129 65.6887H121.472C122.63 65.7532 123.702 66.1185 124.625 66.7846V64.249C124.625 64.0341 124.71 63.8407 124.86 63.6903C124.968 63.5399 125.161 63.4754 125.397 63.4754C125.547 63.4754 125.783 63.5184 126.019 63.7977L129.514 67.1929C129.729 67.3863 129.836 67.5797 129.836 67.8376Z" fill="#262626"/>
<path d="M113.365 67.1929V74.5849C113.365 77.4859 110.985 79.8281 108.09 79.8281H107.811C106.309 79.8281 104.915 79.2049 103.886 78.0875C102.9 79.2049 101.463 79.8496 99.9614 79.8496H99.6826C96.7873 79.8496 94.4282 77.5073 94.4282 74.6064V67.2144C94.4282 66.4623 95.0287 65.8606 95.7579 65.8606C96.4871 65.8606 97.109 66.4623 97.109 67.2144V74.6064C97.109 76.0246 98.2671 77.1635 99.6826 77.1635H99.9614C101.377 77.1635 102.556 76.0246 102.556 74.6064V67.1929C102.556 66.8491 102.685 66.5053 102.921 66.2689C103.028 66.1615 103.157 66.054 103.328 65.9895C103.35 65.9895 103.371 65.9681 103.393 65.9681C103.457 65.9251 103.521 65.9036 103.607 65.8821C103.693 65.8821 103.779 65.8606 103.886 65.8606C104.401 65.8606 104.851 66.1615 105.108 66.6342C105.194 66.8061 105.237 66.978 105.237 67.1929V74.6064C105.237 76.0246 106.374 77.142 107.811 77.142H108.09C109.526 77.142 110.685 76.0032 110.685 74.5849V67.1929C110.685 66.4408 111.264 65.8391 112.014 65.8391C112.765 65.8391 113.365 66.4408 113.365 67.1929Z" fill="#262626"/>
<path d="M105.109 66.6342C104.851 66.1615 104.401 65.8606 103.886 65.8606C103.779 65.8606 103.693 65.8821 103.607 65.8821C103.693 65.8606 103.779 65.8391 103.886 65.8391C104.444 65.8391 104.916 66.1615 105.109 66.6342Z" fill="#262626"/>
<path d="M77.4429 78.4528C77.4429 78.9041 77.1855 79.2694 76.7566 79.4413C75.9845 79.8066 75.3411 80 74.7621 80C74.183 80 73.7112 79.957 73.3037 79.8926C72.8534 79.8496 72.3816 79.6992 71.9526 79.4413C70.9446 78.8396 70.4299 77.7652 70.4299 76.304V68.5896H69.3362C68.8 68.5896 68.3496 68.2458 68.1781 67.7516C68.1137 67.6227 68.0923 67.4722 68.0923 67.3003C68.0923 66.6127 68.6499 66.0325 69.3362 66.0325H70.4299V64.9151C70.4299 64.0986 71.0519 63.4754 71.8454 63.4754C72.0599 63.4754 72.21 63.4969 72.3387 63.5614H72.403C72.9392 63.7977 73.2823 64.3135 73.2823 64.9151V66.0325H75.9416C76.3277 66.0325 76.6279 66.1829 76.8424 66.4193C77.0997 66.6557 77.207 66.9565 77.207 67.3218C77.207 67.6656 77.0997 67.9665 76.8424 68.2243C76.6279 68.4392 76.3277 68.5896 75.9416 68.5896H73.2823V76.1106C73.2823 76.6693 73.4539 77.0346 73.7541 77.2065C73.9257 77.3354 74.2259 77.3784 74.6334 77.3784C75.191 77.3784 75.4269 77.3139 75.5127 77.2925C76.0918 77.0776 76.6065 77.0776 77.0569 77.4859C77.3142 77.7007 77.4429 78.0231 77.4429 78.4528Z" fill="#262626"/>
</g>
<g clip-path="url(#clip1_245_27349)">
<path d="M128.521 37.8947C127.288 37.2097 125.73 37.6479 125.039 38.8817C122.456 43.4936 119.964 46.2079 117.829 46.727C116.02 47.1737 114.274 46.1483 111.615 44.4083C109.353 42.9277 107.014 41.4003 104.227 41.4003H99.7193V15.7331L114.658 15.6778V19.728H109.955C108.777 19.728 107.82 20.6768 107.82 21.8553C107.82 23.0338 108.777 23.9825 109.955 23.9825H114.658V27.1904H109.955C108.777 27.1904 107.82 28.1391 107.82 29.3176C107.82 30.4961 108.777 31.4449 109.955 31.4449H114.658V34.657H109.955C108.777 34.657 107.82 35.61 107.82 36.7842C107.82 37.9585 108.777 38.9115 109.955 38.9115H117.646C118.824 38.9115 119.78 37.9585 119.78 36.7842C119.78 36.7247 119.776 36.6651 119.767 36.6055V36.5673C119.776 36.4949 119.78 36.4226 119.78 36.346V13.7973C119.78 13.6824 119.772 13.5675 119.754 13.4569C119.772 13.3378 119.78 13.2272 119.78 13.1081C119.776 11.6998 118.628 10.5639 117.219 10.5639H117.211L109.536 10.5937V8.08351H112.524C113.937 8.08351 115.085 6.93906 115.085 5.53082C115.085 4.12259 113.937 2.97814 112.524 2.97814H109.536V2.55269C109.536 1.1402 108.388 0 106.975 0C105.563 0 104.414 1.1402 104.414 2.55269V2.97814H101.427C100.014 2.97814 98.8656 4.11834 98.8656 5.53082C98.8656 6.94331 100.014 8.08351 101.427 8.08351H104.414V10.6107L97.1498 10.6362C95.737 10.6405 94.5931 11.7849 94.5974 13.1974C94.5974 13.2485 94.5974 13.2995 94.6059 13.3463V13.3676C94.5974 13.4101 94.5974 13.4442 94.5974 13.491V41.4003H77.9512V31.9086H80.0853C81.4981 31.9086 82.6462 30.7641 82.6462 29.3559C82.6462 27.9477 81.4981 26.8032 80.0853 26.8032H77.9512V23.3996H81.3658C82.7786 23.3996 83.9267 22.2552 83.9267 20.847C83.9267 19.4387 82.7786 18.2943 81.3658 18.2943H69.4147C68.0019 18.2943 66.8537 19.4345 66.8537 20.847C66.8537 22.2594 68.0019 23.3996 69.4147 23.3996H72.8293V26.8032H70.2683C68.8555 26.8032 67.7074 27.9434 67.7074 29.3559C67.7074 30.7684 68.8555 31.9086 70.2683 31.9086H72.8293V41.1068C69.2781 40.4005 67.3872 38.3839 65.4366 35.0952C61.0489 25.1014 52.9989 17.9411 42.1405 14.3716C37.0527 12.6996 32.4729 12.1806 29.6729 12.0274V6.04562C29.6729 4.63738 28.5248 3.49293 27.112 3.49293C25.6992 3.49293 24.551 4.63738 24.551 6.04562V11.9168C20.2657 11.9551 11.6908 12.7634 5.86032 18.0815C1.97193 21.6255 0 26.4841 0 32.517C0 33.0701 0.017073 33.6189 0.0512191 34.1465C0.657311 43.8382 8.31883 48.0288 15.195 47.8118C22.3913 47.5864 29.6729 42.4342 29.6729 33.0233V17.1498C32.1869 17.303 36.2546 17.7922 40.7021 19.2728C50.1307 22.4169 56.8489 28.3774 60.6775 36.9885C60.7117 37.1033 60.7586 37.2139 60.8141 37.3203L60.8995 37.4905C60.9635 37.6224 61.0446 37.75 61.13 37.8649C64.2586 43.0681 68.0787 46.5057 76.1244 46.5057H104.227C105.486 46.5057 107.099 47.5608 108.806 48.6798C111.073 50.1561 113.792 51.9387 116.993 51.9344C117.659 51.9344 118.346 51.8579 119.05 51.6877C122.755 50.7815 126.076 47.5013 129.512 41.3706C130.199 40.1368 129.759 38.5839 128.521 37.8947ZM24.551 33.0233C24.551 39.5071 19.7706 42.5618 15.0328 42.7065C10.4103 42.8554 5.56154 40.1623 5.16032 33.8274C5.13471 33.4019 5.12191 32.9637 5.12191 32.517C5.12191 27.9222 6.48775 24.4335 9.3048 21.8595C13.8334 17.7157 20.987 17.0732 24.551 17.0264V33.0233Z" fill="#262626"/>
<path d="M85.3479 15.9543C84.5241 15.9543 83.7131 15.5586 83.218 14.8226L81.3869 12.104C81.1223 11.7126 80.7467 11.4871 80.3583 11.4871H69.4145C68.0017 11.4871 66.8535 10.3426 66.8535 8.93441C66.8535 7.52618 68.0017 6.38172 69.4145 6.38172H80.3583C82.4497 6.38172 84.4217 7.4581 85.6381 9.25775L87.4692 11.9764C88.2588 13.1463 87.943 14.7333 86.7692 15.5203C86.3296 15.8139 85.8344 15.9543 85.3436 15.9543H85.3479Z" fill="#262626"/>
<path d="M85.8473 39.9921C88.0882 39.9921 89.9022 38.184 89.9022 35.9504C89.9022 33.7168 88.0882 31.9086 85.8473 31.9086C83.6065 31.9086 81.7925 33.7168 81.7925 35.9504C81.7925 38.184 83.6065 39.9921 85.8473 39.9921Z" fill="#262626"/>
</g>
<defs>
<clipPath id="clip0_245_27349">
<rect width="129.836" height="16.5246" fill="white" transform="translate(0 63.4754)"/>
</clipPath>
<clipPath id="clip1_245_27349">
<rect width="129.836" height="51.9344" fill="white"/>
</clipPath>
</defs>
</svg>
