<svg width="256" height="158" viewBox="0 0 256 158" fill="none" xmlns="http://www.w3.org/2000/svg">
<g clip-path="url(#clip0_449_35338)">
<path d="M251.01 136.044H249.953V153.161H251.01V136.044Z" fill="white"/>
<path d="M18.4367 154.686C18.4367 155.576 17.9716 156.254 17.0836 156.635C15.6036 157.355 14.2504 157.694 13.151 157.694C12.0515 157.694 11.1212 157.652 10.2755 157.567C9.34523 157.44 8.45722 157.143 7.6115 156.593C5.62405 155.449 4.5669 153.373 4.5669 150.449V135.239H1.5223C0.592005 135.239 0 134.688 0 133.756C0 133.29 0.21143 132.866 0.634291 132.485L7.52692 125.748C8.33036 124.943 9.26065 124.985 9.85266 125.621C10.1064 125.917 10.2755 126.256 10.2755 126.68V130.197H15.4767C16.1956 130.197 16.7876 130.451 17.2527 130.917C17.7179 131.383 17.9716 132.018 17.9716 132.739C17.9716 133.459 17.7179 134.052 17.2527 134.518C16.7876 134.984 16.1956 135.239 15.4767 135.239H10.2755V150.068C10.2755 151.169 10.5715 151.89 11.1635 152.229C11.4172 152.398 11.9247 152.568 12.8973 152.568C13.8698 152.568 14.4196 152.483 14.631 152.398C15.6036 152.017 16.7876 151.974 17.6756 152.779C18.183 153.203 18.4367 153.839 18.4367 154.686Z" fill="white"/>
<path d="M44.1466 133.587C41.694 131.002 38.3957 129.689 34.3362 129.689C30.2768 129.689 26.9362 131.002 24.5259 133.587C22.0733 136.129 20.8047 139.561 20.8047 143.713C20.8047 147.865 22.0733 151.255 24.5259 153.839C26.9362 156.382 30.2345 157.695 34.3362 157.695C38.438 157.695 41.694 156.424 44.1466 153.839C46.5992 151.212 47.8678 147.823 47.8678 143.713C47.8678 139.603 46.5992 136.171 44.1466 133.587V133.587ZM27.2322 139.603C28.543 136.468 30.8688 134.985 34.3362 134.985C36.4083 134.985 38.1843 135.621 39.622 136.934C41.3134 138.502 42.2014 140.79 42.2014 143.671C42.2014 146.552 41.3134 148.925 39.622 150.492C38.8608 151.128 38.0151 151.636 37.0848 151.933C35.2242 152.568 33.4059 152.568 31.5454 151.933C30.6151 151.636 29.7693 151.128 29.0505 150.45C28.2893 149.772 27.6973 148.882 27.2322 147.781C26.7247 146.637 26.5133 145.281 26.5133 143.671C26.5133 142.061 26.7247 140.705 27.2322 139.603V139.603Z" fill="white"/>
<path d="M116.752 141.679V154.814C116.752 156.254 115.568 157.441 114.13 157.441C112.693 157.441 111.466 156.254 111.466 154.814V141.679C111.466 137.993 108.591 134.985 104.912 134.816C101.275 134.985 98.3575 137.993 98.3575 141.679V154.814C98.3575 156.254 97.1735 157.441 95.7358 157.441C94.2981 157.441 93.0718 156.254 93.0718 154.814V141.679C93.0718 135.366 97.8924 130.155 104.066 129.562H105.25C111.72 129.858 116.752 135.197 116.752 141.679Z" fill="white"/>
<path d="M89.2236 132.485V147.06C89.2236 152.78 84.5722 157.398 78.8635 157.398H78.3138C75.3538 157.398 72.5629 156.17 70.5755 153.966C68.6303 156.17 65.7971 157.441 62.8371 157.441H62.2874C56.5788 157.441 51.885 152.823 51.885 147.103V132.528C51.885 131.045 53.069 129.858 54.549 129.858C56.029 129.858 57.1708 131.045 57.1708 132.528V147.103C57.1708 149.899 59.4542 152.145 62.2874 152.145H62.8371C65.628 152.145 67.9114 149.899 67.9114 147.103V132.485C67.9114 131.807 68.2074 131.13 68.6726 130.663C68.884 130.452 69.1377 130.24 69.476 130.113C69.6029 130.028 69.772 129.986 69.9834 129.901C70.1526 129.901 70.364 129.858 70.5755 129.858C71.548 129.858 72.4783 130.452 72.9858 131.384C73.1549 131.723 73.1972 132.062 73.1972 132.485V147.103C73.2395 149.899 75.4806 152.102 78.3138 152.102H78.8635C81.6544 152.102 83.9379 149.857 83.9379 147.06V132.485C83.9379 131.002 85.1219 129.816 86.6019 129.816C88.0819 129.816 89.2236 131.002 89.2236 132.485V132.485Z" fill="white"/>
<path d="M72.9857 131.384C72.4783 130.452 71.548 129.858 70.5754 129.858C70.364 129.858 70.1525 129.901 69.9834 129.901C70.1525 129.858 70.364 129.816 70.5754 129.816C71.6748 129.816 72.6051 130.452 72.9857 131.384V131.384Z" fill="white"/>
<path d="M178.405 133.545C175.952 131.002 172.654 129.689 168.595 129.689C164.535 129.689 161.194 131.002 158.784 133.545C156.332 136.171 155.063 139.561 155.063 143.713C155.063 147.865 156.332 151.255 158.784 153.839C161.194 156.424 164.493 157.737 168.595 157.737C172.696 157.737 175.952 156.424 178.405 153.839C180.858 151.212 182.126 147.823 182.126 143.713C182.126 139.603 180.9 136.214 178.405 133.545V133.545ZM173.88 150.492C173.119 151.128 172.316 151.636 171.343 151.933C169.525 152.568 167.749 152.568 165.804 151.933C164.831 151.594 164.028 151.128 163.309 150.45C162.548 149.73 161.913 148.84 161.448 147.781C160.983 146.679 160.729 145.281 160.729 143.671C160.729 142.061 160.983 140.705 161.448 139.603C162.844 136.468 165.169 134.985 168.595 134.985C170.709 134.985 172.4 135.621 173.88 136.934C175.614 138.544 176.46 140.705 176.46 143.671C176.46 146.637 175.614 148.925 173.88 150.492V150.492Z" fill="white"/>
<path d="M256 133.756C256 134.689 255.45 135.239 254.478 135.239H251.01V154.814C251.01 155.577 250.756 156.212 250.207 156.678C250.037 156.932 249.741 157.102 249.488 157.229C249.149 157.398 248.811 157.483 248.388 157.483C248.008 157.483 247.669 157.398 247.331 157.229L247.204 157.144C247.204 157.144 246.993 157.017 246.866 156.932H246.739L246.528 156.72C246.189 156.339 245.936 155.958 245.851 155.449C245.851 155.238 245.724 155.026 245.724 154.814V141.722C245.724 138.036 242.849 134.985 239.17 134.816C235.533 134.985 232.616 138.036 232.616 141.722V154.814C232.616 156.297 231.474 157.483 229.994 157.483C228.514 157.483 227.33 156.297 227.33 154.814V141.722C227.33 135.239 232.404 129.901 238.832 129.52H239.508C241.792 129.647 243.906 130.367 245.724 131.68V126.681C245.724 126.257 245.893 125.876 246.189 125.579C246.401 125.283 246.781 125.156 247.247 125.156C247.543 125.156 248.008 125.24 248.473 125.791L255.366 132.485C255.788 132.867 256 133.248 256 133.756V133.756Z" fill="white"/>
<path d="M223.524 132.485V147.06C223.524 152.78 218.83 157.398 213.122 157.398H212.572C209.612 157.398 206.863 156.17 204.834 153.966C202.889 156.17 200.055 157.441 197.095 157.441H196.546C190.837 157.441 186.186 152.823 186.186 147.103V132.528C186.186 131.045 187.37 129.858 188.807 129.858C190.245 129.858 191.471 131.045 191.471 132.528V147.103C191.471 149.899 193.755 152.145 196.546 152.145H197.095C199.886 152.145 202.212 149.899 202.212 147.103V132.485C202.212 131.807 202.466 131.13 202.931 130.663C203.142 130.452 203.396 130.24 203.734 130.113C203.777 130.113 203.819 130.07 203.861 130.07C203.988 129.986 204.115 129.943 204.284 129.901C204.453 129.901 204.622 129.858 204.834 129.858C205.849 129.858 206.737 130.452 207.244 131.384C207.413 131.723 207.498 132.062 207.498 132.485V147.103C207.498 149.899 209.739 152.102 212.572 152.102H213.122C215.955 152.102 218.238 149.857 218.238 147.06V132.485C218.238 131.002 219.38 129.816 220.86 129.816C222.34 129.816 223.524 131.002 223.524 132.485V132.485Z" fill="white"/>
<path d="M207.244 131.384C206.737 130.452 205.849 129.858 204.834 129.858C204.622 129.858 204.453 129.901 204.284 129.901C204.453 129.858 204.622 129.816 204.834 129.816C205.933 129.816 206.863 130.452 207.244 131.384V131.384Z" fill="white"/>
<path d="M152.695 154.687C152.695 155.577 152.188 156.297 151.342 156.636C149.82 157.356 148.551 157.737 147.409 157.737C146.268 157.737 145.337 157.653 144.534 157.525C143.646 157.441 142.716 157.144 141.87 156.636C139.882 155.449 138.867 153.331 138.867 150.45V135.239H136.711C135.654 135.239 134.766 134.561 134.427 133.587C134.301 133.333 134.258 133.036 134.258 132.697C134.258 131.341 135.358 130.197 136.711 130.197H138.867V127.994C138.867 126.384 140.094 125.156 141.658 125.156C142.081 125.156 142.377 125.198 142.631 125.325H142.758C143.815 125.791 144.492 126.808 144.492 127.994V130.197H149.735C150.496 130.197 151.088 130.494 151.511 130.96C152.018 131.426 152.23 132.019 152.23 132.74C152.23 133.417 152.018 134.011 151.511 134.519C151.088 134.943 150.496 135.239 149.735 135.239H144.492V150.069C144.492 151.17 144.83 151.89 145.422 152.229C145.76 152.484 146.352 152.568 147.156 152.568C148.255 152.568 148.72 152.441 148.889 152.399C150.031 151.975 151.046 151.975 151.934 152.78C152.441 153.204 152.695 153.839 152.695 154.687V154.687Z" fill="white"/>
</g>
<g clip-path="url(#clip1_449_35338)">
<path d="M253.408 74.7175C250.976 73.367 247.904 74.231 246.541 76.6637C241.449 85.757 236.534 91.1089 232.326 92.1323C228.758 93.0131 225.316 90.9915 220.073 87.5605C215.613 84.6413 211.001 81.6298 205.505 81.6298H196.618V31.0212L226.073 30.9121V38.8981H216.799C214.476 38.8981 212.591 40.7687 212.591 43.0924C212.591 45.416 214.476 47.2867 216.799 47.2867H226.073V53.6117H216.799C214.476 53.6117 212.591 55.4824 212.591 57.8061C212.591 60.1297 214.476 62.0004 216.799 62.0004H226.073V68.3338H216.799C214.476 68.3338 212.591 70.2128 212.591 72.5281C212.591 74.8434 214.476 76.7224 216.799 76.7224H231.964C234.287 76.7224 236.172 74.8434 236.172 72.5281C236.172 72.4107 236.164 72.2932 236.147 72.1758V72.1003C236.164 71.9577 236.172 71.8151 236.172 71.6641V27.2043C236.172 26.9778 236.156 26.7513 236.122 26.5332C236.156 26.2984 236.172 26.0803 236.172 25.8454C236.164 23.0687 233.9 20.829 231.123 20.829H231.106L215.974 20.8877V15.9384H221.866C224.651 15.9384 226.915 13.6819 226.915 10.9052C226.915 8.12858 224.651 5.87204 221.866 5.87204H215.974V5.03318C215.974 2.24815 213.711 0 210.925 0C208.139 0 205.876 2.24815 205.876 5.03318V5.87204H199.984C197.199 5.87204 194.935 8.12019 194.935 10.9052C194.935 13.6902 197.199 15.9384 199.984 15.9384H205.876V20.9212L191.552 20.9716C188.766 20.98 186.511 23.2365 186.519 26.0215C186.519 26.1222 186.519 26.2229 186.536 26.3151V26.3571C186.519 26.441 186.519 26.5081 186.519 26.6003V81.6298H153.698V62.9147H157.906C160.691 62.9147 162.955 60.6582 162.955 57.8815C162.955 55.1049 160.691 52.8484 157.906 52.8484H153.698V46.1375H160.43C163.216 46.1375 165.48 43.8809 165.48 41.1043C165.48 38.3277 163.216 36.0711 160.43 36.0711H136.866C134.08 36.0711 131.817 38.3193 131.817 41.1043C131.817 43.8893 134.08 46.1375 136.866 46.1375H143.599V52.8484H138.549C135.764 52.8484 133.5 55.0965 133.5 57.8815C133.5 60.6666 135.764 62.9147 138.549 62.9147H143.599V81.0509C136.597 79.6584 132.869 75.6822 129.023 69.1978C120.371 49.4929 104.499 35.3749 83.0891 28.3368C73.0575 25.0401 64.0273 24.0166 58.5066 23.7147V11.9202C58.5066 9.14361 56.2427 6.88707 53.4571 6.88707C50.6715 6.88707 48.4076 9.14361 48.4076 11.9202V23.4966C39.9582 23.5721 23.0509 25.1659 11.5549 35.6517C3.8881 42.6394 0 52.2192 0 64.1143C0 65.2048 0.0336632 66.287 0.10099 67.3271C1.29603 86.4364 16.4024 94.6992 29.9602 94.2714C44.1492 93.8268 58.5066 83.6682 58.5066 65.1125V33.8146C63.4635 34.1166 71.4837 35.0813 80.253 38.0005C98.8435 44.1997 112.09 55.9522 119.639 72.9308C119.706 73.1572 119.799 73.3753 119.908 73.5851L120.077 73.9206C120.203 74.1807 120.363 74.4323 120.531 74.6588C126.7 84.9181 134.232 91.6961 150.096 91.6961H205.505C207.988 91.6961 211.169 93.7765 214.535 95.9827C219.004 98.8936 224.365 102.408 230.677 102.4C231.99 102.4 233.345 102.249 234.733 101.913C242.038 100.127 248.586 93.6591 255.36 81.571C256.715 79.1383 255.848 76.0765 253.408 74.7175V74.7175ZM48.4076 65.1125C48.4076 77.8968 38.982 83.9199 29.6404 84.2051C20.5261 84.4987 10.9658 79.1887 10.1747 66.698C10.1242 65.8591 10.099 64.9951 10.099 64.1143C10.099 55.0546 12.792 48.1759 18.3464 43.1008C27.2756 34.9303 41.3805 33.6636 48.4076 33.5713V65.1125V65.1125Z" fill="white"/>
<path d="M168.282 31.4574C166.658 31.4574 165.059 30.6772 164.083 29.226L160.472 23.8657C159.951 23.0939 159.21 22.6493 158.444 22.6493H136.866C134.08 22.6493 131.817 20.3928 131.817 17.6161C131.817 14.8395 134.08 12.5829 136.866 12.5829H158.444C162.568 12.5829 166.456 14.7053 168.855 18.2537L172.465 23.614C174.022 25.9209 173.399 29.0498 171.085 30.6017C170.218 31.1805 169.242 31.4574 168.274 31.4574H168.282Z" fill="white"/>
<path d="M169.267 78.8531C173.685 78.8531 177.262 75.288 177.262 70.8839C177.262 66.4799 173.685 62.9147 169.267 62.9147C164.848 62.9147 161.272 66.4799 161.272 70.8839C161.272 75.288 164.848 78.8531 169.267 78.8531Z" fill="white"/>
</g>
<defs>
<clipPath id="clip0_449_35338">
<rect width="256" height="32.5818" fill="white" transform="translate(0 125.156)"/>
</clipPath>
<clipPath id="clip1_449_35338">
<rect width="256" height="102.4" fill="white"/>
</clipPath>
</defs>
</svg>
