<svg width="579" height="400" viewBox="0 0 579 400" fill="none" xmlns="http://www.w3.org/2000/svg">
<path d="M146.883 380.614C233.024 344.888 163.5 397.647 111.043 376.843C87.9053 367.668 64.1585 353.136 68.8618 336.195C71.2576 327.557 80.741 320.469 89.8641 313.841C101.54 305.354 113.216 296.868 124.896 288.386C135.901 280.385 147.527 271.394 147.497 260.82C147.481 255.215 144.108 249.838 140.428 244.733C117.463 212.855 80.8445 185.451 57.9295 153.56C35.0145 121.668 28.4443 81.1211 63.7023 54.0375C77.0113 43.817 95.0504 36.4864 113.35 29.9953C132.122 23.3391 151.97 17.2839 173.344 15.5453C216.629 12.0314 260.113 26.5915 303.175 22.1373C324.998 19.8803 344.758 12.8984 365.691 8.41656C388.771 3.47601 413.216 1.5952 437.534 0.540118C473.332 -1.01499 512.891 -0.0516469 539.731 14.9214C557.23 24.6786 566.476 38.9819 572.651 53.1659C577.78 64.9554 581.18 77.5063 576.273 89.3278C565.893 114.356 521.455 129.921 513.742 155.33C508.586 172.317 521.263 189.157 531.785 205.135C545.907 226.585 556.766 249.361 556.042 272.569C555.317 295.776 541.759 319.593 513.723 334.704C502.426 340.791 489.071 345.365 478.814 352.14C471.155 357.2 465.501 363.301 458.708 368.829C440.842 383.362 414.718 393.793 386.195 397.784C360.973 401.312 334.746 399.908 309.006 398.482C247.141 395.059 237.194 382.761 175.33 379.339" fill="url(#paint0_linear_245_27374)"/>
<path d="M428.656 155.382L394.748 103.296L354.611 119.463L369.173 179.354C369.181 179.454 369.205 179.549 369.244 179.637C370.394 182.329 384.662 179.141 401.116 172.514C417.569 165.887 429.974 158.333 428.829 155.637C428.789 155.542 428.73 155.458 428.66 155.378L428.656 155.382Z" fill="#53AEE0"/>
<path d="M371.555 141.442L308.957 140.698L307.839 155.55L369.911 163.454C370.009 163.473 370.107 163.485 370.205 163.492C373.199 163.706 375.992 158.943 376.451 152.854C376.91 146.765 374.858 141.659 371.865 141.445C371.759 141.438 371.657 141.438 371.555 141.445V141.442Z" fill="#7BCBEF"/>
<path d="M309.302 140.607C311.546 140.767 313.111 144.271 312.798 148.438C312.484 152.602 310.408 155.851 308.168 155.691C305.924 155.531 304.359 152.027 304.673 147.859C304.987 143.695 307.062 140.446 309.302 140.607Z" fill="#EE3700"/>
<path d="M395.195 103.479C396.058 105.5 387.627 110.812 376.372 115.345C365.117 119.879 355.289 121.919 354.43 119.898C353.567 117.877 361.998 112.566 373.253 108.032C384.509 103.498 394.336 101.458 395.195 103.479Z" fill="#2B91BF"/>
<path d="M309.55 132.611C309.252 132.347 305.913 128.439 304.061 128.13C299.534 127.379 294.407 135.07 292.61 145.308C290.813 155.546 293.026 164.453 297.553 165.204C299.385 165.509 303.877 163.039 304.242 162.84C311.241 159.069 311.712 157.113 313.179 148.766C314.646 140.42 314.807 137.278 309.55 132.607V132.611Z" fill="#7BCBEF"/>
<path d="M302.551 128.466C306.434 128.962 308.474 137.59 307.101 147.737C305.728 157.883 301.468 165.708 297.58 165.208C293.696 164.713 291.656 156.084 293.029 145.937C294.402 135.791 298.663 127.966 302.551 128.466Z" fill="#2B91BF"/>
<path d="M78.4615 317.68C68.6223 319.529 58.6419 321.775 50.1169 326.896C41.5959 332.017 34.6559 340.539 34.0361 350.258C33.3534 361.003 40.5484 371.093 49.8227 376.976C59.097 382.86 70.1994 385.273 81.09 387.229C134.951 396.888 190.451 397.852 244.629 390.07C249.141 389.422 254.963 387.054 254.163 382.688C246.289 378.433 238.419 374.181 230.545 369.926C235.139 361.205 247.332 360.214 257.411 360.416C303.747 361.339 350.93 362.898 395.536 350.689C401.762 348.985 409.408 344.333 407.192 338.426C405.387 333.618 398.765 333.214 393.567 332.402C388.369 331.59 382.319 326.556 385.403 322.408C386.258 321.256 387.627 320.6 388.945 319.983C394.069 317.588 399.193 315.194 404.316 312.799C397.474 315.994 379.263 311.831 371.554 311.575C360.177 311.201 348.796 310.877 337.415 310.607C313.743 310.042 290.063 309.707 266.383 309.592C229.651 309.417 192.683 309.108 155.967 309.771C129.96 310.24 103.997 312.883 78.4615 317.68Z" fill="#C6774F"/>
<path d="M222.264 274.863L222.37 298.988L217.423 292.22C217.423 292.22 217.38 282.421 210.322 274.158C203.252 265.883 189.996 285.543 166.096 281.124C152.04 278.52 142.33 268.839 145.579 260.519C147.846 254.688 156.469 249.529 174.386 247.905C207.454 244.904 217.909 262.021 221.032 270.413C222.017 273.071 222.264 274.859 222.264 274.859V274.863Z" fill="#82CE32"/>
<path d="M222.354 297.31L222.248 273.178C222.248 273.178 226.328 242.239 269.89 245.831C313.453 249.423 302.323 274.36 278.463 278.981C254.602 283.603 241.173 264.049 234.186 272.373C227.199 280.697 227.242 290.5 227.242 290.5L222.354 297.307V297.31Z" fill="#6FB62A"/>
<path d="M214.206 259.749C209.294 254.521 185.708 255.093 165.504 261.171C155.728 264.111 149.278 262.135 145.575 260.523C147.842 254.692 156.465 249.533 174.382 247.909C207.45 244.908 218.588 264.416 214.206 259.749Z" fill="#6FB62A"/>
<path d="M224.092 268.717C225.803 267.382 232.566 259.047 238.365 256.187C245.744 252.542 259.283 253.106 279.538 259.02C289.338 261.884 295.772 259.855 299.459 258.208C297.141 252.397 288.475 247.306 270.542 245.831C237.451 243.101 227.144 260.301 224.092 268.72V268.717Z" fill="#68AA22"/>
<path d="M221.091 318.381C222.037 311.743 220.793 306.732 222.386 304.292L222.3 284.502L217.372 284.522L217.525 319.632C218.62 322.9 220.307 323.891 221.091 318.381Z" fill="#82CE32"/>
<path d="M222.299 284.502L222.386 304.292C223.241 302.893 224.759 302.286 227.305 302.675L227.227 284.483L222.299 284.502Z" fill="#6FB62A"/>
<path d="M222.385 304.292L222.26 330.694H217.571L217.524 319.632C218.623 322.896 220.306 323.887 221.091 318.378C222.036 311.739 220.796 306.729 222.389 304.292H222.385Z" fill="#C9D67F"/>
<path d="M227.423 330.693H222.26L222.385 304.292C223.237 302.889 224.755 302.286 227.301 302.675L227.423 330.693Z" fill="#B7C672"/>
<path d="M176.011 235.707C176.011 223.372 165.725 213.374 153.033 213.374C165.725 213.374 176.011 203.377 176.011 191.041C176.011 203.377 186.297 213.374 198.989 213.374C186.297 213.374 176.011 223.372 176.011 235.707Z" fill="#E5D141"/>
<path d="M172.479 343.65C172.479 336.352 166.391 330.434 158.882 330.434C166.391 330.434 172.479 324.516 172.479 317.218C172.479 324.516 178.568 330.434 186.077 330.434C178.568 330.434 172.479 336.352 172.479 343.65Z" fill="#E5D141"/>
<path d="M263.041 228.878C263.041 224.771 259.616 221.443 255.391 221.443C259.616 221.443 263.041 218.114 263.041 214.007C263.041 218.114 266.466 221.443 270.691 221.443C266.466 221.443 263.041 224.771 263.041 228.878Z" fill="#E5D141"/>
<path d="M270.659 165.982C269.22 169.296 266.611 173.151 262.931 173.536C259.667 173.879 255.677 171.279 255.442 168.095C255.206 164.911 256.061 161.685 258.333 159.378C264.119 153.51 274.437 149.598 281.342 149.308C275.799 153.087 272.899 160.827 270.663 165.978L270.659 165.982Z" fill="#4FBCFF"/>
<path d="M292.076 183.705C292.433 191.827 288.647 196.551 283.641 196.551C278.635 196.551 274.818 192.536 275.206 183.705C275.693 172.644 283.641 154.73 283.641 154.73C283.641 154.73 291.589 172.64 292.076 183.705Z" fill="#4FBCFF"/>
<path d="M282.884 144.782C281.868 137.469 266.728 127.658 262.382 137.751C260.695 141.8 265.238 145.701 271.138 144.397C274.39 143.676 278.772 142.883 282.884 144.786V144.782Z" fill="#4FBCFF"/>
<path d="M268.62 178.241C265.838 180.433 259.773 185.558 260.248 194.134C261.225 202.953 271.303 200.757 270.585 192.7C268.396 187.263 267.894 183.838 268.62 178.241Z" fill="#4FBCFF"/>
<path d="M258.031 148.763C254.359 147.779 245.54 147.321 243.013 153.716C241.22 158.646 248.749 160.606 250.459 157.323C252.166 154.044 254.567 149.186 258.035 148.759L258.031 148.763Z" fill="#4FBCFF"/>
<path d="M254.865 194.046C249.412 196.948 243.233 207.315 247.815 213.717C251.456 218.518 259.11 214.499 256.807 209.862C256.007 208.253 254.426 205.512 253.873 202.835C253.155 199.346 253.959 196.502 254.865 194.046Z" fill="#4FBCFF"/>
<path d="M252.692 174.947C246.905 175.103 233.676 179.446 233.123 188.651C233.143 197.539 244.28 196.883 245.603 190.676C247.301 182.985 249.816 177.848 252.692 174.947Z" fill="#4FBCFF"/>
<path d="M102.393 356.878C102.393 356.878 89.9765 357.343 97.5167 350.014C105.057 342.685 110.043 331.14 118.87 339.719C127.697 348.298 141.232 353.827 130.247 356.878C119.263 359.928 102.393 356.878 102.393 356.878Z" fill="#AFAFAF"/>
<path d="M146.332 349.252C152.182 349.252 156.925 347.715 156.925 345.82C156.925 343.924 152.182 342.388 146.332 342.388C140.482 342.388 135.74 343.924 135.74 345.82C135.74 347.715 140.482 349.252 146.332 349.252Z" fill="#AFAFAF"/>
<path d="M280.852 316.043C286.941 316.043 291.876 313.524 291.876 310.417C291.876 307.309 286.941 304.79 280.852 304.79C274.764 304.79 269.828 307.309 269.828 310.417C269.828 313.524 274.764 316.043 280.852 316.043Z" fill="#AFAFAF"/>
<path d="M325.89 230.739C322.787 235.208 318.056 238.418 312.693 239.795C311.159 240.188 311.626 242.525 313.179 242.155C319.37 240.679 324.223 237.061 327.33 231.646C327.863 230.72 326.514 229.839 325.89 230.739Z" fill="#D83D69"/>
<path d="M331.845 226.796C331.531 226.697 331.304 226.533 331.139 226.339C330.845 226.228 330.57 226.034 330.35 225.732C326.51 220.375 322.288 211.72 330.107 207.415C332.767 205.947 336.129 206.027 338.373 208.208C339.656 209.455 340.288 211.022 340.48 212.669C342.076 211.91 343.779 211.552 345.733 212.242C347.973 213.031 349.723 215.201 349.421 217.584C348.589 224.123 337.62 228.638 331.849 226.792L331.845 226.796Z" fill="#D83D69"/>
<path d="M345.528 218.125C346.287 218.125 346.901 217.528 346.901 216.791C346.901 216.054 346.287 215.456 345.528 215.456C344.77 215.456 344.155 216.054 344.155 216.791C344.155 217.528 344.77 218.125 345.528 218.125Z" fill="white"/>
<path d="M418.586 311.899C418.586 311.899 367.723 295.476 372.605 258.078C373.938 247.888 376.613 238.652 380.533 230.693C380.834 230.069 381.155 229.45 381.476 228.846C395.682 232.866 417.984 237.693 444.314 242.308C468.171 246.487 489.989 249.548 504.852 250.949C504.837 251.285 504.818 251.62 504.793 251.961C504.773 252.292 504.748 252.623 504.724 252.949C502.512 284.849 501.609 322.142 418.576 311.899H418.586Z" fill="#93C6A5"/>
<path d="M526.72 249.663C525.551 245.571 515.856 239.65 501.723 234.042C502.108 234.886 502.464 235.745 502.785 236.623C517.425 242.606 524.045 247.826 524.726 250.205C524.854 250.651 524.756 250.901 524.351 251.155C522.826 252.115 515.693 251.976 504.858 250.954C490 249.553 468.181 246.492 444.32 242.313C417.99 237.698 395.688 232.871 381.481 228.851C372.152 226.212 366.312 223.919 365.118 222.273C363.582 220.162 364.135 219.178 364.318 218.857C365.853 216.127 374.329 214.817 386.995 215.35C387.207 215.355 387.37 215.364 387.474 215.369C388.663 215.407 389.843 215.446 391.013 215.494C391.645 214.827 392.297 214.179 392.963 213.555C391.176 213.479 389.364 213.412 387.533 213.354C387.439 213.354 387.286 213.344 387.079 213.335C377.266 212.922 365.034 213.378 362.501 217.888C361.603 219.485 361.914 221.347 363.419 223.434C365.004 225.622 371.653 228.155 380.533 230.698C401.567 236.709 435.153 242.754 443.949 244.294C456.695 246.53 475.433 249.519 491.782 251.534C496.343 252.096 500.716 252.585 504.724 252.959C515.357 253.952 523.398 254.149 525.467 252.849C526.627 252.12 527.081 250.963 526.711 249.673L526.72 249.663Z" fill="#DCC596"/>
<path d="M504.856 250.949C489.998 249.548 468.18 246.487 444.318 242.308C417.988 237.693 395.686 232.866 381.48 228.846C384.146 223.813 387.329 219.327 391.007 215.484C391.639 214.817 392.29 214.17 392.957 213.546C403.807 203.317 418.531 198.303 436.47 200.515C464.917 204.027 492.546 214.083 501.722 234.037C502.107 234.881 502.462 235.74 502.783 236.618C504.358 240.946 505.108 245.71 504.856 250.949Z" fill="#93C6A5"/>
<path d="M415.63 281.971C418.915 281.971 421.578 279.52 421.578 276.497C421.578 273.473 418.915 271.023 415.63 271.023C412.345 271.023 409.682 273.473 409.682 276.497C409.682 279.52 412.345 281.971 415.63 281.971Z" fill="#373B36"/>
<path d="M388.629 268.278C391.584 268.278 393.98 266.072 393.98 263.351C393.98 260.63 391.584 258.424 388.629 258.424C385.673 258.424 383.278 260.63 383.278 263.351C383.278 266.072 385.673 268.278 388.629 268.278Z" fill="#373B36"/>
<path d="M423.098 277.245C422.693 277.245 422.313 277 422.17 276.607C420.763 272.764 414.385 273.383 414.321 273.388C413.773 273.445 413.294 273.061 413.235 272.539C413.176 272.011 413.566 271.541 414.109 271.483C414.434 271.449 422.1 270.691 424.031 275.964C424.213 276.463 423.947 277.01 423.433 277.188C423.325 277.226 423.211 277.245 423.103 277.245H423.098Z" fill="#373B36"/>
<path d="M395.949 264.771C395.544 264.771 395.164 264.526 395.021 264.133C393.614 260.29 387.236 260.909 387.172 260.914C386.624 260.967 386.145 260.587 386.086 260.065C386.027 259.537 386.417 259.067 386.96 259.009C387.286 258.975 394.952 258.217 396.882 263.49C397.064 263.989 396.798 264.536 396.284 264.714C396.176 264.752 396.062 264.771 395.954 264.771H395.949Z" fill="#373B36"/>
<path d="M399.898 289C399.518 289 399.192 288.717 399.162 288.338C398.985 286.279 398.155 283.242 396.941 283.242C395.475 283.242 394.828 285.968 394.715 286.922C394.67 287.316 394.3 287.594 393.895 287.556C393.491 287.512 393.194 287.157 393.244 286.759C393.268 286.558 393.846 281.803 396.941 281.803C400.036 281.803 400.584 287.565 400.643 288.222C400.678 288.621 400.377 288.966 399.967 289C399.947 289 399.927 289 399.903 289H399.898Z" fill="#373B36"/>
<path d="M435.859 166.226C435.62 166.226 435.384 166.123 435.231 165.921C434.969 165.586 435.039 165.105 435.384 164.854C438.492 162.577 440.21 160.011 440.488 157.228C440.912 152.999 437.84 149.609 437.809 149.575C437.519 149.262 437.546 148.778 437.868 148.5C438.189 148.217 438.684 148.244 438.974 148.557C439.119 148.713 442.536 152.457 442.05 157.361C441.732 160.591 439.806 163.523 436.326 166.074C436.185 166.177 436.02 166.226 435.855 166.226H435.859Z" fill="#373B36"/>
<path d="M432.72 161.651C432.469 161.651 432.222 161.532 432.069 161.315C431.826 160.968 431.92 160.491 432.277 160.255C434.132 159.031 435.145 157.67 435.294 156.209C435.509 154.047 433.752 152.29 433.732 152.271C433.426 151.973 433.43 151.489 433.732 151.191C434.038 150.894 434.533 150.894 434.839 151.191C434.933 151.283 437.13 153.456 436.851 156.339C436.663 158.276 435.419 160.019 433.156 161.513C433.022 161.601 432.865 161.647 432.716 161.647L432.72 161.651Z" fill="#373B36"/>
<path d="M58.601 274.222C58.601 274.222 6.77263 282.713 6.77263 265.295C6.77263 247.877 26.4589 238.189 20.8723 231.55C15.2858 224.912 -10.901 230.57 5.12099 211.52C21.147 192.47 146.318 147.294 146.318 198.457C146.318 249.62 107.495 220.446 117.201 240.694C126.907 260.941 101.634 267.473 85.8863 269.65C70.1389 271.827 58.5971 274.222 58.5971 274.222H58.601Z" fill="#3C8F7C"/>
<path d="M38.6102 229.169C38.6809 228.57 39.5753 228.178 39.9794 228.746C40.3835 229.314 40.3953 228.955 40.7327 230.137C41.6977 233.535 43.267 236.871 45.1736 239.834C48.8261 245.512 52.6707 248.543 57.0685 251.597C55.5307 247.254 54.648 242.679 54.8834 238.16C54.9697 236.513 55.1541 234.812 56.0093 233.367C56.2486 232.963 57.0175 233.115 57.0528 233.588C57.2372 235.945 56.5075 237.649 56.9116 241.874C57.8767 251.956 64.2557 263.097 70.6504 271.063C70.4072 258.468 71.0113 244.227 74.5461 231.838C75.1267 229.806 75.9309 227.895 76.6959 225.928C76.8764 225.467 77.5512 225.726 77.4256 226.191C77.2452 226.851 75.3228 235.419 75.2012 236.01C73.2318 245.504 72.5139 256.146 72.5217 265.904C78.63 259.162 83.0396 251.048 85.5347 242.396C86.2723 239.838 86.645 237.165 87.5826 234.675C87.7121 234.332 88.3123 234.343 88.3515 234.74C88.7399 238.625 86.6803 245.264 85.2915 248.848C82.4747 256.112 78.4339 262.499 73.1926 268.066C72.9886 268.283 75.57 327.19 75.2993 327.911C74.8364 329.128 72.5296 329.814 72.3805 327.576C72.3177 326.664 71.2036 290.883 70.7367 274.315C70.0462 273.865 69.6382 273.133 67.9513 270.937C64.0439 265.85 60.2894 259.612 57.9238 253.824C56.2172 253.584 44.3498 246.69 39.387 232.833C39.2458 232.433 38.6063 230.561 38.5279 230.149C38.4612 229.794 38.571 229.505 38.6102 229.165V229.169Z" fill="#9B5407"/>
<path d="M73.6236 330.763C73.4745 330.763 73.3255 330.752 73.1803 330.733C72.0269 330.569 70.748 329.684 70.6146 327.694C70.5479 326.687 69.4573 291.596 68.9904 275.12C68.5942 274.719 68.2136 274.205 67.6605 273.461C67.3584 273.057 66.9935 272.565 66.5345 271.963C62.5016 266.708 58.9001 260.63 56.5776 255.166C52.7997 253.546 42.4269 246.545 37.7231 233.401C37.7153 233.379 36.9189 231.11 36.7972 230.465C36.6913 229.905 36.7776 229.451 36.8326 229.15C36.8443 229.093 36.8561 229.032 36.8639 228.971C36.9856 227.945 37.7819 227.083 38.8412 226.828C39.8377 226.588 40.8577 226.957 41.4383 227.773C41.4775 227.831 41.4893 227.838 41.5325 227.884C41.9993 228.353 42.1758 228.765 42.4387 229.68C43.3292 232.803 44.7926 235.998 46.6717 238.927C48.9942 242.537 51.4344 245.043 53.9413 247.109C53.2469 243.986 52.9723 240.963 53.1214 238.076C53.2194 236.215 53.4509 234.256 54.4788 232.517C54.977 231.674 55.9931 231.262 57.0053 231.484C58.0096 231.705 58.7354 232.502 58.8099 233.466C58.8962 234.587 58.8099 235.556 58.7118 236.578C58.5863 237.905 58.445 239.411 58.6687 241.725C59.3434 248.776 63.0704 257.488 68.8413 265.747C68.8806 251.937 70.1987 240.658 72.8468 231.388C73.3411 229.653 73.9924 228.006 74.6201 226.412C74.7613 226.05 74.9065 225.692 75.0477 225.325C75.4596 224.269 76.5973 223.732 77.6958 224.075C78.8021 224.422 79.4338 225.547 79.1317 226.637C78.9748 227.213 77.076 235.655 76.9308 236.353C75.4557 243.472 74.573 251.902 74.3455 260.97C78.5942 255.345 81.8426 248.848 83.8355 241.939C84.1101 240.982 84.3337 240.013 84.5652 238.988C84.934 237.378 85.3145 235.716 85.9226 234.092C86.2718 233.165 87.229 232.608 88.2529 232.738C89.2494 232.86 90.0105 233.619 90.1086 234.58C90.6304 239.765 87.3232 248.482 86.9426 249.458C84.1611 256.638 80.1242 263.12 74.9457 268.741C74.9928 271.414 75.44 282.792 75.8794 293.827C77.2211 327.801 77.1701 327.938 76.9504 328.514C76.4443 329.841 75.0399 330.763 73.6236 330.763Z" fill="#56300A"/>
<path d="M108.825 302.177C106.717 302.588 93.6108 304.543 95.7408 299.22C97.8708 293.896 87.8293 291.53 90.8722 286.502C93.9151 281.475 110.347 269.053 119.475 274.377C128.604 279.7 131.343 275.855 132.256 285.319C133.169 294.783 140.776 299.22 128.604 301.29C116.433 303.36 110.347 301.882 108.825 302.177Z" fill="#50BFA5"/>
<path d="M104.3 286.816C104.321 286.627 104.607 286.5 104.735 286.683C104.863 286.863 104.866 286.748 104.975 287.127C105.283 288.206 105.782 289.268 106.387 290.211C107.549 292.018 108.773 292.982 110.172 293.953C109.683 292.571 109.403 291.116 109.479 289.679C109.506 289.155 109.564 288.614 109.838 288.156C109.914 288.029 110.157 288.076 110.169 288.227C110.227 288.978 109.996 289.519 110.124 290.862C110.431 294.068 112.461 297.614 114.493 300.149C114.414 296.141 114.609 291.61 115.732 287.671C115.917 287.023 116.173 286.417 116.417 285.79C116.474 285.642 116.687 285.725 116.648 285.873C116.59 286.083 115.978 288.809 115.939 288.996C115.312 292.015 115.084 295.402 115.087 298.507C117.031 296.363 118.434 293.781 119.225 291.031C119.459 290.217 119.578 289.365 119.876 288.573C119.916 288.463 120.108 288.466 120.12 288.594C120.244 289.83 119.587 291.941 119.146 293.08C118.251 295.39 116.964 297.422 115.297 299.193C115.233 299.261 116.054 318.003 115.966 318.231C115.82 318.618 115.084 318.834 115.038 318.124C115.02 317.834 114.664 306.451 114.515 301.181C114.296 301.039 114.165 300.805 113.629 300.107C112.388 298.489 111.192 296.505 110.44 294.662C109.899 294.585 106.122 292.394 104.543 287.984C104.497 287.857 104.294 287.263 104.269 287.13C104.248 287.017 104.284 286.926 104.297 286.816H104.3Z" fill="#9B5407"/>
<path d="M115.434 319.032C115.394 319.032 115.352 319.032 115.312 319.023C114.986 318.976 114.624 318.725 114.585 318.151C114.563 317.84 114.21 306.46 114.067 301.391C113.937 301.263 113.812 301.098 113.626 300.846C113.532 300.716 113.413 300.56 113.267 300.367C111.983 298.693 110.836 296.753 110.099 295.014C108.91 294.544 105.562 292.166 104.117 288.126C104.117 288.12 103.865 287.402 103.825 287.206C103.795 287.047 103.819 286.92 103.837 286.825C103.84 286.804 103.846 286.783 103.849 286.76C103.883 286.476 104.105 286.236 104.4 286.165C104.674 286.1 104.954 286.201 105.115 286.426C105.133 286.449 105.146 286.464 105.155 286.473C105.289 286.609 105.337 286.721 105.416 286.999C105.702 288.002 106.171 289.028 106.777 289.969C107.598 291.243 108.462 292.089 109.351 292.787C109.08 291.699 108.971 290.646 109.025 289.646C109.056 289.067 109.129 288.457 109.445 287.922C109.579 287.694 109.859 287.579 110.136 287.641C110.41 287.703 110.608 287.919 110.629 288.179C110.656 288.528 110.629 288.83 110.598 289.152C110.559 289.578 110.513 290.063 110.583 290.809C110.808 293.145 112.074 296.049 114.028 298.77C114.022 294.236 114.439 290.551 115.3 287.541C115.455 286.993 115.662 286.473 115.86 285.97L115.997 285.621C116.106 285.337 116.413 285.192 116.709 285.284C117.007 285.379 117.177 285.68 117.095 285.976C117.043 286.162 116.441 288.851 116.395 289.073C115.908 291.427 115.622 294.227 115.565 297.241C117.022 295.384 118.13 293.213 118.796 290.897C118.884 290.59 118.954 290.279 119.03 289.954C119.146 289.445 119.268 288.919 119.459 288.41C119.554 288.162 119.812 288.011 120.089 288.046C120.357 288.079 120.561 288.283 120.588 288.54C120.753 290.167 119.709 292.92 119.587 293.228C118.702 295.511 117.415 297.575 115.765 299.359C115.774 300.137 115.921 303.819 116.064 307.388C116.49 318.169 116.471 318.219 116.41 318.376C116.267 318.754 115.851 319.026 115.446 319.026L115.434 319.032ZM115.23 309.772C115.361 314.034 115.485 317.917 115.495 318.095C115.495 318.103 115.495 318.112 115.495 318.118C115.504 318.112 115.51 318.106 115.516 318.101C115.522 317.456 115.376 313.593 115.227 309.769L115.23 309.772Z" fill="#7A2D1F"/>
<defs>
<linearGradient id="paint0_linear_245_27374" x1="308.828" y1="0" x2="308.828" y2="400" gradientUnits="userSpaceOnUse">
<stop stop-color="#8CFAE6"/>
<stop offset="1" stop-color="#FAEB8C" stop-opacity="0"/>
</linearGradient>
</defs>
</svg>
