<svg width="590" height="441" viewBox="0 0 590 441" fill="none" xmlns="http://www.w3.org/2000/svg">
<path d="M82.015 286.582C96.1175 280.95 111.434 273.758 118.005 258.519C126.688 238.386 115.912 214.429 102.941 197.531C89.9647 180.634 73.8177 164.866 69.5491 142.981C63.4351 111.633 84.2975 81.7949 106.762 62.274C155.791 19.6665 218.538 0.2393 280.285 0.00231595C342.032 -0.234668 402.983 17.7375 460.267 43.8885C499.743 61.9103 539.705 85.7134 562.631 126.397C580.041 157.288 585.747 194.721 588.675 231.238C592.094 273.873 590.535 321.915 563.884 352.21C545.999 372.541 519.508 381.277 502.725 402.793C495.994 411.418 490.876 422.038 482.3 428.21C473.33 434.664 462.122 435.144 451.506 435.43C389.716 437.1 327.925 438.77 266.134 440.44C208.889 441.989 145.413 443.041 96.3021 404.33C53.3001 370.436 11.1092 314.91 82.015 286.582Z" fill="url(#paint0_linear_337_20761)"/>
<path d="M260.912 211.741L261.088 212.93C264.507 236.038 273.485 258.1 285.003 278.511C296.158 298.269 309.679 316.596 323.465 334.711C346.795 322.035 369.582 308.376 391.765 293.774C406.117 284.325 420.287 274.386 431.15 261.279C442.009 248.179 449.29 231.45 447.801 214.678L448.798 214.59L447.801 214.678C445.822 192.358 426.977 172.757 404.796 169.377C382.844 166.036 359.531 178.488 349.542 198.33L348.316 200.764L347.677 198.115C343.679 181.555 333.438 166.076 318.334 158.51L318.334 158.51C303.151 150.902 282.998 152.823 271.386 164.994L260.912 211.741ZM260.912 211.741C258.634 195.085 260.096 176.839 271.386 164.995L260.912 211.741Z" fill="#F98797" stroke="white" stroke-width="2"/>
<path d="M495.366 236.83C494.672 241.139 495.025 245.563 495.92 249.832C496.798 254.013 498.19 258.074 499.628 262.094C504.52 261.152 509.372 260.003 514.166 258.651C517.233 257.785 520.317 256.815 522.998 255.093C525.678 253.366 527.942 250.785 528.635 247.671C529.553 243.53 527.277 238.921 523.471 237.044C519.705 235.184 514.796 236.096 511.867 239.1C512.093 235.906 511.14 232.538 508.847 230.309C506.542 228.068 502.782 227.248 499.963 228.796C497.162 230.332 495.868 233.671 495.36 236.824L495.366 236.83Z" fill="#F98797"/>
<path d="M463.043 86.4654C461.316 88.9664 459.006 91.0226 456.499 92.7381C454.045 94.4189 451.388 95.7878 448.725 97.122C446.715 94.2918 444.832 91.375 443.07 88.383C441.944 86.4712 440.858 84.4958 440.344 82.3356C439.824 80.1755 439.934 77.7842 441.083 75.8897C442.614 73.3599 445.981 72.1412 448.8 73.0307C451.59 73.9086 453.617 76.733 453.646 79.6556C455.073 77.9402 457.175 76.7041 459.405 76.6868C461.646 76.6695 463.927 78.0672 464.603 80.2043C465.273 82.3299 464.314 84.6287 463.049 86.4597L463.043 86.4654Z" fill="#F98797"/>
<path d="M501.111 167.248C498.864 169.72 496.15 171.695 493.319 173.307C490.547 174.883 487.653 176.131 484.759 177.332C483.454 174.277 482.287 171.141 481.265 167.935C480.607 165.884 480.006 163.77 480 161.506C479.989 159.242 480.641 156.776 482.195 154.887C484.263 152.375 487.809 151.335 490.345 152.438C492.852 153.53 494.18 156.579 493.539 159.6C495.318 157.919 497.64 156.782 499.812 156.909C501.989 157.036 503.889 158.63 504.057 160.883C504.219 163.124 502.763 165.434 501.117 167.248H501.111Z" fill="#F98797"/>
<path d="M523.714 75.6934C522.443 77.0912 520.907 78.2059 519.307 79.1185C517.741 80.008 516.107 80.7127 514.466 81.3942C513.727 79.6672 513.069 77.894 512.491 76.0804C512.121 74.9194 511.781 73.7296 511.775 72.4473C511.775 71.1651 512.139 69.7731 513.017 68.7045C514.183 67.2837 516.193 66.6945 517.626 67.3183C519.047 67.9363 519.792 69.6576 519.428 71.3672C520.433 70.42 521.75 69.7731 522.974 69.8482C524.205 69.9233 525.279 70.8185 525.371 72.095C525.464 73.3599 524.638 74.6711 523.708 75.6934H523.714Z" fill="#F98797"/>
<path d="M331.324 402.5C328.985 401.484 326.039 400.554 322.602 399.734C320.442 400.398 318.259 401.016 316.058 401.576C305.402 404.274 294.329 405.677 283.528 405.458C283.528 405.458 283.494 405.458 283.424 405.458C283.401 405.458 283.372 405.452 283.338 405.452C283.28 405.452 283.211 405.446 283.124 405.44C283.06 405.44 282.991 405.435 282.91 405.429C282.87 405.429 282.829 405.429 282.789 405.429C282.512 405.417 282.154 405.394 281.726 405.365C281.605 405.359 281.478 405.354 281.345 405.342C280.352 405.279 279.035 405.175 277.446 405.024C277.163 404.996 276.863 404.967 276.557 404.938C275.032 404.782 273.288 404.591 271.364 404.337C270.769 404.262 270.157 404.181 269.528 404.089C269.008 404.019 268.471 403.939 267.928 403.858C267.673 403.823 267.414 403.783 267.154 403.742C263.301 403.153 258.958 402.368 254.325 401.316C253.898 401.218 253.47 401.126 253.037 401.022C251.582 400.681 250.097 400.311 248.59 399.919C245.35 400.716 242.571 401.622 240.359 402.61C217.573 384.11 120.544 399.058 116.564 396.216C112.521 393.328 130.426 394.483 130.426 375.423C130.426 356.362 81.9085 354.052 69.7791 328.06C57.6497 302.069 230.349 184.24 175.478 109.731C120.607 35.2215 52.4513 96.4347 12.0199 143.797C-28.4115 191.16 44.9426 202.134 59.3824 229.281C73.8222 256.428 9.13197 322.851 7.97679 345.377C6.82161 367.903 62.2704 360.394 83.0637 372.523C103.857 384.653 78.4429 386.386 72.667 408.334C66.8911 430.283 108.478 423.351 140.823 407.756C167.04 395.119 216.395 404.106 234.473 407.964C234.462 408.051 234.456 408.138 234.456 408.224C234.456 414.895 257.514 420.302 285.948 420.302C305.916 420.302 323.226 417.639 331.769 413.74C334.94 412.291 336.904 410.673 337.343 408.964C337.406 408.715 337.441 408.473 337.441 408.224C337.441 406.157 335.229 404.21 331.324 402.5ZM90.9131 219.618C96.0826 200.725 101.772 172.463 98.2312 168.766L98.2428 168.755C98.2428 168.755 98.2312 168.743 98.2254 168.732C97.5092 167.79 97.8269 167.115 98.2543 166.704C98.8204 166.162 99.7445 166.196 100.299 166.751C100.299 166.751 100.299 166.756 100.311 166.768H100.316C100.316 166.768 100.322 166.774 100.322 166.78C100.686 167.161 104.746 171.4 106.491 173.22L115.64 167.848C116.148 167.548 116.783 167.588 117.251 167.946L125.938 174.594L135.22 168.541C135.549 168.327 135.948 168.258 136.329 168.345C136.71 168.431 137.04 168.668 137.242 169.003L140.742 174.739L147.043 168.709C147.5 168.275 148.176 168.183 148.73 168.483C149.279 168.778 149.579 169.396 149.464 170.014C149.44 170.141 147.043 183.096 143.907 196.445C138.12 221.056 134.943 225.734 133.06 227.115C131.726 228.091 130.576 228.414 129.641 228.414C128.971 228.414 128.41 228.247 127.966 228.039C125.684 226.947 124.644 223.742 124.171 221.218L119.949 225.625C119.66 225.925 119.256 226.087 118.828 226.064C118.406 226.04 118.02 225.838 117.76 225.503L111.146 216.868L104.076 223.678C103.689 224.048 103.135 224.181 102.632 224.013C102.124 223.851 101.749 223.424 101.651 222.898L99.7214 212.317L93.4719 220.848C93.056 221.414 92.3051 221.599 91.6756 221.298C91.0518 220.992 90.7283 220.288 90.9131 219.618Z" fill="#5A6066"/>
<path opacity="0.6" d="M279.676 405.146C281.605 405.325 282.881 405.417 283.338 405.446C281.495 405.365 266.409 404.591 248.59 399.907C257.976 397.585 271.243 396.135 285.948 396.135C296.882 396.135 307.025 396.932 315.359 398.301C303.946 402.194 291.742 404.62 279.676 405.146Z" fill="#6A6C6F"/>
<path d="M380.91 353.96C377.641 363.467 370.56 372.35 361.041 379.974C360.521 380.402 359.984 380.818 359.441 381.234C354.364 385.121 348.658 388.656 342.506 391.751C338.527 393.756 334.362 395.575 330.071 397.181C329.874 396.343 329.672 395.5 329.482 394.663C329.326 394.027 329.175 393.386 329.031 392.751C324.653 394.83 320.073 396.69 315.36 398.301C303.946 402.194 291.742 404.62 279.676 405.146C281.605 405.325 282.882 405.417 283.338 405.446C281.495 405.365 266.409 404.591 248.59 399.907C224.782 393.652 196.11 380.425 187.683 352.591C175.883 313.626 187.931 253.557 248.821 239.724C238.164 228.588 226.087 213.703 233.89 210.342C245.904 205.172 256.364 226.335 257.647 229.032C256.283 225.96 244.57 198.744 255.007 194.591C266.074 190.195 266.386 231.799 266.386 231.799C266.386 231.799 275.021 204.82 284.84 205.016C290.847 205.137 284.17 222.95 276.089 236.72C276.21 236.72 276.337 236.714 276.459 236.714H276.493C278.371 236.691 280.288 236.703 282.246 236.738C326.253 237.633 352.603 257.479 367.291 281.056C369.231 284.169 370.964 287.34 372.506 290.546C377.503 300.891 380.523 311.553 382.042 321.343C382.106 321.753 382.164 322.157 382.222 322.568C382.291 323.035 382.354 323.509 382.418 323.971C384.035 336.453 383.198 347.3 380.91 353.96Z" fill="#B91B45"/>
<path d="M380.91 353.96C377.641 363.467 370.56 372.35 361.041 379.974C360.521 380.402 359.984 380.818 359.441 381.234C354.364 385.121 348.657 388.656 342.506 391.752C338.526 393.756 334.362 395.575 330.071 397.181C329.874 396.343 329.672 395.5 329.481 394.663C329.325 394.027 329.175 393.386 329.031 392.751C332.762 390.978 336.349 389.048 339.745 386.969C346.457 382.874 352.435 378.224 357.362 373.17C363.207 367.181 367.574 360.619 369.936 353.734C371.888 348.057 372.783 339.341 372.009 329.158C371.975 328.771 371.946 328.378 371.911 327.985C371.871 327.558 371.83 327.131 371.784 326.697C371.039 319.264 369.405 311.154 366.661 302.941C365.835 300.475 364.911 297.997 363.883 295.525C352.007 267.078 326.033 239.493 276.493 236.714C278.37 236.691 280.288 236.703 282.246 236.738C326.253 237.633 352.602 257.479 367.291 281.056C369.231 284.169 370.964 287.34 372.506 290.546C377.502 300.891 380.523 311.553 382.042 321.343C382.106 321.753 382.164 322.158 382.221 322.568C382.291 323.035 382.354 323.509 382.418 323.971C384.035 336.453 383.197 347.3 380.91 353.96Z" fill="#A31641"/>
<path d="M280.502 236.795C280.375 236.795 280.254 236.795 280.132 236.795C280.138 236.795 280.138 236.778 280.144 236.772C280.265 236.772 280.381 236.784 280.502 236.79V236.795Z" fill="#F3F3F3"/>
<path d="M284.643 352.308C272.133 352.308 271.364 338.064 271.359 337.92C271.33 337.285 271.826 336.742 272.462 336.718C273.086 336.701 273.64 337.186 273.663 337.822C273.686 338.318 274.345 350.003 284.637 350.003C294.93 350.003 295.589 338.318 295.612 337.822C295.641 337.186 296.201 336.701 296.813 336.718C297.448 336.747 297.945 337.285 297.916 337.92C297.91 338.064 297.148 352.308 284.632 352.308H284.643Z" fill="#30302D"/>
<path d="M223.996 352.308C211.485 352.308 210.717 338.064 210.711 337.92C210.682 337.285 211.179 336.742 211.814 336.718C212.432 336.701 212.993 337.186 213.016 337.822C213.039 338.318 213.697 350.003 223.99 350.003C234.283 350.003 234.941 338.318 234.964 337.822C234.993 337.186 235.559 336.701 236.166 336.718C236.801 336.747 237.298 337.285 237.269 337.92C237.263 338.064 236.501 352.308 223.984 352.308H223.996Z" fill="#30302D"/>
<path d="M267.31 384.942C266.553 384.942 265.918 384.352 265.871 383.59C265.86 383.423 264.647 367.036 253.453 367.036C250.398 367.036 247.954 367.966 246.187 369.797C242.577 373.546 242.768 379.911 242.768 379.974C242.797 380.771 242.179 381.441 241.381 381.47C240.584 381.493 239.914 380.881 239.886 380.084C239.874 379.772 239.631 372.448 244.096 367.804C246.43 365.373 249.578 364.143 253.459 364.143C264.583 364.143 268.332 376.74 268.765 383.399C268.817 384.197 268.211 384.884 267.419 384.936C267.39 384.936 267.356 384.936 267.327 384.936L267.31 384.942Z" fill="#30302D"/>
<path d="M288.074 358.084C288.074 358.084 281.276 366.909 285.053 371.478C288.831 376.047 292.608 372.084 292.608 372.084C292.608 372.084 295.126 367.215 290.592 362.341L288.074 358.078V358.084Z" fill="#72D3CC"/>
<path d="M109.396 145.894C107.969 142.399 106.323 138.945 104.071 135.896C102.892 134.296 101.697 132.638 100.189 131.327C99.8889 131.067 99.5886 130.801 99.242 130.599C98.9706 130.449 98.6818 130.322 98.3814 130.224L98.7049 130.368C98.7222 130.339 97.7056 129.727 97.619 129.675C96.7584 129.144 95.9151 128.693 94.9736 128.318C94.2863 128.046 93.391 128.451 92.9809 128.999C92.4958 129.652 92.4958 130.385 92.8308 131.102C93.3968 132.32 94.1939 133.412 94.7368 134.637L94.321 133.1C94.4134 133.886 94.5058 134.515 94.9332 135.208C95.1007 135.48 95.2913 135.74 95.4646 136.005C95.7823 136.491 96.1404 136.935 96.4985 137.392C96.77 137.738 96.4985 137.449 96.4061 137.27C96.4754 137.409 96.6082 137.536 96.7006 137.657C97.5555 138.795 98.3179 139.991 99.1207 141.163C100.703 143.479 102.084 145.923 103.262 148.464C103.961 149.972 106.04 150.428 107.444 149.833C108.847 149.238 110.014 147.43 109.385 145.882L109.396 145.894Z" fill="white"/>
<path d="M143.046 144.999C143.202 144.86 143.376 144.733 143.52 144.583C143.659 144.467 143.647 144.473 143.48 144.6C143.121 144.866 143.3 144.733 144.011 144.184C144.404 143.757 144.71 143.237 145.016 142.746C145.455 142.047 145.888 141.337 146.292 140.615C147.205 138.986 147.846 137.155 148.487 135.405C149.042 133.886 149.417 132.315 149.752 130.732C149.908 129.987 150.035 129.271 149.931 128.508C149.839 128.017 149.839 127.931 149.931 128.254C149.983 128.52 150.012 128.497 150.018 128.179C150.058 128.017 150.058 127.833 150.076 127.671C150.122 127.255 150.197 126.81 150.18 126.394C150.139 125.488 149.741 124.829 149.151 124.159C148.401 123.298 147.136 123.327 146.2 123.778C144.987 124.361 144.635 125.441 144.196 126.62C144.121 126.828 144.04 127.03 143.965 127.238C143.936 127.318 143.901 127.399 143.872 127.486C143.815 127.659 143.809 127.648 143.861 127.451C143.93 127.22 143.895 127.238 143.763 127.509L143.422 128.312C143.358 128.474 143.312 128.647 143.254 128.809C142.729 130.345 142.116 131.841 141.562 133.366C141.29 134.105 141.007 134.839 140.713 135.567C140.678 135.659 140.447 136.208 140.644 135.74C140.857 135.226 140.563 135.925 140.516 136.029C140.268 136.595 140.014 137.155 139.8 137.738C139.535 138.466 139.269 139.2 138.98 139.922C138.841 140.274 138.634 140.632 138.535 140.996L138.42 141.868L138.495 141.51C138.443 141.545 138.385 142.203 138.374 142.267C138.171 143.468 138.495 144.82 139.662 145.438C140.828 146.056 142.088 145.853 143.064 144.999H143.046Z" fill="white"/>
<path d="M149.464 170.014C149.44 170.141 147.043 183.096 143.907 196.445C138.12 221.056 134.943 225.734 133.06 227.115C131.726 228.091 130.576 228.414 129.641 228.414C128.971 228.414 128.41 228.247 127.966 228.039C125.684 226.947 124.644 223.742 124.171 221.217L119.949 225.625C119.66 225.925 119.255 226.087 118.828 226.063C118.406 226.04 118.019 225.838 117.76 225.503L111.146 216.868L104.076 223.678C103.689 224.048 103.135 224.181 102.632 224.013C102.124 223.851 101.749 223.424 101.65 222.898L99.7213 212.317L93.4718 220.848C93.0559 221.414 92.3051 221.599 91.6755 221.298C91.0517 220.992 90.7282 220.288 90.9131 219.618C96.0825 200.725 101.772 172.463 98.2312 168.766L98.2427 168.755C98.2427 168.755 98.2311 168.743 98.2254 168.732C97.5092 167.79 97.8268 167.115 98.2543 166.704C98.8203 166.161 99.7444 166.196 100.299 166.751C100.299 166.751 100.299 166.756 100.31 166.768H100.316C100.316 166.768 100.322 166.774 100.322 166.78C100.686 167.161 104.746 171.4 106.491 173.22L115.64 167.848C116.148 167.548 116.783 167.588 117.251 167.946L125.938 174.594L135.22 168.541C135.549 168.327 135.948 168.258 136.329 168.345C136.71 168.431 137.04 168.668 137.242 169.003L140.742 174.739L147.043 168.709C147.5 168.275 148.175 168.183 148.73 168.483C149.279 168.778 149.579 169.396 149.464 170.014Z" fill="white"/>
<path d="M330.071 397.181C327.622 398.105 325.126 398.954 322.602 399.734C320.442 400.398 318.259 401.016 316.058 401.576C305.402 404.274 294.329 405.677 283.528 405.458C283.528 405.458 283.494 405.458 283.424 405.458C283.401 405.458 283.372 405.452 283.338 405.452C282.881 405.423 281.605 405.331 279.676 405.152C291.742 404.626 303.946 402.2 315.359 398.307C320.073 396.696 324.653 394.836 329.031 392.757C329.175 393.392 329.326 394.033 329.481 394.668C329.672 395.506 329.874 396.349 330.071 397.187V397.181Z" fill="#A31641"/>
<path d="M465.868 403.887C465.868 412.591 432.148 419.649 390.562 419.649C366.777 419.649 345.567 417.339 331.769 413.74C321.436 411.043 315.255 407.618 315.255 403.887C315.255 403.101 315.527 402.333 316.058 401.576C318.259 401.016 320.442 400.398 322.602 399.734C325.126 398.954 327.622 398.105 330.071 397.181C329.874 396.343 329.672 395.5 329.481 394.662C333.218 393.577 337.597 392.601 342.506 391.751C348.548 390.7 355.392 389.84 362.814 389.227C371.403 388.511 380.766 388.118 390.562 388.118C397.435 388.118 404.095 388.309 410.419 388.673C436.965 390.186 457.672 394.668 463.922 400.306C465.192 401.461 465.868 402.656 465.868 403.887Z" fill="#5A6066"/>
<path d="M374.181 205.507C374.181 204.063 373.99 198.986 379.293 198.31C383.105 197.819 388.118 204.15 388.309 204.86V204.889C385.421 209.469 374.181 206.951 374.181 205.501V205.507Z" fill="#EDEDED"/>
<path d="M383.769 207.2C377.866 207.875 375.262 206.431 375.262 206.431C375.262 206.431 374.915 201.297 377.612 200.863C383.331 199.91 383.769 207.165 383.769 207.165V207.194V207.2Z" fill="#DBB9C6"/>
<path d="M396.268 413.752C327.523 396.91 367.279 302 368.515 297.806C369.751 293.613 364.385 253.037 355.687 240.128C346.988 227.219 363.975 222.436 363.975 222.436C362.323 214.015 373.499 196.797 408.299 201.401C445.641 206.327 495.556 342.46 473.74 387.76C457.164 422.202 396.297 413.787 396.297 413.787L396.262 413.758L396.268 413.752Z" fill="#EDEDED"/>
<path d="M351.378 229.31C351.846 227.525 356.247 226.358 357.183 230.471C358.119 234.583 353.867 233.942 353.867 233.942C350.512 233.081 350.87 231.158 351.378 229.315V229.31Z" fill="#5E5E5E"/>
<path d="M388.615 319.963C388.702 319.922 387.368 317.976 387.414 317.935C385.756 319.102 384.006 320.176 382.233 321.233C374.73 325.687 366.528 329.574 357.847 331.203C353.33 332.034 348.519 332.265 344.014 330.891C341.859 330.261 339.832 329.233 338.047 327.881C337.083 327.136 336.141 326.282 335.333 325.34C334.928 324.849 334.541 324.375 334.16 323.861C333.507 322.943 333.686 323.255 333.253 322.389C332.936 321.719 332.346 320.916 332.092 320.402C334.599 325.259 337.787 329.747 342.928 332.063C352.406 336.326 363.663 332.797 372.414 328.979C378.097 326.53 383.66 323.526 388.708 319.963H388.621H388.615Z" fill="#A0A0A0"/>
<path d="M388.136 318.698C388.136 318.698 364.512 336.17 346.867 332.439C329.221 328.707 311.212 308.994 335.673 308.203C343.459 308.636 380.269 285.879 380.269 285.879L388.13 318.703L388.136 318.698Z" fill="#EDEDED"/>
<path d="M388.136 318.698C388.136 318.698 364.512 336.17 346.867 332.439C329.221 328.707 310.923 308.705 335.673 308.203C343.459 308.636 380.269 285.879 380.269 285.879" stroke="#A0A0A0" stroke-linecap="round" stroke-linejoin="round"/>
<path d="M408.79 206.177C403.425 209.989 392.058 202.273 392.756 200.644C393.455 199.015 397.458 192.65 402.09 193.817C412.92 196.554 408.946 205.253 408.819 206.114V206.177H408.79Z" fill="#EDEDED"/>
<path d="M393.583 202.117C393.583 202.117 396.407 196.549 398.821 196.953C408.253 198.553 402.697 206.703 402.697 206.703C395.806 204.86 393.583 202.122 393.583 202.122V202.117Z" fill="#DBB9C6"/>
<path d="M479.164 394.663C481.694 390.071 480.354 384.82 476.178 382.937C472.002 381.055 466.567 383.255 464.043 387.847C461.513 392.439 462.853 397.689 467.029 399.572C471.205 401.455 476.64 399.254 479.164 394.663Z" fill="#CACBCC"/>
<path d="M373.91 222.078C373.679 222.049 373.442 221.997 373.193 221.928C372.108 221.628 371.334 221.079 370.906 220.299C370.288 219.179 370.635 218.006 370.646 217.954C370.716 217.717 370.964 217.59 371.201 217.66C371.438 217.729 371.565 217.977 371.495 218.208C371.495 218.226 371.247 219.092 371.686 219.878C371.998 220.438 372.581 220.836 373.43 221.073C374.274 221.304 374.949 221.264 375.435 220.946C376.105 220.507 376.232 219.652 376.237 219.641C376.272 219.398 376.491 219.231 376.734 219.26C376.977 219.294 377.144 219.514 377.115 219.756C377.109 219.808 376.942 221.01 375.931 221.68C375.383 222.044 374.701 222.176 373.91 222.073V222.078Z" fill="#5E5E5E"/>
<path d="M426.69 360.723L410.419 388.673L409.074 390.989C406.036 400.698 396.551 407.797 386.628 407.838C384.237 407.838 381.881 407.485 379.53 407.006C375.539 406.191 371.571 405.019 367.516 404.695C357.333 403.893 347.474 408.432 337.343 408.964C336.447 409.01 335.546 409.027 334.645 409.004C334.149 408.981 333.623 408.964 333.219 408.652C332.71 408.271 332.491 407.595 332.37 406.96C332.023 405.475 331.671 403.985 331.324 402.501C330.908 400.727 330.487 398.954 330.071 397.181C329.874 396.343 329.672 395.5 329.482 394.663C329.326 394.027 329.175 393.386 329.031 392.751C328.269 389.539 327.512 386.322 326.761 383.111C326.415 381.621 326.062 380.107 326.449 378.658C326.813 377.243 328.147 375.937 329.597 376.22C330.562 376.422 331.295 377.237 331.942 378.011C333.831 380.304 335.748 382.568 337.666 384.855C338.296 385.612 338.971 386.392 339.745 386.969C340.363 387.443 341.045 387.772 341.807 387.847C342.905 387.968 343.979 387.547 344.996 387.114C349.767 385.104 354.526 382.955 359.291 380.777C359.874 380.512 360.458 380.24 361.041 379.975C382.268 370.259 403.621 360.348 426.661 360.729H426.69V360.723Z" fill="#EDEDED"/>
<path d="M333.992 139.647H333.9C333.175 139.647 332.78 139.057 333.022 138.325L334.482 133.915C334.724 133.187 335.509 132.594 336.234 132.594H336.327C337.052 132.594 337.446 133.183 337.204 133.915L335.744 138.325C335.502 139.054 334.717 139.647 333.992 139.647Z" fill="#74CDD1"/>
<path d="M329.347 153.677H329.255C328.53 153.677 328.136 153.087 328.377 152.355L329.838 147.945C330.079 147.216 330.865 146.623 331.59 146.623H331.682C332.407 146.623 332.801 147.213 332.56 147.945L331.099 152.355C330.858 153.083 330.072 153.677 329.347 153.677Z" fill="#74CDD1"/>
<path d="M324.707 167.706H324.614C323.889 167.706 323.495 167.116 323.737 166.384L325.197 161.975C325.439 161.246 326.224 160.653 326.949 160.653H327.041C327.766 160.653 328.161 161.242 327.919 161.975L326.459 166.384C326.217 167.113 325.432 167.706 324.707 167.706Z" fill="#74CDD1"/>
<path d="M320.062 181.732H319.97C319.245 181.732 318.85 181.142 319.092 180.41L320.553 176C320.794 175.272 321.58 174.678 322.305 174.678H322.397C323.122 174.678 323.516 175.268 323.275 176L321.814 180.41C321.572 181.139 320.787 181.732 320.062 181.732Z" fill="#74CDD1"/>
<path d="M318.822 130.938H318.73C318.005 130.938 317.61 130.348 317.852 129.616L319.312 125.206C319.554 124.477 320.339 123.884 321.064 123.884H321.157C321.882 123.884 322.276 124.474 322.034 125.206L320.574 129.616C320.332 130.344 319.547 130.938 318.822 130.938Z" fill="#74CDD1"/>
<path d="M314.177 144.967H314.085C313.36 144.967 312.966 144.377 313.207 143.645L314.668 139.235C314.909 138.507 315.695 137.913 316.42 137.913H316.512C317.237 137.913 317.631 138.503 317.39 139.235L315.929 143.645C315.688 144.373 314.902 144.967 314.177 144.967Z" fill="#74CDD1"/>
<path d="M309.537 158.993H309.444C308.719 158.993 308.325 158.403 308.567 157.671L310.027 153.261C310.269 152.533 311.054 151.939 311.779 151.939H311.872C312.596 151.939 312.991 152.529 312.749 153.261L311.289 157.671C311.047 158.4 310.262 158.993 309.537 158.993Z" fill="#74CDD1"/>
<path d="M304.892 173.022H304.799C304.074 173.022 303.68 172.432 303.922 171.7L305.382 167.29C305.624 166.562 306.409 165.969 307.134 165.969H307.226C307.951 165.969 308.346 166.558 308.104 167.29L306.644 171.7C306.402 172.429 305.617 173.022 304.892 173.022Z" fill="#74CDD1"/>
<path d="M303.652 139.647H303.559C302.834 139.647 302.44 139.057 302.681 138.325L304.142 133.915C304.384 133.187 305.169 132.594 305.894 132.594H305.986C306.711 132.594 307.106 133.183 306.864 133.915L305.403 138.325C305.162 139.054 304.377 139.647 303.652 139.647Z" fill="#74CDD1"/>
<path d="M299.007 153.677H298.915C298.19 153.677 297.795 153.087 298.037 152.355L299.497 147.945C299.739 147.216 300.524 146.623 301.249 146.623H301.342C302.067 146.623 302.461 147.213 302.219 147.945L300.759 152.355C300.517 153.083 299.732 153.677 299.007 153.677Z" fill="#74CDD1"/>
<path d="M294.366 167.706H294.274C293.549 167.706 293.155 167.116 293.396 166.384L294.857 161.975C295.098 161.246 295.884 160.653 296.609 160.653H296.701C297.426 160.653 297.82 161.242 297.579 161.975L296.118 166.384C295.877 167.113 295.091 167.706 294.366 167.706Z" fill="#74CDD1"/>
<path d="M289.722 181.732H289.629C288.905 181.732 288.51 181.142 288.752 180.41L290.212 176C290.454 175.272 291.239 174.678 291.964 174.678H292.057C292.781 174.678 293.176 175.268 292.934 176L291.474 180.41C291.232 181.139 290.447 181.732 289.722 181.732Z" fill="#74CDD1"/>
<path d="M288.482 130.337H288.389C287.664 130.337 287.27 129.747 287.512 129.015L288.972 124.605C289.214 123.877 289.999 123.283 290.724 123.283H290.816C291.541 123.283 291.936 123.873 291.694 124.605L290.234 129.015C289.992 129.744 289.207 130.337 288.482 130.337Z" fill="#74CDD1"/>
<path d="M283.837 144.363H283.745C283.02 144.363 282.625 143.773 282.867 143.041L284.328 138.631C284.569 137.903 285.354 137.309 286.079 137.309H286.172C286.897 137.309 287.291 137.899 287.05 138.631L285.589 143.041C285.347 143.77 284.562 144.363 283.837 144.363Z" fill="#74CDD1"/>
<path d="M279.196 158.392H279.104C278.379 158.392 277.984 157.803 278.226 157.071L279.686 152.661C279.928 151.932 280.713 151.339 281.438 151.339H281.531C282.256 151.339 282.65 151.929 282.408 152.661L280.948 157.071C280.706 157.799 279.921 158.392 279.196 158.392Z" fill="#74CDD1"/>
<path d="M274.551 172.422H274.459C273.734 172.422 273.34 171.832 273.581 171.1L275.042 166.69C275.284 165.961 276.069 165.368 276.794 165.368H276.886C277.611 165.368 278.006 165.958 277.764 166.69L276.303 171.1C276.062 171.828 275.276 172.422 274.551 172.422Z" fill="#74CDD1"/>
<path d="M273.312 139.647H273.219C272.494 139.647 272.1 139.057 272.342 138.325L273.802 133.915C274.044 133.187 274.829 132.594 275.554 132.594H275.646C276.371 132.594 276.766 133.183 276.524 133.915L275.064 138.325C274.822 139.054 274.037 139.647 273.312 139.647Z" fill="#74CDD1"/>
<path d="M268.667 153.677H268.574C267.849 153.677 267.455 153.087 267.697 152.355L269.157 147.945C269.399 147.216 270.184 146.623 270.909 146.623H271.001C271.726 146.623 272.121 147.213 271.879 147.945L270.419 152.355C270.177 153.083 269.392 153.677 268.667 153.677Z" fill="#74CDD1"/>
<path d="M264.026 167.706H263.934C263.209 167.706 262.814 167.116 263.056 166.384L264.516 161.975C264.758 161.246 265.543 160.653 266.268 160.653H266.361C267.086 160.653 267.48 161.242 267.239 161.975L265.778 166.384C265.536 167.113 264.751 167.706 264.026 167.706Z" fill="#74CDD1"/>
<path d="M259.382 181.732H259.289C258.564 181.732 258.17 181.142 258.411 180.41L259.872 176C260.114 175.272 260.899 174.678 261.624 174.678H261.716C262.441 174.678 262.836 175.268 262.594 176L261.133 180.41C260.892 181.139 260.106 181.732 259.382 181.732Z" fill="#74CDD1"/>
<path d="M258.141 128.535H258.049C257.324 128.535 256.93 127.946 257.171 127.214L258.632 122.804C258.873 122.075 259.659 121.482 260.384 121.482H260.476C261.201 121.482 261.595 122.072 261.354 122.804L259.893 127.214C259.652 127.942 258.866 128.535 258.141 128.535Z" fill="#74CDD1"/>
<path d="M253.497 142.561H253.404C252.679 142.561 252.285 141.971 252.527 141.239L253.987 136.829C254.229 136.101 255.014 135.508 255.739 135.508H255.831C256.556 135.508 256.951 136.097 256.709 136.829L255.249 141.239C255.007 141.968 254.222 142.561 253.497 142.561Z" fill="#74CDD1"/>
<path d="M248.856 156.591H248.763C248.038 156.591 247.644 156.001 247.886 155.269L249.346 150.859C249.588 150.13 250.373 149.537 251.098 149.537H251.19C251.915 149.537 252.31 150.127 252.068 150.859L250.608 155.269C250.366 155.997 249.581 156.591 248.856 156.591Z" fill="#74CDD1"/>
<path d="M244.211 170.62H244.119C243.394 170.62 242.999 170.03 243.241 169.298L244.702 164.888C244.943 164.16 245.729 163.566 246.453 163.566H246.546C247.271 163.566 247.665 164.156 247.424 164.888L245.963 169.298C245.721 170.027 244.936 170.62 244.211 170.62Z" fill="#74CDD1"/>
<path d="M242.971 139.647H242.879C242.154 139.647 241.76 139.057 242.001 138.325L243.462 133.915C243.703 133.187 244.489 132.594 245.214 132.594H245.306C246.031 132.594 246.425 133.183 246.184 133.915L244.723 138.325C244.482 139.054 243.696 139.647 242.971 139.647Z" fill="#74CDD1"/>
<path d="M238.326 153.677H238.234C237.509 153.677 237.115 153.087 237.356 152.355L238.817 147.945C239.058 147.216 239.844 146.623 240.569 146.623H240.661C241.386 146.623 241.78 147.213 241.539 147.945L240.078 152.355C239.837 153.083 239.051 153.677 238.326 153.677Z" fill="#74CDD1"/>
<path d="M233.686 167.706H233.593C232.868 167.706 232.474 167.116 232.716 166.384L234.176 161.975C234.418 161.246 235.203 160.653 235.928 160.653H236.02C236.745 160.653 237.14 161.242 236.898 161.975L235.438 166.384C235.196 167.113 234.411 167.706 233.686 167.706Z" fill="#74CDD1"/>
<path d="M229.041 181.732H228.949C228.224 181.732 227.829 181.142 228.071 180.41L229.532 176C229.773 175.272 230.559 174.678 231.284 174.678H231.376C232.101 174.678 232.495 175.268 232.254 176L230.793 180.41C230.551 181.139 229.766 181.732 229.041 181.732Z" fill="#74CDD1"/>
<path d="M267.65 74.7594C274.665 76.2235 281.566 80.9782 288.602 80.932C294.334 80.8964 299.974 77.6769 305.649 75.6407C313.79 72.7161 322.066 72.2186 330.253 74.1589C336.248 75.5803 342.584 78.7892 346.909 89.3894C349.194 94.9898 350.654 104.975 348.426 110.711C346.06 116.798 342.094 112.655 338.881 110.046C330.605 103.323 321.693 109.901 313.033 111.841C297.092 115.416 281.09 102.985 265.145 106.582C259.044 107.957 252.754 111.628 246.912 106.958C245.565 105.881 244.218 104.265 243.373 101.408C242.527 98.5505 242.346 94.1974 243.277 91.5144C244.79 87.1613 247.719 86.5004 249.79 85.1251C250.412 84.7129 251.038 84.2972 251.631 83.6717C252.914 82.3178 254.001 80.04 255.156 78.0856C258.465 72.4816 263.813 73.9563 267.65 74.7559V74.7594Z" fill="#193241"/>
<defs>
<linearGradient id="paint0_linear_337_20761" x1="590" y1="1.31428e-05" x2="158.87" y2="533.78" gradientUnits="userSpaceOnUse">
<stop stop-color="#4A7583"/>
<stop offset="1" stop-color="#7583FC"/>
</linearGradient>
</defs>
</svg>
